{"glyphs":{"0":{"ha":875,"x_min":0,"x_max":0,"o":"m 826 469 b 428 -14 826 182 739 -14 b 49 457 169 -14 49 136 b 451 940 49 778 183 940 b 826 469 708 940 826 792 m 582 419 b 429 868 582 689 521 868 b 297 504 306 868 297 579 b 453 53 297 417 311 53 b 582 419 535 53 582 183 "},"1":{"ha":875,"x_min":0,"x_max":0,"o":"m 682 928 b 607 625 601 847 607 733 l 607 301 b 726 33 607 114 636 49 l 726 -4 b 494 4 663 1 575 4 b 251 -4 417 4 325 1 l 251 33 b 381 301 349 42 381 107 l 381 707 b 129 603 304 656 219 622 l 178 778 b 656 972 329 803 526 889 "},"2":{"ha":875,"x_min":0,"x_max":0,"o":"m 801 314 b 639 -14 792 222 768 -14 b 97 13 517 -14 342 13 b 51 -15 86 -6 71 -15 b 25 13 35 -15 25 -6 b 178 188 25 64 99 188 b 488 722 286 308 488 550 b 392 865 488 808 450 865 b 308 754 339 865 308 824 b 340 638 308 708 318 675 b 225 611 303 619 269 611 b 89 743 139 611 89 658 b 444 940 89 865 224 940 b 736 719 644 940 736 871 b 274 188 736 481 444 301 b 621 179 438 188 549 179 b 758 314 696 179 735 218 "},"3":{"ha":875,"x_min":0,"x_max":0,"o":"m 592 531 b 782 299 719 500 782 425 b 350 -14 782 100 624 -14 b 75 144 163 -14 75 36 b 264 301 75 242 147 301 b 343 292 294 301 308 300 b 307 161 317 246 307 208 b 393 61 307 96 336 61 b 531 276 474 61 531 150 b 442 463 531 361 499 426 b 261 415 358 432 294 415 b 206 471 226 415 206 436 b 383 551 206 526 263 551 b 431 550 401 551 410 551 b 511 732 483 592 511 654 b 419 864 511 811 474 864 b 339 754 369 864 339 822 b 375 639 339 708 350 675 b 263 611 333 619 301 611 b 119 742 171 611 119 658 b 472 940 119 863 258 940 b 763 739 661 940 763 871 b 592 531 763 625 688 575 "},"4":{"ha":875,"x_min":0,"x_max":0,"o":"m 683 4 l 494 -26 l 474 -7 l 474 199 b 239 210 408 206 331 210 b 90 206 189 210 126 208 b 54 182 79 189 69 182 b 18 225 33 182 18 201 b 119 374 18 292 63 357 b 232 756 183 510 232 675 b 174 846 232 815 213 846 b 117 829 157 846 140 842 l 103 867 b 368 940 196 913 297 940 b 476 864 442 940 476 915 b 203 381 476 747 276 481 b 325 389 229 385 275 389 b 474 381 390 389 443 385 l 474 668 b 647 724 536 676 592 692 l 683 690 l 683 369 b 807 531 753 369 790 424 l 844 531 b 704 188 844 433 844 188 l 683 188 "},"5":{"ha":875,"x_min":0,"x_max":0,"o":"m 740 1007 b 497 724 722 810 649 724 b 283 753 424 724 363 733 b 290 665 286 736 290 706 b 283 560 290 624 288 588 b 493 617 332 590 399 617 b 785 328 674 617 785 507 b 354 -14 785 104 636 -14 b 85 146 171 -14 85 36 b 274 301 85 242 157 301 b 353 292 318 301 340 296 b 315 160 331 256 315 217 b 400 58 315 94 346 58 b 532 279 482 58 532 143 b 383 488 532 414 479 488 b 261 450 324 488 286 468 b 183 386 250 407 225 386 b 132 426 151 386 132 401 b 168 485 132 451 139 463 b 178 653 174 519 178 582 b 149 915 178 747 168 831 l 168 943 b 429 921 250 928 335 921 b 697 1007 514 921 651 919 "},"6":{"ha":875,"x_min":0,"x_max":0,"o":"m 390 494 b 583 563 449 542 508 563 b 814 306 728 563 814 467 b 446 -14 814 100 682 -14 b 67 339 199 -14 67 108 b 592 974 67 610 249 829 l 619 915 b 317 374 419 778 317 594 b 456 58 317 183 372 58 b 578 272 529 58 578 143 b 451 454 578 392 533 454 b 414 449 438 454 428 453 l 390 494 "},"7":{"ha":875,"x_min":0,"x_max":0,"o":"m 89 607 b 167 906 100 753 125 851 b 256 940 186 931 213 940 b 679 925 328 940 496 926 b 774 926 710 925 721 925 b 819 954 789 946 801 954 b 849 925 838 954 849 942 b 714 753 849 865 774 774 b 463 15 603 532 506 261 l 213 -25 l 196 7 b 608 753 263 258 439 556 b 454 746 557 747 506 746 b 275 750 404 746 333 750 b 132 607 190 750 147 707 "},"8":{"ha":875,"x_min":0,"x_max":0,"o":"m 596 543 b 794 282 744 468 794 401 b 415 -14 794 89 663 -14 b 81 217 190 -14 81 61 b 289 461 81 339 139 407 b 119 688 163 532 119 590 b 481 940 119 849 251 940 b 771 744 672 940 771 874 b 596 543 771 624 694 581 m 521 578 b 581 731 561 615 581 664 b 471 869 581 819 540 869 b 358 746 400 869 358 824 b 521 578 358 656 415 629 m 357 425 b 279 244 303 376 279 324 b 426 53 279 125 335 53 b 560 203 507 53 560 111 b 357 425 560 325 456 376 "},"9":{"ha":875,"x_min":0,"x_max":0,"o":"m 489 451 b 289 382 460 426 388 382 b 63 633 150 382 63 481 b 435 940 63 828 199 940 b 808 578 678 940 808 814 b 283 -51 808 313 643 114 l 254 10 b 560 558 446 140 560 319 b 418 868 560 743 503 868 b 297 669 349 868 297 785 b 428 489 297 556 346 489 b 467 497 443 489 457 492 l 489 451 "}," ":{"ha":264,"x_min":0,"x_max":0,"o":""},"!":{"ha":463,"x_min":0,"x_max":0,"o":"m 389 904 b 300 351 340 740 308 536 b 194 292 264 333 229 313 l 144 321 b 115 882 144 528 139 710 b 349 940 190 893 279 911 m 228 238 b 356 111 299 238 356 181 b 228 -15 356 42 299 -15 b 101 111 158 -15 101 42 b 228 238 101 181 158 238 "},"\"":{"ha":606,"x_min":0,"x_max":0,"o":"m 272 921 b 233 594 244 818 235 715 l 122 575 l 100 588 b 69 926 100 719 93 836 b 247 944 126 926 203 935 m 536 921 b 497 594 508 817 499 717 l 388 575 l 364 588 b 333 926 364 719 357 836 b 511 944 390 926 467 935 "},"#":{"ha":875,"x_min":0,"x_max":0,"o":"m 308 292 l 257 78 l 117 78 l 168 292 l 21 292 l 39 364 l 185 364 l 235 571 l 88 571 l 106 643 l 251 643 l 301 849 l 443 849 l 393 643 l 563 643 l 611 849 l 753 849 l 703 643 l 854 643 l 836 571 l 686 571 l 636 364 l 788 364 l 769 292 l 619 292 l 568 78 l 426 78 l 478 292 m 544 571 l 376 571 l 326 364 l 494 364 "},"$":{"ha":875,"x_min":0,"x_max":0,"o":"m 460 1029 l 460 926 b 758 767 568 926 758 921 b 613 633 758 682 706 633 b 518 653 568 633 540 640 b 533 750 528 678 533 708 b 460 863 533 821 508 858 l 460 593 b 779 283 654 511 779 464 b 460 7 779 122 669 26 l 460 -117 l 386 -117 l 386 4 b 88 169 278 8 88 24 b 244 310 88 256 147 310 b 331 294 288 310 311 306 b 307 186 317 265 307 232 b 386 71 307 115 335 75 l 386 386 b 100 663 240 449 100 506 b 386 924 100 806 199 903 l 386 1029 m 386 858 b 311 732 336 842 311 789 b 386 624 311 676 340 639 l 386 858 m 460 74 b 549 214 517 85 549 135 b 460 356 549 282 528 322 l 460 74 "},"%":{"ha":1267,"x_min":0,"x_max":0,"o":"m 418 11 b 242 -49 326 -3 311 -11 l 231 -29 l 757 778 b 674 772 732 775 706 772 b 529 796 638 772 575 776 b 543 697 540 764 543 733 b 283 432 543 522 454 432 b 46 678 126 432 46 515 b 279 940 46 838 138 940 b 310 919 300 940 310 933 b 290 897 310 910 307 906 b 221 711 243 874 221 815 b 299 489 221 576 251 489 b 372 671 343 489 372 561 b 346 826 372 729 363 782 b 314 853 324 829 314 838 b 429 922 314 888 401 922 b 490 868 447 922 464 907 b 689 838 556 844 624 838 b 799 843 729 838 763 839 b 960 940 864 911 904 940 b 1035 861 1003 940 1035 906 b 925 799 1035 835 996 811 l 418 11 m 1221 243 b 964 -14 1221 69 1139 -14 b 725 239 806 -14 725 71 b 983 497 725 408 814 497 b 1221 243 1142 497 1221 411 m 1050 213 b 969 436 1050 346 1017 436 b 900 260 925 436 900 372 b 979 43 900 131 932 43 b 1050 213 1046 43 1050 172 "},"&":{"ha":1151,"x_min":0,"x_max":0,"o":"m 708 550 b 871 542 764 544 815 542 b 1099 615 1022 542 1074 557 l 1124 615 b 882 381 1101 421 1063 381 l 807 381 b 811 335 810 368 811 353 b 779 228 811 288 794 250 b 946 171 842 192 897 171 b 1054 250 992 171 1024 194 l 1086 238 b 899 -14 1028 39 978 -14 b 638 76 821 -14 732 15 b 368 -14 582 29 510 -14 b 51 226 167 -14 51 74 b 286 500 51 385 158 449 b 257 632 272 528 257 575 b 568 865 257 778 374 865 b 792 722 708 865 792 813 b 700 615 792 664 763 643 l 493 521 b 722 261 544 424 640 317 b 744 328 735 276 744 296 b 647 428 744 376 715 413 l 638 451 m 469 579 b 574 714 550 611 574 646 b 522 806 574 776 556 806 b 450 675 482 806 450 763 b 469 579 450 638 457 607 m 313 436 b 268 314 282 406 268 369 b 476 85 268 176 351 85 b 582 111 533 85 561 97 b 313 436 465 193 371 306 "},"’":{"ha":451,"x_min":0,"x_max":0,"o":"m 60 1022 b 263 1082 132 1061 204 1082 b 368 965 333 1082 368 1044 b 147 660 368 846 288 733 l 117 701 b 181 874 160 754 181 810 b 74 994 181 946 151 994 "},"(":{"ha":493,"x_min":0,"x_max":0,"o":"m 440 1010 b 293 374 282 868 293 568 b 451 -299 293 172 279 -157 l 426 -347 b 60 361 90 -235 60 36 b 426 1057 60 664 88 958 "},")":{"ha":493,"x_min":0,"x_max":0,"o":"m 68 1057 b 433 360 401 964 433 668 b 68 -347 433 51 410 -233 l 42 -299 b 200 372 211 -164 200 179 b 53 1010 200 569 214 867 l 68 1057 "},"*":{"ha":722,"x_min":0,"x_max":0,"o":"m 451 1001 l 483 963 l 400 779 l 565 921 l 639 754 l 618 713 l 419 713 l 593 629 l 469 493 l 413 493 l 363 681 l 310 493 l 249 493 l 129 629 l 308 713 l 106 713 l 83 754 l 168 921 l 322 779 l 249 969 "},"+":{"ha":875,"x_min":0,"x_max":0,"o":"m 501 797 l 501 539 l 763 539 l 763 411 l 501 411 l 501 147 l 369 147 l 369 411 l 113 411 l 113 539 l 369 539 l 369 797 "},",":{"ha":451,"x_min":0,"x_max":0,"o":"m 63 210 b 261 268 125 243 203 268 b 368 153 333 268 368 231 b 146 -154 368 33 286 -81 l 117 -112 b 181 61 160 -60 181 -3 b 72 181 181 135 150 181 "},"-":{"ha":568,"x_min":0,"x_max":0,"o":"m 513 354 b 56 197 357 311 206 256 l 56 421 b 513 569 211 461 363 511 "},".":{"ha":451,"x_min":0,"x_max":0,"o":"m 225 269 b 368 126 304 269 368 206 b 225 -15 368 49 304 -15 b 83 126 147 -15 83 49 b 225 269 83 206 147 269 "},"/":{"ha":654,"x_min":0,"x_max":0,"o":"m 608 1039 l 114 -396 l -35 -344 l 461 1092 "},":":{"ha":451,"x_min":0,"x_max":0,"o":"m 225 261 b 364 122 301 261 364 199 b 225 -15 364 46 301 -15 b 88 122 150 -15 88 46 b 225 261 88 199 150 261 m 225 682 b 364 544 301 682 364 619 b 225 406 364 468 301 406 b 88 544 150 406 88 468 b 225 682 88 619 150 682 "},";":{"ha":451,"x_min":0,"x_max":0,"o":"m 64 210 b 261 268 128 244 203 268 b 368 153 333 268 368 231 b 146 -154 368 33 286 -81 l 117 -112 b 181 61 160 -60 181 -3 b 72 181 181 135 150 181 m 224 682 b 361 544 300 682 361 619 b 224 406 361 468 300 406 b 86 544 147 406 86 468 b 224 682 86 619 147 682 "},"<":{"ha":875,"x_min":0,"x_max":0,"o":"m 654 811 l 715 704 l 333 476 l 715 221 l 639 115 l 117 476 "},"=":{"ha":875,"x_min":0,"x_max":0,"o":"m 763 654 l 763 531 l 113 531 l 113 654 m 763 414 l 763 290 l 113 290 l 113 414 "},">":{"ha":875,"x_min":0,"x_max":0,"o":"m 222 118 l 160 224 l 542 451 l 160 707 l 236 813 l 758 451 "},"?":{"ha":736,"x_min":0,"x_max":0,"o":"m 485 357 b 264 282 408 310 326 282 b 179 365 210 282 179 313 b 319 542 179 433 249 489 b 442 728 388 593 442 646 b 350 867 442 807 403 867 b 275 750 304 867 275 819 b 307 638 275 708 285 675 b 194 610 286 625 249 610 b 56 747 107 610 56 660 b 404 940 56 865 190 940 b 689 746 588 940 689 871 b 533 551 689 653 639 614 b 393 411 443 497 393 454 b 435 372 393 389 410 372 b 474 382 450 372 465 378 m 354 238 b 481 111 424 238 481 181 b 354 -15 481 42 425 -15 b 228 111 285 -15 228 42 b 354 238 228 181 285 238 "},"@":{"ha":1119,"x_min":0,"x_max":0,"o":"m 829 729 l 847 707 b 765 332 815 611 765 444 b 813 276 765 290 776 276 b 956 535 897 276 956 367 b 597 888 956 765 813 888 b 193 439 365 888 193 701 b 593 47 193 164 356 47 b 781 81 668 47 729 61 l 801 15 b 571 -28 754 -7 679 -28 b 46 422 260 -28 46 121 b 597 954 46 756 286 954 b 1074 549 885 954 1074 803 b 758 210 1074 340 938 210 b 618 283 706 210 618 214 b 626 351 618 299 621 324 l 635 399 b 425 210 557 264 497 210 b 314 357 356 210 314 265 b 583 719 314 544 444 719 b 692 671 629 719 663 706 l 699 711 m 474 408 b 511 340 474 363 479 340 b 617 456 547 340 586 394 b 667 611 646 515 667 582 b 618 664 667 646 649 664 b 474 408 535 664 474 472 "},"A":{"ha":992,"x_min":0,"x_max":0,"o":"m 271 299 l 247 228 b 221 122 232 181 221 143 b 314 32 221 69 251 40 l 314 -4 b 136 4 263 1 199 4 b -37 -4 72 4 19 1 l -37 28 b 165 299 51 39 111 158 l 308 671 b 346 808 342 758 346 779 b 247 885 346 858 313 883 l 247 926 b 372 924 278 925 319 924 b 597 939 444 924 518 928 b 674 696 611 882 647 767 l 811 333 b 994 28 864 193 929 65 l 994 -4 b 767 4 931 1 853 4 b 550 -4 683 4 614 1 l 550 32 b 633 106 607 36 633 60 b 604 224 633 138 619 181 l 578 299 m 426 699 l 310 390 l 547 390 "},"B":{"ha":946,"x_min":0,"x_max":0,"o":"m 574 499 b 886 254 731 486 886 454 b 531 -4 886 40 703 -4 b 265 4 433 -4 342 4 b 39 -4 176 4 107 1 l 39 33 b 157 301 129 50 157 114 l 157 624 b 39 893 157 811 129 876 l 39 931 b 268 922 93 925 169 922 b 543 931 329 922 442 931 b 842 750 672 931 842 919 b 574 499 842 592 711 519 m 397 528 b 422 526 408 526 414 526 b 585 701 531 526 585 585 b 465 858 585 803 543 858 b 397 842 428 858 410 851 l 397 528 m 397 310 b 435 96 397 253 399 136 b 503 68 450 78 474 68 b 619 235 576 68 619 129 b 426 451 619 368 546 451 b 397 450 419 451 410 450 "},"":{"ha":946,"x_min":0,"x_max":0,"o":"m 574 499 b 842 750 711 519 842 592 b 543 931 842 919 672 931 b 268 922 442 931 329 922 b 39 931 169 922 93 925 l 39 893 b 157 624 129 876 157 811 l 157 301 b 39 33 157 114 129 50 l 39 -4 b 265 4 107 1 176 4 b 531 -4 342 4 433 -4 b 886 254 703 -4 886 40 b 574 499 886 454 731 486 m 397 528 l 397 842 b 465 858 410 851 428 858 b 585 701 543 858 585 803 b 422 526 585 585 531 526 b 397 528 414 526 408 526 m 397 450 b 426 451 410 450 419 451 b 619 235 546 451 619 368 b 503 68 619 129 576 68 b 435 96 474 68 450 78 b 397 310 399 136 397 253 "},"C":{"ha":1008,"x_min":0,"x_max":0,"o":"m 835 629 b 583 863 792 785 708 863 b 331 475 419 863 331 732 b 583 64 331 304 368 64 b 917 324 724 64 832 147 l 985 292 b 917 40 951 200 932 132 b 549 -14 826 8 676 -14 b 60 451 213 -14 60 132 b 601 940 60 786 232 940 b 906 906 710 940 808 929 b 900 771 901 850 900 814 b 906 629 900 731 901 682 "},"D":{"ha":1121,"x_min":0,"x_max":0,"o":"m 39 931 b 251 922 101 925 167 922 b 608 931 358 922 489 931 b 1061 476 915 931 1061 797 b 579 -4 1061 154 903 -4 b 267 4 482 -4 350 4 b 39 -4 186 4 111 1 l 39 33 b 157 301 129 50 157 115 l 157 624 b 39 893 157 811 129 876 l 39 931 m 403 281 b 417 136 403 228 410 164 b 550 65 431 88 472 65 b 790 451 715 65 790 186 b 522 854 790 729 707 854 b 403 831 464 854 428 843 "},"E":{"ha":904,"x_min":0,"x_max":0,"o":"m 403 539 l 451 539 b 624 644 536 539 597 550 l 689 644 b 678 489 683 608 678 544 b 689 333 678 429 683 367 l 624 333 b 451 447 589 422 550 447 l 403 447 l 403 307 b 419 132 403 221 406 174 b 528 69 433 89 468 69 b 824 307 667 69 767 193 l 890 272 b 783 -12 843 181 810 88 b 458 0 676 -3 567 0 l 289 0 b 40 -4 206 0 103 -1 l 40 33 b 157 301 129 50 157 115 l 157 624 b 40 893 157 811 129 876 l 40 931 b 226 926 83 928 132 926 l 453 926 b 760 935 569 926 674 929 b 794 663 763 842 772 750 l 735 644 b 442 850 672 797 607 850 l 403 850 "},"":{"ha":904,"x_min":0,"x_max":0,"o":"m 403 850 l 442 850 b 735 644 607 850 672 797 l 794 663 b 760 935 772 750 763 842 b 453 926 674 929 569 926 l 226 926 b 40 931 132 926 83 928 l 40 893 b 157 624 129 876 157 811 l 157 301 b 40 33 157 115 129 50 l 40 -4 b 289 0 103 -1 206 0 l 458 0 b 783 -12 567 0 676 -3 b 890 272 810 88 843 181 l 824 307 b 528 69 767 193 667 69 b 419 132 468 69 433 89 b 403 307 406 174 403 221 l 403 447 l 451 447 b 624 333 550 447 589 422 l 689 333 b 678 489 683 367 678 429 b 689 644 678 544 683 608 l 624 644 b 451 539 597 550 536 539 l 403 539 "},"F":{"ha":826,"x_min":0,"x_max":0,"o":"m 403 518 l 446 518 b 624 626 524 518 608 533 l 692 626 b 681 467 683 574 681 518 b 692 313 681 408 683 360 l 624 313 b 442 426 593 407 539 426 l 403 426 l 403 301 b 565 33 403 115 414 40 l 565 -4 b 288 4 483 1 381 4 b 40 -4 181 4 110 1 l 40 33 b 157 301 129 51 157 115 l 157 624 b 40 893 157 810 129 875 l 40 931 b 242 926 94 928 149 926 l 451 926 b 758 935 618 926 681 928 b 799 663 765 843 782 739 l 738 640 b 436 853 675 792 604 853 l 403 853 "},"G":{"ha":1056,"x_min":0,"x_max":0,"o":"m 831 629 b 578 861 789 782 703 861 b 331 481 418 861 331 732 b 572 56 331 213 422 56 b 689 104 625 56 669 75 b 706 210 703 125 706 150 b 576 382 706 333 675 374 l 576 418 b 815 408 613 414 707 408 b 1014 418 919 408 976 414 l 1014 382 b 954 276 972 375 954 344 l 956 129 l 1004 86 b 550 -14 942 47 794 -14 b 60 442 210 -14 60 126 b 600 940 60 779 225 940 b 904 906 713 940 821 928 b 897 778 900 868 897 819 b 904 629 897 726 900 674 "},"H":{"ha":1161,"x_min":0,"x_max":0,"o":"m 758 531 l 758 624 b 639 893 758 811 729 876 l 639 931 b 876 922 715 925 788 922 b 1122 931 978 922 1050 925 l 1122 893 b 1003 624 1032 876 1003 811 l 1003 301 b 1122 33 1003 114 1032 49 l 1122 -4 b 888 4 1061 1 989 4 b 639 -4 790 4 719 1 l 639 33 b 758 301 729 49 758 114 l 758 436 l 403 436 l 403 301 b 521 33 403 114 432 49 l 521 -4 b 283 4 461 1 379 4 b 39 -4 182 4 108 1 l 39 33 b 157 301 129 49 157 114 l 157 624 b 39 893 157 811 129 876 l 39 931 b 274 922 108 925 185 922 b 521 931 372 922 456 925 l 521 893 b 403 624 432 876 403 813 l 403 531 "},"I":{"ha":560,"x_min":0,"x_max":0,"o":"m 521 -4 b 296 4 419 3 381 4 b 39 -4 210 4 125 0 l 39 33 b 157 301 129 49 157 114 l 157 624 b 39 893 157 811 129 876 l 39 931 b 274 922 151 924 193 922 b 521 931 356 922 439 926 l 521 893 b 403 624 432 876 403 813 l 403 301 b 521 33 403 114 432 49 "},"J":{"ha":753,"x_min":0,"x_max":0,"o":"m 268 279 b 232 151 250 251 232 215 b 288 65 232 96 247 65 b 367 407 363 65 367 146 l 367 624 b 249 893 367 811 339 876 l 249 931 b 500 922 310 925 417 922 b 729 931 585 922 658 925 l 729 893 b 610 624 639 876 610 811 l 610 410 b 239 -15 610 140 600 -15 b 0 124 76 -15 0 29 b 197 290 0 221 82 290 b 268 279 236 290 256 285 "},"K":{"ha":1088,"x_min":0,"x_max":0,"o":"m 522 -4 b 283 4 467 1 381 4 b 39 -4 185 4 110 1 l 39 33 b 157 301 129 49 157 114 l 157 624 b 39 893 157 811 129 876 l 39 931 b 279 922 104 925 182 922 b 522 931 368 922 446 925 l 522 893 b 404 624 432 876 404 813 l 404 301 b 522 33 404 114 432 49 m 611 540 b 794 386 711 521 738 469 l 919 204 b 1106 31 981 115 1054 44 l 1106 0 l 869 0 b 676 125 764 0 758 6 l 519 353 b 404 492 486 401 449 453 l 661 728 b 725 835 704 767 725 800 b 636 893 725 883 688 889 l 636 931 b 828 922 697 925 758 922 b 1011 931 889 922 958 925 l 1011 896 b 736 660 950 861 917 832 l 611 540 "},"L":{"ha":878,"x_min":0,"x_max":0,"o":"m 39 931 b 263 922 106 925 167 922 b 522 931 360 922 435 925 l 522 893 b 404 624 432 876 404 813 l 404 274 b 418 139 404 226 410 168 b 526 69 432 92 467 69 b 824 308 639 69 731 142 l 888 274 b 783 -12 844 181 811 86 b 404 0 669 -4 531 0 l 211 0 b 39 -4 154 0 83 -1 l 39 33 b 157 301 129 49 157 114 l 157 624 b 39 893 157 811 129 876 l 39 931 "},"M":{"ha":1347,"x_min":0,"x_max":0,"o":"m 800 619 b 910 931 843 721 881 824 b 1088 922 963 925 1022 922 b 1267 931 1149 922 1214 925 l 1267 894 b 1178 706 1178 882 1178 760 b 1182 593 1178 664 1181 619 l 1199 347 b 1317 31 1213 144 1247 51 l 1317 -4 b 1111 4 1258 1 1186 4 b 869 -4 1038 4 943 1 l 869 32 b 969 197 938 49 969 101 b 965 324 969 239 968 282 l 942 685 l 853 476 b 692 -4 786 321 731 160 l 532 -4 l 281 685 l 254 308 b 250 206 251 274 250 240 b 361 32 250 117 264 61 l 361 -4 b 175 4 307 1 238 4 b -1 -4 119 4 60 1 l -1 32 b 151 307 113 42 139 138 l 179 686 b 182 769 181 711 182 743 b 83 894 182 854 160 888 l 83 931 b 267 922 135 925 197 922 b 456 931 336 922 399 925 b 535 656 474 838 503 744 l 661 296 "},"N":{"ha":1103,"x_min":0,"x_max":0,"o":"m 854 624 b 735 893 854 811 825 876 l 735 931 b 904 922 793 925 851 922 b 1074 931 958 922 1019 925 l 1074 893 b 954 624 983 876 954 811 l 954 354 b 964 -4 954 235 958 79 l 757 -4 l 250 711 l 250 301 b 369 33 250 114 279 49 l 369 -4 b 199 4 326 1 261 4 b 29 -4 142 4 86 1 l 29 33 b 149 301 119 49 149 114 l 149 624 b 29 893 149 811 119 876 l 29 931 b 222 922 99 925 153 922 b 411 931 293 922 354 925 b 567 678 456 842 510 758 l 854 269 "},"O":{"ha":1143,"x_min":0,"x_max":0,"o":"m 1083 468 b 554 -14 1083 117 885 -14 b 60 461 232 -14 60 132 b 599 940 60 807 274 940 b 1083 468 928 940 1083 789 m 813 460 b 575 863 813 728 731 863 b 331 483 419 863 331 728 b 568 64 331 258 392 64 b 813 460 758 64 813 258 "},"P":{"ha":889,"x_min":0,"x_max":0,"o":"m 404 301 b 554 33 404 119 419 42 l 554 -4 b 290 4 482 1 389 4 b 39 -4 203 4 104 1 l 39 33 b 157 301 129 49 157 114 l 157 624 b 39 893 157 811 129 876 l 39 931 b 289 922 103 925 194 922 b 571 931 358 922 442 931 b 861 717 722 931 861 900 b 486 407 861 529 713 407 b 404 411 439 407 414 410 m 404 490 b 439 488 421 488 428 488 b 599 686 538 488 599 564 b 471 863 599 797 551 863 b 404 843 436 863 417 853 l 404 490 "},"Q":{"ha":1144,"x_min":0,"x_max":0,"o":"m 1151 -62 b 961 -342 1090 -294 1047 -342 b 225 -219 872 -342 465 -275 b 190 -233 207 -231 200 -233 b 168 -208 176 -233 168 -224 b 379 -71 168 -175 275 -71 b 425 -72 392 -71 408 -71 b 578 -15 478 -60 528 -39 b 58 465 224 -15 58 133 b 589 940 58 786 232 940 b 1085 467 924 940 1085 786 b 526 -87 1085 75 849 4 b 976 -146 672 -114 854 -146 b 1114 -49 1058 -146 1086 -125 m 814 438 b 576 864 814 721 732 864 b 329 468 419 864 329 722 b 571 56 329 218 413 56 b 814 438 751 56 814 218 "},"R":{"ha":1029,"x_min":0,"x_max":0,"o":"m 404 301 b 522 33 404 114 432 49 l 522 -4 b 275 4 447 1 361 4 b 39 -4 188 4 106 1 l 39 33 b 157 301 129 49 157 114 l 157 624 b 39 893 157 811 129 876 l 39 931 b 260 922 92 925 172 922 b 558 931 356 922 425 931 b 860 718 703 931 860 903 b 618 472 860 597 775 510 b 804 347 713 460 757 435 l 883 203 b 1047 35 935 110 975 47 l 1047 0 l 793 0 b 676 60 711 0 708 1 l 528 331 b 443 453 503 375 465 432 b 404 456 433 453 419 453 m 404 526 b 449 522 418 524 429 522 b 599 696 542 522 599 588 b 472 864 599 800 550 864 b 404 846 438 864 418 856 l 404 526 "},"S":{"ha":821,"x_min":0,"x_max":0,"o":"m 658 631 b 443 867 628 775 544 867 b 322 756 365 867 322 826 b 504 576 322 661 367 639 b 765 290 643 514 765 460 b 346 -14 765 96 603 -14 b 46 46 181 -14 81 28 b 58 213 54 89 58 165 b 54 326 58 250 57 289 l 131 326 b 356 61 146 182 232 61 b 504 203 449 61 504 113 b 322 397 504 303 432 350 b 61 674 196 451 61 511 b 457 940 61 844 204 940 b 736 900 586 940 689 918 b 728 778 732 869 728 828 b 736 631 728 729 731 679 "},"":{"ha":821,"x_min":0,"x_max":0,"o":"m 736 631 b 728 778 731 679 728 729 b 736 900 728 828 732 869 b 457 940 689 918 586 940 b 61 674 204 940 61 844 b 322 397 61 511 196 451 b 504 203 432 350 504 303 b 356 61 504 113 449 61 b 131 326 232 61 146 182 l 54 326 b 58 213 57 289 58 250 b 46 46 58 165 54 89 b 346 -14 81 28 181 -14 b 765 290 603 -14 765 96 b 504 576 765 460 643 514 b 322 756 367 639 322 661 b 443 867 322 826 365 867 b 658 631 544 867 628 775 "},"T":{"ha":893,"x_min":0,"x_max":0,"o":"m 568 301 b 688 33 568 114 597 49 l 688 -4 b 446 4 611 1 522 4 b 206 -4 371 4 279 1 l 206 33 b 324 301 296 49 324 114 l 324 851 b 71 657 181 851 115 804 l 6 657 b 25 935 19 736 25 843 b 324 926 85 931 189 926 l 568 926 b 863 935 696 926 801 931 b 888 657 864 842 874 750 l 819 657 b 568 851 779 807 719 851 "},"U":{"ha":1147,"x_min":0,"x_max":0,"o":"m 744 225 b 419 -14 654 51 565 -14 b 144 325 178 -14 144 132 l 144 624 b 26 893 144 811 117 876 l 26 931 b 269 922 92 925 172 922 b 508 931 372 922 443 925 l 508 893 b 390 624 419 876 390 811 l 390 394 b 531 178 390 269 404 178 b 744 303 611 178 676 214 l 744 624 b 626 893 744 811 715 876 l 626 931 b 875 922 708 925 788 922 b 1108 931 960 922 1032 925 l 1108 893 b 990 624 1018 876 990 811 l 990 301 b 1108 33 990 114 1018 49 l 1108 -4 b 926 4 1053 1 990 4 b 744 -4 856 4 804 1 "},"V":{"ha":994,"x_min":0,"x_max":0,"o":"m 718 639 b 767 810 757 739 767 771 b 676 894 767 857 742 882 l 676 931 b 846 922 722 925 782 922 b 1028 931 907 922 979 925 l 1028 894 b 817 608 943 882 871 749 l 711 335 b 606 -4 668 224 633 111 l 390 -4 l 169 583 b -17 894 115 729 61 846 l -17 931 b 208 922 51 925 131 922 b 438 931 286 922 361 925 l 438 894 b 353 825 381 889 353 864 b 399 658 353 785 364 753 l 560 225 "},"W":{"ha":1538,"x_min":0,"x_max":0,"o":"m 649 222 b 585 -4 624 147 601 72 l 358 -4 l 167 572 b -3 892 110 744 63 854 l -3 931 b 225 922 64 925 128 922 b 451 931 322 922 388 925 l 451 892 b 354 807 383 885 354 860 b 383 681 354 779 364 740 l 533 222 l 701 710 b 585 892 668 813 631 872 l 585 931 b 807 922 653 925 717 922 b 1033 931 892 922 964 925 l 1033 892 b 938 794 964 883 938 858 b 993 581 938 754 947 717 l 1114 222 l 1249 611 b 1296 799 1283 710 1296 760 b 1200 892 1296 856 1265 885 l 1200 931 b 1383 922 1251 925 1310 922 b 1558 931 1454 922 1504 925 l 1558 892 b 1368 621 1460 849 1403 717 l 1243 268 b 1164 -4 1213 181 1185 88 l 936 -4 l 757 543 "},"X":{"ha":1039,"x_min":0,"x_max":0,"o":"m 657 717 b 722 840 707 776 722 807 b 657 893 722 876 706 890 l 657 931 b 829 922 715 925 769 922 b 996 931 890 922 940 925 l 996 903 b 717 631 918 865 849 789 l 633 531 l 778 319 b 1043 26 876 176 981 60 l 1043 -4 b 813 4 989 1 900 4 b 575 -4 728 4 651 1 l 575 26 b 633 71 619 31 633 40 b 590 167 633 97 617 128 l 465 354 l 350 215 b 271 69 304 160 271 103 b 335 26 271 40 288 29 l 335 -4 b 157 4 286 1 225 4 b -24 -4 89 4 31 1 l -24 26 b 226 226 57 53 136 121 l 406 438 l 282 617 b 25 903 185 758 94 868 l 25 931 b 246 922 93 925 175 922 b 494 931 321 922 414 925 l 494 893 b 443 850 457 889 443 878 b 515 704 443 821 469 771 l 575 617 "},"Y":{"ha":926,"x_min":0,"x_max":0,"o":"m 614 664 b 681 828 663 743 681 790 b 611 892 681 872 663 889 l 611 931 b 782 922 665 925 721 922 b 944 931 843 922 897 925 l 944 900 b 715 639 879 872 815 803 l 592 436 l 592 301 b 710 33 592 114 621 49 l 710 -4 b 465 4 636 1 544 4 b 229 -4 378 4 300 1 l 229 33 b 349 301 319 49 349 114 l 349 371 l 192 639 b -32 892 107 785 38 861 l -32 931 b 186 922 31 925 89 922 b 431 931 286 922 353 925 l 431 892 b 374 839 388 889 374 875 b 439 685 374 804 386 776 l 529 526 "},"Z":{"ha":924,"x_min":0,"x_max":0,"o":"m 79 599 b 160 901 85 668 101 850 b 307 926 193 931 265 926 l 853 926 l 881 881 b 301 196 768 667 540 396 b 701 175 481 193 622 175 b 853 311 792 175 825 206 l 893 311 b 717 -14 881 206 858 -14 b 121 18 581 -14 396 18 b 61 -14 99 -3 79 -14 b 35 11 43 -14 35 -6 b 199 196 35 68 128 194 b 567 775 319 338 485 599 b 478 779 528 778 514 779 b 114 594 247 779 150 729 "},"[":{"ha":493,"x_min":0,"x_max":0,"o":"m 88 1032 b 283 1025 121 1029 197 1025 b 471 1032 361 1025 440 1029 l 471 929 b 313 940 438 935 353 940 l 313 -231 b 471 -221 369 -231 439 -225 l 471 -328 b 286 -319 419 -322 354 -319 b 88 -328 218 -319 153 -322 l 88 1032 "},"\\":{"ha":654,"x_min":0,"x_max":0,"o":"m 689 -344 l 540 -396 l 46 1039 l 193 1092 "},"]":{"ha":493,"x_min":0,"x_max":0,"o":"m 407 1032 l 407 -328 b 208 -319 342 -322 276 -319 b 24 -328 140 -319 75 -322 l 24 -221 b 182 -231 56 -225 125 -231 l 182 940 b 24 929 142 940 57 935 l 24 1032 b 211 1025 54 1029 133 1025 b 407 1032 297 1025 374 1029 "},"^":{"ha":694,"x_min":0,"x_max":0,"o":"m 21 489 l 319 972 l 333 972 l 667 489 l 397 489 l 253 699 l 122 489 "},"_":{"ha":686,"x_min":0,"x_max":0,"o":"m 686 -129 l 686 -250 l 0 -250 l 0 -129 "},"‘":{"ha":451,"x_min":0,"x_max":0,"o":"m 392 750 b 190 690 319 711 249 690 b 83 806 118 690 83 728 b 304 1113 83 925 165 1039 l 335 1071 b 271 897 292 1019 271 961 b 379 778 271 824 301 778 "},"a":{"ha":753,"x_min":0,"x_max":0,"o":"m 761 154 b 558 -14 726 39 663 -14 b 421 131 471 -14 428 31 b 211 -14 372 29 310 -14 b 42 143 103 -14 42 43 b 421 371 42 285 171 363 l 421 396 b 335 621 421 551 404 621 b 256 525 286 621 256 585 b 288 432 256 476 274 449 b 186 408 272 424 239 408 b 64 514 110 408 64 449 b 404 681 64 613 204 681 b 639 485 568 681 639 622 b 633 282 639 424 633 336 b 674 110 633 154 644 110 b 724 169 704 110 714 147 m 421 322 b 260 183 319 315 260 264 b 315 107 260 132 279 107 b 421 194 358 107 393 136 l 421 322 "},"b":{"ha":850,"x_min":0,"x_max":0,"o":"m 100 68 l 100 771 b 11 1001 100 917 76 979 l 11 1032 l 326 1046 b 314 704 315 932 314 819 l 314 492 b 569 681 385 622 464 681 b 801 356 714 681 801 558 b 349 -14 801 101 660 -14 b 64 21 197 -14 104 6 m 314 265 b 433 60 314 121 350 60 b 586 303 528 60 586 153 b 451 524 586 442 536 524 b 314 383 367 524 333 454 "},"":{"ha":850,"x_min":0,"x_max":0,"o":"m 64 21 b 349 -14 104 6 197 -14 b 801 356 660 -14 801 101 b 569 681 801 558 714 681 b 314 492 464 681 385 622 l 314 704 b 326 1046 314 819 315 932 l 11 1032 l 11 1001 b 100 771 76 979 100 917 l 100 68 m 314 383 b 451 524 333 454 367 524 b 586 303 536 524 586 442 b 433 60 586 153 528 60 b 314 265 350 60 314 121 "},"c":{"ha":685,"x_min":0,"x_max":0,"o":"m 679 182 b 339 -14 588 53 471 -14 b 49 289 158 -14 49 100 b 451 681 49 533 200 681 b 642 558 578 681 642 640 b 474 410 642 472 571 410 b 435 411 464 410 447 410 b 461 514 454 450 461 478 b 392 615 461 576 433 615 b 271 389 318 615 271 525 b 457 117 271 219 340 117 b 643 213 522 117 581 146 "},"d":{"ha":871,"x_min":0,"x_max":0,"o":"m 767 1044 b 751 647 754 919 751 806 l 751 257 b 840 26 751 111 776 49 l 840 -4 b 714 0 811 -1 767 0 b 561 -14 649 0 599 -6 b 538 156 544 44 538 90 b 285 -14 460 35 388 -14 b 49 314 139 -14 49 111 b 411 681 49 547 181 681 b 538 664 472 681 511 672 l 538 749 b 450 1004 538 917 514 983 l 450 1031 l 767 1044 m 538 439 b 414 610 538 550 494 610 b 265 369 321 610 265 521 b 396 146 265 225 311 146 b 538 232 453 146 499 174 "},"e":{"ha":740,"x_min":0,"x_max":0,"o":"m 268 376 b 268 372 268 375 268 374 b 475 113 268 303 283 113 b 674 210 549 113 613 143 l 710 181 b 363 -14 625 53 507 -14 b 49 314 167 -14 49 108 b 407 681 49 544 182 681 b 689 450 588 681 689 599 b 681 376 689 424 688 410 l 268 376 m 464 450 b 468 494 467 463 468 476 b 379 622 468 574 435 622 b 268 440 310 622 272 563 "},"f":{"ha":506,"x_min":0,"x_max":0,"o":"m 501 667 l 514 649 l 474 586 b 340 594 438 592 385 594 l 340 257 b 451 26 340 97 361 46 l 451 -4 b 233 4 382 1 311 4 b 35 -4 154 4 93 1 l 35 26 b 129 257 103 39 129 106 l 129 594 b 35 586 88 594 56 590 l 24 600 l 57 667 l 129 667 b 510 1047 144 929 267 1047 b 711 913 650 1047 711 996 b 553 776 711 831 647 776 b 503 781 532 776 515 778 b 524 886 511 797 524 829 b 454 978 524 942 501 978 b 340 667 392 978 343 907 "},"g":{"ha":742,"x_min":0,"x_max":0,"o":"m 232 272 b 60 472 114 296 60 358 b 350 681 60 610 160 681 b 531 647 447 681 503 661 b 671 782 621 654 671 700 b 751 663 722 765 751 722 b 665 568 751 601 721 568 b 607 581 642 568 629 571 b 632 478 625 543 632 519 b 336 267 632 339 529 267 b 299 268 329 267 317 267 b 246 208 261 242 246 225 b 413 172 246 182 260 176 b 728 -32 624 167 729 126 b 310 -310 726 -201 564 -310 b 24 -157 128 -310 24 -254 b 190 -6 24 -81 78 -32 b 68 93 132 6 68 18 b 232 272 68 150 124 210 m 425 467 b 342 617 425 560 393 617 b 265 492 293 617 265 571 b 350 332 265 394 299 332 b 425 467 399 332 425 381 m 564 -114 b 383 -14 564 -44 496 -14 b 199 -128 269 -14 199 -57 b 365 -228 199 -190 261 -228 b 564 -114 486 -228 564 -186 "},"h":{"ha":888,"x_min":0,"x_max":0,"o":"m 349 1044 b 333 704 336 946 333 832 l 333 508 b 589 681 413 635 481 681 b 769 450 750 681 769 582 l 769 257 b 863 26 769 107 797 40 l 863 -4 b 660 4 801 1 739 4 b 458 -4 575 4 518 1 l 458 26 b 554 257 526 38 554 104 l 554 353 b 454 519 554 474 526 519 b 333 438 394 519 356 478 l 333 257 b 425 26 333 108 358 43 l 425 -4 b 224 4 361 1 288 4 b 29 -4 156 4 90 1 l 29 26 b 118 257 93 46 118 110 l 118 751 b 29 1007 118 900 104 983 l 29 1033 l 349 1044 "},"i":{"ha":465,"x_min":0,"x_max":0,"o":"m 357 675 b 347 410 349 588 347 511 l 347 257 b 439 26 347 107 374 42 l 439 -4 b 244 4 382 1 313 4 b 39 -4 176 4 99 1 l 39 26 b 129 257 104 43 129 108 l 129 382 b 39 638 129 513 121 614 l 39 664 l 357 675 m 236 1024 b 369 889 310 1024 369 963 b 236 756 369 815 310 756 b 103 889 163 756 103 815 b 236 1024 103 964 163 1024 "},"j":{"ha":426,"x_min":0,"x_max":0,"o":"m 350 675 b 335 271 336 542 335 425 l 335 69 b 239 -242 335 -115 317 -174 b -28 -326 176 -296 79 -326 b -219 -192 -151 -326 -219 -278 b -47 -50 -219 -108 -149 -50 b 8 -56 -15 -50 0 -53 b -15 -153 -1 -74 -15 -99 b 43 -253 -15 -217 6 -253 b 121 11 96 -253 121 -190 l 121 382 b 31 638 121 551 97 618 l 31 664 l 350 675 m 225 1024 b 360 889 300 1024 360 963 b 225 756 360 815 300 756 b 92 889 151 756 92 815 b 225 1024 92 964 151 1024 "},"k":{"ha":856,"x_min":0,"x_max":0,"o":"m 493 440 b 675 288 588 432 631 363 l 753 156 b 883 24 808 61 836 36 l 883 0 l 675 0 b 553 65 600 0 589 6 l 400 317 b 332 388 381 349 365 369 l 332 257 b 425 26 332 108 358 42 l 425 -4 b 218 4 371 1 282 4 b 31 -4 153 4 78 1 l 31 26 b 118 257 94 49 118 111 l 118 753 b 31 1008 118 874 110 985 l 31 1035 l 346 1044 b 332 711 335 954 332 824 l 332 401 l 439 486 b 507 585 481 518 507 549 b 439 639 507 621 489 633 l 439 671 b 624 663 499 665 554 663 b 801 671 696 663 747 665 l 801 646 b 568 499 715 608 642 556 l 493 440 "},"l":{"ha":451,"x_min":0,"x_max":0,"o":"m 346 1044 b 332 710 336 960 332 857 l 332 257 b 425 26 332 107 358 42 l 425 -4 b 222 4 365 1 286 4 b 29 -4 154 4 85 1 l 29 26 b 118 257 94 47 118 110 l 118 753 b 29 1008 118 885 110 986 l 29 1035 l 346 1044 "},"m":{"ha":1314,"x_min":0,"x_max":0,"o":"m 344 514 b 582 681 422 636 486 681 b 767 514 692 681 750 629 b 1014 681 832 628 911 681 b 1196 422 1185 681 1196 550 l 1196 257 b 1290 26 1196 106 1224 39 l 1290 -4 b 1089 4 1236 1 1157 4 b 890 -4 1028 4 950 1 l 890 26 b 982 257 956 42 982 107 l 982 336 b 881 521 982 410 985 521 b 767 442 831 521 794 496 l 767 257 b 864 26 767 103 794 36 l 864 -4 b 665 4 808 1 733 4 b 465 -4 600 4 524 1 l 465 26 b 558 257 532 40 558 107 l 558 353 b 463 521 558 469 529 521 b 344 442 403 521 374 488 l 344 257 b 436 26 344 108 369 43 l 436 -4 b 239 4 376 1 311 4 b 38 -4 174 4 96 1 l 38 26 b 129 257 103 42 129 107 l 129 382 b 38 638 129 504 126 613 l 38 664 l 344 675 "},"n":{"ha":901,"x_min":0,"x_max":0,"o":"m 344 507 b 601 681 421 631 494 681 b 782 472 744 681 782 600 l 782 257 b 878 26 782 106 810 39 l 878 -4 b 676 4 821 1 746 4 b 472 -4 610 4 533 1 l 472 26 b 567 257 539 39 567 106 l 567 356 b 464 519 567 429 564 519 b 344 436 417 519 375 490 l 344 257 b 436 26 344 107 371 42 l 436 -4 b 239 4 382 1 308 4 b 38 -4 172 4 99 1 l 38 26 b 129 257 103 43 129 108 l 129 381 b 38 638 129 508 122 614 l 38 664 l 344 675 "},"o":{"ha":835,"x_min":0,"x_max":0,"o":"m 786 343 b 411 -14 786 111 656 -14 b 49 331 172 -14 49 103 b 429 681 49 561 179 681 b 786 343 660 681 786 561 m 560 315 b 411 611 560 500 504 611 b 281 367 329 611 281 521 b 424 56 281 171 333 56 b 560 315 507 56 560 156 "},"p":{"ha":869,"x_min":0,"x_max":0,"o":"m 333 508 b 588 681 397 628 475 681 b 821 360 735 681 821 564 b 464 -14 821 121 692 -14 b 333 7 392 -14 360 -4 l 333 -49 b 447 -278 333 -181 344 -265 l 447 -310 b 224 -301 392 -304 322 -301 b 24 -310 133 -301 74 -304 l 24 -278 b 118 -49 90 -267 118 -200 l 118 401 b 26 632 118 550 93 615 l 26 663 l 333 675 m 333 271 b 454 60 333 124 369 60 b 606 304 547 60 606 154 b 472 526 606 444 557 526 b 333 435 414 526 365 488 "},"q":{"ha":839,"x_min":0,"x_max":0,"o":"m 761 717 b 747 363 749 599 747 482 l 747 -49 b 839 -278 747 -197 774 -264 l 839 -310 b 646 -300 790 -304 718 -300 b 414 -310 556 -300 472 -304 l 414 -278 b 533 -49 515 -269 533 -199 l 533 158 b 281 -14 471 43 388 -14 b 49 310 136 -14 49 108 b 410 681 49 549 174 681 b 639 624 542 681 594 650 l 719 732 m 533 363 b 414 610 533 518 525 610 b 261 365 321 610 261 514 b 394 144 261 226 311 144 b 533 232 456 144 503 182 "},"r":{"ha":674,"x_min":0,"x_max":0,"o":"m 347 482 b 557 681 390 617 458 681 b 674 568 629 681 674 638 b 507 403 674 483 608 417 b 525 463 515 415 525 433 b 463 532 525 504 506 532 b 375 454 429 532 399 504 b 347 257 353 406 347 365 b 453 26 347 97 378 32 l 453 -4 b 240 4 392 1 308 4 b 40 -4 174 4 108 1 l 40 26 b 129 257 104 46 129 110 l 129 378 b 40 633 129 536 114 610 l 40 660 l 347 675 "},"s":{"ha":629,"x_min":0,"x_max":0,"o":"m 526 432 b 336 617 494 546 422 617 b 264 551 290 617 264 592 b 388 442 264 506 288 485 b 581 228 517 386 581 344 b 272 -14 581 74 468 -14 b 40 29 164 -14 76 13 b 53 190 49 81 53 136 b 50 282 53 221 51 264 l 86 282 b 282 58 113 144 188 58 b 381 150 343 58 381 93 b 225 286 381 211 339 235 b 69 471 107 339 69 381 b 349 681 69 606 171 681 b 560 643 447 681 521 660 b 554 542 556 608 554 576 b 560 432 554 507 556 469 "},"":{"ha":629,"x_min":0,"x_max":0,"o":"m 560 432 b 554 542 556 469 554 507 b 560 643 554 576 556 608 b 349 681 521 660 447 681 b 69 471 171 681 69 606 b 225 286 69 381 107 339 b 381 150 339 235 381 211 b 282 58 381 93 343 58 b 86 282 188 58 113 144 l 50 282 b 53 190 51 264 53 221 b 40 29 53 136 49 81 b 272 -14 76 13 164 -14 b 581 228 468 -14 581 74 b 388 442 581 344 517 386 b 264 551 288 485 264 506 b 336 617 264 592 290 617 b 526 432 422 617 494 546 "},"t":{"ha":526,"x_min":0,"x_max":0,"o":"m 528 646 l 486 586 b 328 592 433 590 381 592 b 325 365 325 517 325 440 b 465 67 325 175 329 67 b 525 78 489 67 510 72 l 538 28 b 301 -14 494 11 411 -14 b 111 269 122 -14 111 67 b 113 365 111 306 113 331 l 114 592 b 24 588 83 592 54 590 l 11 635 b 288 926 147 689 232 776 l 342 926 b 328 667 333 847 329 753 l 515 667 "},"u":{"ha":886,"x_min":0,"x_max":0,"o":"m 775 675 b 767 421 769 597 767 521 l 767 257 b 856 26 767 110 792 47 l 856 -4 b 740 1 835 -1 782 1 b 578 -12 678 1 625 -4 b 553 154 564 32 553 99 b 301 -14 485 40 403 -14 b 114 239 143 -14 114 106 l 114 378 b 26 633 114 546 90 613 l 26 660 l 338 675 b 328 424 331 600 328 524 l 328 311 b 433 143 328 213 360 143 b 553 232 488 143 531 175 l 553 378 b 463 633 553 544 529 613 l 463 660 l 775 675 "},"v":{"ha":788,"x_min":0,"x_max":0,"o":"m 539 390 b 588 556 574 472 588 517 b 479 642 588 606 557 629 l 479 671 b 654 663 531 665 594 663 b 815 671 711 663 768 665 l 815 644 b 629 383 754 628 675 488 l 538 176 b 467 -4 511 118 486 51 l 314 -4 l 119 444 b -18 644 69 560 25 629 l -18 671 b 186 663 35 667 114 663 b 393 671 257 663 335 665 l 393 642 b 318 582 344 636 318 615 b 368 425 318 546 333 504 l 463 210 "},"w":{"ha":1163,"x_min":0,"x_max":0,"o":"m 518 211 b 439 -4 490 143 457 51 l 292 -4 l 132 425 b -10 642 81 563 44 629 l -10 671 b 185 663 44 665 104 663 b 389 671 267 663 326 665 l 389 642 b 324 571 346 633 324 610 b 363 433 324 543 333 511 l 439 233 l 540 479 b 439 642 506 578 488 614 l 439 671 b 629 663 489 665 554 663 b 815 671 706 663 756 665 l 815 642 b 749 568 767 636 749 615 b 779 454 749 542 760 506 l 861 233 l 939 432 b 965 544 953 469 965 515 b 867 642 965 603 940 628 l 867 671 b 1028 663 915 665 968 663 b 1181 671 1078 663 1139 665 l 1181 642 b 1019 403 1104 590 1053 485 l 967 274 b 868 -4 931 183 897 89 l 721 -4 l 581 368 "},"":{"ha":1163,"x_min":0,"x_max":0,"o":"m 581 368 l 721 -4 l 868 -4 b 967 274 897 89 931 183 l 1019 403 b 1181 642 1053 485 1104 590 l 1181 671 b 1028 663 1139 665 1078 663 b 867 671 968 663 915 665 l 867 642 b 965 544 940 628 965 603 b 939 432 965 515 953 469 l 861 233 l 779 454 b 749 568 760 506 749 542 b 815 642 749 615 767 636 l 815 671 b 629 663 756 665 706 663 b 439 671 554 663 489 665 l 439 642 b 540 479 488 614 506 578 l 439 233 l 363 433 b 324 571 333 511 324 543 b 389 642 324 610 346 633 l 389 671 b 185 663 326 665 267 663 b -10 671 104 663 44 665 l -10 642 b 132 425 44 629 81 563 l 292 -4 l 439 -4 b 518 211 457 51 490 143 "},"x":{"ha":878,"x_min":0,"x_max":0,"o":"m 690 203 b 881 25 740 139 808 64 l 881 -4 b 660 4 811 1 735 4 b 432 -4 578 4 511 1 l 432 25 b 490 67 464 29 490 35 b 432 169 490 90 476 113 l 368 253 l 293 172 b 240 81 256 131 240 103 b 313 25 240 50 268 29 l 313 -4 b 150 4 265 1 217 4 b -28 -4 88 4 24 1 l -28 25 b 208 200 56 58 149 133 l 313 317 l 169 496 b 22 644 119 560 68 610 l 22 671 b 244 663 82 665 165 663 b 458 671 326 663 401 665 l 458 642 b 394 596 414 642 394 628 b 442 508 394 575 407 549 l 504 435 l 560 496 b 603 583 588 526 603 558 b 529 642 603 622 583 636 l 529 671 b 689 663 583 665 626 663 b 854 671 751 663 794 665 l 854 644 b 629 446 771 589 696 519 l 560 369 "},"y":{"ha":792,"x_min":0,"x_max":0,"o":"m 561 429 b 592 546 582 478 592 514 b 482 638 592 603 561 629 l 482 671 b 658 663 528 665 597 663 b 819 671 715 663 776 665 l 819 638 b 619 357 744 619 686 506 l 554 210 b 339 -254 499 83 418 -150 b 199 -318 308 -296 257 -318 b 47 -182 103 -318 47 -268 b 115 -49 47 -111 85 -68 b 231 -143 138 -103 167 -143 b 313 -112 263 -143 292 -131 b 347 -44 333 -94 347 -69 b 308 60 347 -24 340 -6 l 125 438 b -18 638 49 596 35 624 l -18 671 b 182 663 38 665 103 663 b 389 671 260 663 322 665 l 389 638 b 318 589 340 638 318 621 b 344 497 318 561 325 536 l 478 232 "},"":{"ha":792,"x_min":0,"x_max":0,"o":"m 478 232 l 344 497 b 318 589 325 536 318 561 b 389 638 318 621 340 638 l 389 671 b 182 663 322 665 260 663 b -18 671 103 663 38 665 l -18 638 b 125 438 35 624 49 596 l 308 60 b 347 -44 340 -6 347 -24 b 313 -112 347 -69 333 -94 b 231 -143 292 -131 263 -143 b 115 -49 167 -143 138 -103 b 47 -182 85 -68 47 -111 b 199 -318 47 -268 103 -318 b 339 -254 257 -318 308 -296 b 554 210 418 -150 499 83 l 619 357 b 819 638 686 506 744 619 l 819 671 b 658 663 776 665 715 663 b 482 671 597 663 528 665 l 482 638 b 592 546 561 629 592 603 b 561 429 592 514 582 478 "},"z":{"ha":700,"x_min":0,"x_max":0,"o":"m 657 629 b 269 171 557 432 436 313 b 474 160 340 169 438 160 b 643 304 576 160 599 188 l 681 304 b 526 -14 646 36 604 -14 b 151 22 458 -14 278 22 b 74 -14 126 0 97 -14 b 33 22 49 -14 33 0 b 161 171 33 68 79 171 b 406 542 254 288 335 411 b 342 547 392 546 375 547 b 72 372 193 547 110 493 l 32 372 b 196 667 67 632 99 667 l 635 667 "},"{":{"ha":494,"x_min":0,"x_max":0,"o":"m 10 372 b 103 538 75 399 103 447 b 86 856 103 643 86 772 b 350 1038 86 983 164 1038 b 483 1025 404 1038 456 1032 l 483 969 b 308 822 356 969 308 931 b 325 588 308 743 325 658 b 142 349 325 458 271 388 b 325 93 271 296 325 257 b 308 -131 325 7 308 -43 b 483 -276 308 -249 378 -276 l 483 -331 b 354 -342 458 -336 426 -342 b 86 -167 168 -342 86 -289 b 101 154 86 -92 101 65 b 10 324 101 233 85 290 "},"|":{"ha":694,"x_min":0,"x_max":0,"o":"m 429 1019 l 429 -325 l 267 -325 l 267 1019 "},"}":{"ha":494,"x_min":0,"x_max":0,"o":"m 485 324 b 393 154 410 290 393 233 b 408 -167 393 65 408 -92 b 140 -342 408 -289 326 -342 b 11 -331 68 -342 36 -336 l 11 -276 b 186 -131 117 -276 186 -249 b 169 93 186 -43 169 7 b 353 349 169 257 224 296 b 169 588 224 388 169 458 b 186 822 169 658 186 743 b 11 969 186 931 139 969 l 11 1025 b 144 1038 39 1032 90 1038 b 408 856 331 1038 408 983 b 392 538 408 772 392 643 b 485 372 392 447 419 399 "},"~":{"ha":875,"x_min":0,"x_max":0,"o":"m 821 808 b 572 592 731 661 664 592 b 411 621 526 592 476 600 b 253 653 351 640 297 653 b 90 586 158 653 121 617 l 54 614 b 307 832 139 760 217 832 b 467 797 349 832 392 821 b 615 772 528 778 576 772 b 788 832 693 772 756 794 "},"¡":{"ha":463,"x_min":0,"x_max":0,"o":"m 74 -264 b 163 289 122 -99 154 106 b 268 350 197 308 235 328 l 318 319 b 347 -240 318 133 322 -56 b 114 -299 272 -251 185 -269 m 233 657 b 361 529 304 657 361 600 b 233 403 361 460 304 403 b 107 529 164 403 107 460 b 233 657 107 600 164 657 "},"¢":{"ha":875,"x_min":0,"x_max":0,"o":"m 496 897 l 496 807 b 535 808 513 808 526 808 b 742 681 671 808 742 765 b 585 533 742 594 676 533 b 551 535 575 533 564 533 b 565 628 561 565 565 593 b 496 747 565 700 539 744 l 496 244 b 736 342 539 240 642 246 l 774 310 b 496 117 731 244 631 132 l 496 10 l 422 10 l 422 114 b 121 415 238 125 121 207 b 422 797 121 624 228 760 l 422 897 m 422 740 b 342 489 382 722 342 671 b 422 264 342 336 390 282 l 422 740 "},"£":{"ha":875,"x_min":0,"x_max":0,"o":"m 733 453 l 451 453 b 251 213 418 324 371 267 b 671 182 394 210 590 182 b 793 314 742 182 775 219 l 838 314 b 676 -14 813 100 774 -14 b 57 39 578 -14 344 36 b -43 -4 13 8 -17 -4 b -79 32 -67 -4 -79 8 b 89 221 -79 93 10 221 b 215 453 149 282 199 382 l 42 453 l 42 535 l 231 535 b 619 940 278 803 329 940 b 849 799 771 940 849 892 b 675 643 849 704 781 643 b 610 653 642 643 629 647 b 635 778 619 679 635 719 b 586 867 635 835 618 867 b 465 535 538 867 508 790 l 733 535 "},"⁄":{"ha":214,"x_min":0,"x_max":0,"o":"m 318 904 l 3 -14 l -103 22 l 213 940 "},"¥":{"ha":875,"x_min":0,"x_max":0,"o":"m 607 711 b 650 829 638 768 650 801 b 581 892 650 868 626 890 l 581 931 b 731 922 626 925 678 922 b 867 931 783 922 826 925 l 867 892 b 715 718 801 865 749 779 l 643 583 l 836 583 l 836 501 l 597 501 l 564 438 l 564 372 l 836 372 l 836 290 l 564 290 l 564 263 b 681 35 564 172 574 58 l 681 -4 b 453 4 619 1 539 4 b 217 -4 371 4 285 1 l 217 35 b 336 261 301 47 336 114 l 336 290 l 67 290 l 67 372 l 336 372 l 274 501 l 67 501 l 67 583 l 235 583 l 192 669 b 8 892 125 803 79 861 l 8 931 b 213 922 67 925 132 922 b 428 931 296 922 379 925 l 428 892 b 372 840 393 892 372 872 b 410 728 372 800 393 764 l 506 522 "},"ƒ":{"ha":875,"x_min":0,"x_max":0,"o":"m 733 457 l 503 457 b 343 -190 444 58 410 -89 b 65 -304 293 -268 204 -304 b -192 -144 -106 -304 -192 -251 b -12 8 -192 -50 -124 8 b 76 -4 32 8 57 3 b 38 -143 58 -36 38 -82 b 86 -228 38 -199 54 -228 b 267 457 154 -228 182 -126 l 89 457 l 89 538 l 281 538 b 664 940 317 781 365 940 b 893 797 817 940 893 893 b 722 642 893 704 824 642 b 654 654 690 642 672 646 b 679 772 668 685 679 719 b 628 867 679 832 661 867 b 514 538 574 867 544 757 l 733 538 "},"§":{"ha":875,"x_min":0,"x_max":0,"o":"m 643 140 b 757 -43 724 97 757 43 b 406 -307 757 -211 631 -307 b 97 -131 208 -307 97 -243 b 247 4 97 -51 158 4 b 338 -15 294 4 321 -7 b 317 -121 325 -44 317 -79 b 418 -237 317 -196 353 -237 b 525 -122 482 -237 525 -192 b 336 46 525 -40 469 -6 b 68 294 178 107 68 151 b 222 513 68 392 115 458 b 128 676 160 547 128 594 b 501 940 128 839 271 940 b 776 776 679 940 776 883 b 629 649 776 694 724 649 b 535 665 585 649 557 656 b 551 756 543 685 551 715 b 447 874 551 829 511 874 b 343 768 385 874 343 831 b 550 607 343 689 400 664 b 807 364 685 556 807 514 b 643 140 807 251 754 179 m 285 479 b 250 397 261 456 250 431 b 449 233 250 315 310 290 b 569 182 503 211 543 193 b 614 271 600 206 614 233 b 404 429 614 332 579 357 b 285 479 347 453 306 469 "},"¤":{"ha":875,"x_min":0,"x_max":0,"o":"m 83 749 l 158 824 l 257 725 b 436 788 310 767 368 788 b 614 725 504 788 558 768 l 717 826 l 792 751 l 689 650 b 750 471 732 593 750 540 b 689 293 750 401 732 349 l 792 190 l 717 115 l 614 217 b 436 154 558 174 504 154 b 257 218 369 154 310 175 l 158 118 l 83 194 l 182 292 b 121 468 138 347 121 397 b 182 650 121 540 133 576 m 264 471 b 436 292 264 372 343 292 b 607 471 531 292 607 371 b 436 651 607 571 531 651 b 264 471 343 651 264 569 "},"'":{"ha":343,"x_min":0,"x_max":0,"o":"m 274 924 b 233 594 247 821 238 715 l 122 575 l 100 588 b 69 926 100 711 93 835 b 247 944 131 926 203 935 "},"“":{"ha":814,"x_min":0,"x_max":0,"o":"m 392 750 b 190 690 319 711 249 690 b 83 806 118 690 83 728 b 304 1113 83 925 165 1039 l 335 1071 b 271 897 292 1019 271 961 b 379 778 271 824 301 778 m 754 750 b 551 690 682 711 610 690 b 446 806 481 690 446 728 b 667 1113 446 925 526 1038 l 696 1071 b 633 899 654 1019 633 963 b 740 778 633 826 663 778 "},"«":{"ha":697,"x_min":0,"x_max":0,"o":"m 260 7 b 214 85 257 36 233 64 l 38 276 b 326 629 99 417 215 558 l 326 424 b 169 363 253 414 208 396 l 303 218 b 339 151 332 188 339 172 b 279 7 339 122 297 35 m 563 7 b 517 85 560 36 536 64 l 340 276 b 629 629 401 417 518 558 l 629 424 b 472 363 556 414 511 396 l 606 218 b 642 150 636 186 642 172 b 582 7 642 121 615 60 "},"‹":{"ha":394,"x_min":0,"x_max":0,"o":"m 260 7 b 214 85 257 36 233 64 l 38 276 b 326 629 99 417 215 558 l 326 424 b 169 363 253 414 208 396 l 303 218 b 339 150 332 186 339 172 b 279 7 339 121 313 60 "},"›":{"ha":394,"x_min":0,"x_max":0,"o":"m 133 629 b 181 553 136 600 163 574 l 357 360 b 68 7 296 221 179 78 l 68 213 b 225 274 142 224 186 240 l 92 418 b 56 486 63 450 56 464 b 114 629 56 515 81 576 "},"–":{"ha":875,"x_min":0,"x_max":0,"o":"m 764 268 l 111 268 l 111 425 l 764 425 "},"†":{"ha":875,"x_min":0,"x_max":0,"o":"m 556 938 b 517 621 532 836 519 713 b 811 665 617 626 714 643 l 831 649 b 781 450 806 585 792 513 b 517 490 693 474 607 486 b 515 397 515 456 515 411 b 556 -151 515 218 532 -4 b 365 -303 483 -196 428 -239 l 336 -303 l 336 -42 b 261 326 336 124 313 236 l 336 372 l 336 490 b 65 450 246 486 143 472 l 44 467 b 85 665 68 524 81 590 b 336 621 157 643 250 626 b 328 851 336 697 332 803 l 526 957 "},"‡":{"ha":875,"x_min":0,"x_max":0,"o":"m 558 940 b 510 621 531 836 513 728 b 811 665 618 624 704 636 l 831 646 b 779 450 804 583 797 515 b 510 490 686 474 585 489 b 589 286 513 408 543 353 l 510 242 l 510 156 b 811 199 611 157 714 169 l 831 179 b 789 -19 804 119 799 46 b 510 25 699 10 604 25 b 519 -200 510 -50 511 -125 l 315 -308 l 293 -286 b 338 18 322 -176 335 -96 b 65 -26 246 14 153 3 l 44 -7 b 94 199 78 63 83 122 b 338 156 181 169 256 157 b 263 356 335 228 304 297 l 338 400 l 338 490 b 65 450 249 488 153 474 l 44 474 b 85 665 65 535 75 601 b 338 621 168 639 250 624 b 328 853 338 699 338 775 l 532 957 "},"·":{"ha":451,"x_min":0,"x_max":0,"o":"m 226 622 b 375 472 308 622 375 554 b 226 322 375 389 308 322 b 76 472 143 322 76 389 b 226 622 76 554 143 622 "},"¶":{"ha":875,"x_min":0,"x_max":0,"o":"m 715 1026 l 715 926 l 842 926 l 854 910 l 817 847 b 715 857 772 856 757 857 l 715 260 b 842 268 757 260 794 261 l 854 247 l 817 185 l 715 185 l 715 63 b 347 -326 715 -186 633 -326 b 147 -186 218 -326 147 -278 b 329 -46 147 -99 217 -46 b 392 -54 363 -46 381 -50 b 365 -151 379 -75 365 -106 b 446 -242 365 -207 396 -242 b 615 47 536 -242 615 -178 l 615 185 l 540 185 b 51 543 188 185 51 285 b 507 926 51 847 236 926 l 615 926 l 615 986 m 615 857 b 460 628 503 856 460 792 l 460 519 b 615 260 460 322 496 260 l 615 857 "},"•":{"ha":926,"x_min":0,"x_max":0,"o":"m 464 667 b 654 472 568 667 654 579 b 464 278 654 365 568 278 b 272 472 358 278 272 365 b 464 667 272 579 358 667 "},"‚":{"ha":451,"x_min":0,"x_max":0,"o":"m 60 208 b 263 268 133 247 204 268 b 368 153 333 268 368 231 b 147 -154 368 33 288 -81 l 117 -112 b 181 61 160 -60 181 -3 b 74 181 181 135 151 181 "},"„":{"ha":814,"x_min":0,"x_max":0,"o":"m 60 208 b 263 268 132 247 204 268 b 368 153 333 268 368 231 b 147 -154 368 33 286 -81 l 117 -112 b 181 61 160 -60 181 -3 b 74 181 181 135 151 181 m 422 208 b 624 268 494 247 565 268 b 731 153 696 268 731 231 b 510 -154 731 33 649 -81 l 479 -112 b 543 61 522 -60 543 -3 b 435 181 543 135 513 181 "},"”":{"ha":814,"x_min":0,"x_max":0,"o":"m 60 1022 b 263 1082 132 1061 204 1082 b 368 965 333 1082 368 1044 b 147 660 368 846 288 733 l 117 701 b 181 874 160 754 181 810 b 74 994 181 946 151 994 m 422 1022 b 624 1082 494 1061 567 1082 b 731 967 696 1082 731 1044 b 510 660 731 846 650 733 l 479 701 b 543 874 522 754 543 810 b 435 994 543 947 513 994 "},"»":{"ha":697,"x_min":0,"x_max":0,"o":"m 133 629 b 181 553 136 600 163 574 l 357 360 b 68 7 296 221 179 78 l 68 213 b 225 274 142 224 186 240 l 92 418 b 56 485 63 450 56 464 b 114 629 56 519 94 597 m 436 629 b 483 553 439 600 464 574 l 660 360 b 371 7 599 221 482 78 l 371 213 b 528 274 444 224 489 240 l 394 418 b 358 486 364 450 358 464 b 418 629 358 515 383 576 "},"…":{"ha":1353,"x_min":0,"x_max":0,"o":"m 225 269 b 368 126 304 269 368 206 b 225 -15 368 49 304 -15 b 83 126 147 -15 83 49 b 225 269 83 206 147 269 m 676 269 b 819 126 756 269 819 206 b 676 -15 819 49 756 -15 b 535 126 599 -15 535 49 b 676 269 535 206 599 269 m 1128 269 b 1269 126 1207 269 1269 206 b 1128 -15 1269 49 1207 -15 b 986 126 1049 -15 986 49 b 1128 269 986 206 1049 269 "},"‰":{"ha":1822,"x_min":0,"x_max":0,"o":"m 418 11 b 242 -49 326 -3 311 -11 l 231 -29 l 757 778 b 674 772 732 775 706 772 b 515 796 638 772 561 776 b 529 697 525 769 529 733 b 283 432 529 522 454 432 b 46 678 126 432 46 515 b 279 940 46 838 138 940 b 310 919 300 940 310 933 b 290 897 310 910 307 906 b 221 711 243 874 221 815 b 299 489 221 576 251 489 b 372 671 343 489 372 561 b 346 826 372 729 363 782 b 314 853 324 829 314 838 b 429 922 314 888 401 922 b 490 868 447 922 464 907 b 689 838 556 844 624 838 b 799 843 729 838 763 839 b 960 940 864 911 904 940 b 1035 861 1003 940 1035 906 b 925 799 1035 835 996 811 l 418 11 m 1231 243 b 974 -14 1231 69 1149 -14 b 735 239 815 -14 735 71 b 993 497 735 408 824 497 b 1231 243 1151 497 1231 411 m 1060 213 b 979 436 1060 346 1026 436 b 910 260 935 436 910 372 b 989 43 910 131 942 43 b 1060 213 1056 43 1060 172 m 1793 243 b 1538 -14 1793 71 1711 -14 b 1297 239 1378 -14 1297 71 b 1556 497 1297 408 1386 497 b 1793 243 1714 497 1793 411 m 1622 213 b 1542 436 1622 346 1590 436 b 1472 260 1497 436 1472 372 b 1551 43 1472 131 1504 43 b 1622 213 1618 43 1622 172 "},"¿":{"ha":736,"x_min":0,"x_max":0,"o":"m 251 285 b 472 358 328 332 410 358 b 556 275 526 358 556 329 b 403 89 556 197 454 131 b 294 -86 346 43 294 -7 b 385 -225 294 -165 333 -225 b 461 -108 431 -225 461 -179 b 429 4 461 -67 451 -35 b 542 32 467 24 500 32 b 681 -107 629 32 681 -19 b 332 -300 681 -225 544 -300 b 46 -106 149 -300 46 -231 b 168 69 46 -29 72 8 b 342 229 210 96 342 161 b 301 269 342 253 326 269 b 261 258 289 269 279 267 m 381 403 b 254 529 311 403 254 460 b 381 657 254 600 311 657 b 508 529 451 657 508 600 b 381 403 508 460 451 403 "},"`":{"ha":694,"x_min":0,"x_max":0,"o":"m 386 722 b 163 894 317 801 225 865 b 343 1031 190 951 264 1010 b 449 751 381 981 431 856 "},"´":{"ha":694,"x_min":0,"x_max":0,"o":"m 204 778 b 415 1051 286 860 357 951 b 564 903 472 1024 531 965 b 240 722 479 828 346 761 "},"ˆ":{"ha":694,"x_min":0,"x_max":0,"o":"m 551 844 b 647 790 597 793 607 789 l 653 767 l 508 726 b 482 722 497 724 490 722 b 403 767 451 722 428 738 l 301 881 b 215 726 261 838 235 782 l 42 726 b 389 1028 118 858 279 976 "},"˜":{"ha":694,"x_min":0,"x_max":0,"o":"m 639 939 b 493 765 606 815 563 765 b 317 800 449 765 393 779 b 160 832 231 824 186 832 b 94 779 125 832 111 819 l 56 793 b 199 967 97 913 142 967 b 386 931 246 967 296 954 b 540 899 478 907 518 899 b 599 953 569 899 586 915 "},"¯":{"ha":694,"x_min":0,"x_max":0,"o":"m 611 950 l 622 919 l 581 811 l 100 811 l 89 832 l 140 950 "},"˘":{"ha":694,"x_min":0,"x_max":0,"o":"m 576 982 b 578 949 576 967 578 956 b 329 732 578 811 486 732 b 117 950 185 732 131 807 b 285 1006 139 978 208 1006 b 397 806 294 871 331 806 b 463 896 439 806 463 838 b 450 982 463 924 460 943 "},"˙":{"ha":694,"x_min":0,"x_max":0,"o":"m 347 988 b 471 864 415 988 471 932 b 347 740 471 796 415 740 b 224 864 279 740 224 796 b 347 988 224 932 279 988 "},"¨":{"ha":694,"x_min":0,"x_max":0,"o":"m 183 988 b 307 864 251 988 307 932 b 183 740 307 796 251 740 b 60 864 115 740 60 796 b 183 988 60 932 115 988 m 511 988 b 635 864 579 988 635 932 b 511 740 635 796 579 740 b 388 864 443 740 388 796 b 511 988 388 932 443 988 "},"˚":{"ha":694,"x_min":0,"x_max":0,"o":"m 347 1064 b 517 897 443 1064 517 989 b 347 732 517 806 443 732 b 178 897 251 732 178 806 b 347 1064 178 989 251 1064 m 347 979 b 271 897 303 979 271 942 b 347 817 271 853 303 817 b 424 897 392 817 424 853 b 347 979 424 942 392 979 "},"¸":{"ha":694,"x_min":0,"x_max":0,"o":"m 275 -110 b 404 -49 324 -71 372 -49 b 492 -171 450 -49 492 -107 b 289 -314 492 -253 404 -314 b 222 -308 267 -314 254 -312 l 246 -219 b 308 -235 274 -231 289 -235 b 357 -197 339 -235 357 -221 b 307 -125 357 -174 332 -125 b 289 -132 301 -125 297 -126 "},"˝":{"ha":694,"x_min":0,"x_max":0,"o":"m 143 765 b 239 1035 182 850 214 943 b 394 939 296 1022 357 993 b 189 728 336 851 276 788 m 393 765 b 489 1035 435 850 465 943 b 644 939 546 1022 607 993 b 439 728 586 851 526 788 "},"˛":{"ha":694,"x_min":0,"x_max":0,"o":"m 463 11 b 349 -147 379 -22 349 -86 b 408 -222 349 -187 365 -222 b 499 -181 446 -222 482 -200 l 528 -212 b 292 -346 486 -278 396 -346 b 163 -222 225 -346 163 -312 b 403 35 163 -101 296 1 "},"ˇ":{"ha":694,"x_min":0,"x_max":0,"o":"m 143 904 b 47 960 99 954 89 960 l 42 982 l 182 1022 b 215 1028 192 1025 206 1028 b 292 983 247 1028 271 1007 l 393 869 b 479 1024 435 914 460 967 l 653 1024 b 306 722 575 889 424 778 "},"—":{"ha":1233,"x_min":0,"x_max":0,"o":"m 1150 268 l 83 268 l 83 425 l 1150 425 "},"Æ":{"ha":1363,"x_min":0,"x_max":0,"o":"m 883 535 l 913 535 b 1083 643 999 535 1063 550 l 1149 643 b 1136 496 1139 594 1136 560 b 1149 335 1136 432 1140 379 l 1083 335 b 922 451 1050 424 1013 451 l 883 451 l 883 290 b 1004 72 883 118 910 72 b 1283 308 1139 72 1226 201 l 1349 272 b 1242 -14 1307 188 1268 81 b 944 0 1143 -4 1043 0 l 757 0 b 519 -4 678 0 599 0 l 519 33 b 642 301 613 46 642 113 l 642 451 l 429 451 l 299 244 b 236 108 275 208 236 153 b 325 32 236 64 264 40 l 325 -4 b 146 4 265 1 208 4 b -28 -4 88 4 29 1 l -28 28 b 199 281 75 85 138 185 l 501 757 b 550 858 528 799 550 836 b 494 889 550 881 536 889 l 494 931 b 672 926 551 928 600 926 l 936 926 b 1219 935 1031 926 1125 928 b 1257 661 1219 840 1233 751 l 1196 643 b 919 850 1124 806 1064 850 l 883 850 m 642 794 l 479 535 l 642 535 "},"ª":{"ha":476,"x_min":0,"x_max":0,"o":"m 478 628 b 349 515 457 551 415 515 b 258 582 297 515 272 535 b 138 515 222 532 193 515 b 28 617 68 515 28 553 b 256 758 28 704 96 746 l 256 772 b 213 889 256 806 264 889 b 174 840 188 889 174 871 b 190 793 174 817 182 803 b 121 775 176 785 150 775 b 42 836 72 775 42 799 b 254 940 42 897 129 940 b 403 818 356 940 403 903 b 400 699 403 779 400 738 b 418 606 400 628 404 606 b 443 642 428 606 433 614 m 256 713 b 175 640 200 704 175 681 b 200 603 175 615 183 603 b 256 649 222 603 240 618 l 256 713 "},"Ł":{"ha":878,"x_min":0,"x_max":0,"o":"m 157 361 b 57 294 106 332 89 321 l 40 300 l 40 386 l 157 454 l 157 624 b 39 893 157 811 129 876 l 39 931 b 285 922 113 925 206 922 b 522 931 356 922 442 925 l 522 893 b 404 624 432 876 404 813 l 404 576 l 575 675 l 593 665 l 593 579 b 404 481 533 549 461 517 l 404 274 b 526 69 404 150 413 69 b 824 308 639 69 731 142 l 888 274 b 783 -12 844 181 811 86 b 479 0 679 -4 586 0 l 211 0 b 39 -4 154 0 93 -1 l 39 33 b 157 301 129 49 157 114 l 157 361 "},"Ø":{"ha":1142,"x_min":0,"x_max":0,"o":"m 1024 932 l 950 839 b 1082 469 1044 751 1082 646 b 558 -14 1082 144 911 -14 b 282 32 446 -14 364 -1 l 190 -83 l 125 -28 l 213 78 b 60 460 106 164 60 278 b 596 940 60 778 240 940 b 881 886 707 940 788 925 l 961 985 m 756 764 b 579 863 711 835 660 863 b 328 485 415 863 328 732 b 361 238 328 399 339 321 l 756 764 m 399 153 b 572 63 443 90 494 63 b 818 461 733 63 818 200 b 794 674 818 536 813 600 l 399 153 "},"Œ":{"ha":1400,"x_min":0,"x_max":0,"o":"m 922 539 l 956 539 b 1119 643 1051 539 1094 567 l 1183 643 b 1172 494 1174 586 1172 564 b 1183 335 1172 421 1174 397 l 1119 335 b 960 446 1092 418 1044 446 l 922 446 l 922 261 b 1036 72 922 122 953 72 b 1319 308 1172 72 1261 200 l 1386 274 b 1279 -12 1335 172 1301 85 b 969 0 1208 -6 1079 0 l 708 0 b 549 -14 640 -12 613 -14 b 60 467 225 -14 60 149 b 571 940 60 785 228 940 b 747 926 642 940 672 938 l 947 926 b 1256 935 1172 926 1196 929 b 1293 663 1258 840 1271 754 l 1231 643 b 956 850 1169 794 1093 850 l 922 850 m 676 756 b 572 863 676 833 647 863 b 336 461 421 863 336 719 b 565 64 336 203 415 64 b 676 196 649 64 676 97 l 676 756 "},"º":{"ha":526,"x_min":0,"x_max":0,"o":"m 492 733 b 258 515 492 592 410 515 b 33 726 111 515 33 588 b 269 940 33 867 114 940 b 492 733 413 940 492 867 m 339 717 b 258 882 339 819 308 882 b 189 747 215 882 189 832 b 265 572 189 639 218 572 b 339 717 310 572 339 629 "},"æ":{"ha":1043,"x_min":0,"x_max":0,"o":"m 1011 181 b 683 -14 919 51 810 -14 b 444 140 569 -14 496 33 b 208 -14 374 31 306 -14 b 42 146 101 -14 42 44 b 406 374 42 286 176 371 l 406 407 b 329 619 406 464 417 619 b 256 529 283 619 256 586 b 286 432 256 476 276 446 b 188 404 263 417 236 404 b 63 513 113 404 63 449 b 388 681 63 611 197 681 b 544 599 481 681 521 660 b 731 682 590 658 644 682 b 989 450 890 682 989 593 b 975 374 989 418 986 400 l 588 374 b 588 369 588 372 588 371 b 788 110 593 206 665 110 b 975 211 856 110 915 143 m 404 321 b 260 179 314 313 260 258 b 314 110 260 135 279 110 b 424 181 351 110 383 131 b 404 317 411 225 407 250 b 404 321 404 318 404 319 m 764 449 b 767 493 765 456 767 472 b 689 621 767 575 739 621 b 588 440 626 621 593 560 l 764 449 "},"ı":{"ha":465,"x_min":0,"x_max":0,"o":"m 357 675 b 347 410 349 588 347 511 l 347 257 b 439 26 347 107 374 42 l 439 -4 b 244 4 382 1 313 4 b 39 -4 176 4 99 1 l 39 26 b 129 257 104 43 129 108 l 129 382 b 39 638 129 513 121 614 l 39 664 l 357 675 "},"ł":{"ha":451,"x_min":0,"x_max":0,"o":"m 118 556 b 39 501 81 533 69 526 l 21 508 l 21 588 l 118 644 l 118 753 b 29 1008 118 888 111 983 l 29 1035 l 346 1044 b 332 749 338 968 332 867 l 407 792 l 426 782 l 426 701 b 332 658 389 688 372 681 l 332 257 b 425 26 332 107 358 42 l 425 -4 b 222 4 371 1 290 4 b 29 -4 164 4 86 1 l 29 26 b 118 257 94 47 118 110 l 118 556 "},"ø":{"ha":833,"x_min":0,"x_max":0,"o":"m 736 686 l 678 610 b 785 339 756 539 785 467 b 414 -14 785 113 651 -14 b 217 21 333 -14 279 -4 l 136 -81 l 79 -33 l 154 63 b 49 333 79 129 49 208 b 425 681 49 563 176 681 b 613 647 500 681 553 671 l 678 735 m 521 544 b 408 615 489 596 457 615 b 264 358 314 615 264 525 b 283 214 264 300 268 268 l 521 544 m 313 129 b 422 51 343 72 372 51 b 572 321 518 51 572 149 b 551 463 572 369 567 417 l 313 129 "},"œ":{"ha":1192,"x_min":0,"x_max":0,"o":"m 1161 183 b 838 -15 1071 49 968 -15 b 636 86 743 -15 689 13 b 390 -14 565 11 501 -14 b 49 328 171 -14 49 108 b 408 681 49 557 176 681 b 647 592 521 681 593 654 b 868 682 707 657 768 682 b 1139 461 1039 682 1139 600 b 1128 376 1139 432 1136 411 l 739 376 b 739 368 739 374 739 371 b 938 113 743 210 817 113 b 1128 211 1007 113 1069 146 m 540 317 b 404 611 540 488 483 611 b 279 367 325 611 279 521 b 417 56 279 179 333 56 b 540 317 490 56 540 161 m 917 451 b 919 496 919 474 919 482 b 840 621 919 574 889 621 b 740 442 778 621 742 556 l 917 451 "},"ß":{"ha":918,"x_min":0,"x_max":0,"o":"m 129 667 b 560 1044 136 907 293 1044 b 804 868 719 1044 804 983 b 685 668 804 794 768 736 b 588 554 599 597 588 588 b 718 444 588 514 608 503 b 886 233 838 381 886 332 b 581 -15 886 79 771 -15 b 419 13 517 -15 469 -7 b 428 132 424 43 428 85 b 424 239 428 172 425 217 l 465 239 b 606 53 476 124 535 53 b 689 146 660 53 689 86 b 567 289 689 215 647 244 b 421 450 485 333 421 368 b 493 590 421 506 442 535 b 600 814 558 660 600 713 b 494 969 600 908 558 969 b 343 686 376 969 343 818 l 343 257 l 343 26 l 343 -4 b 194 4 307 1 251 4 b 35 -4 138 4 82 1 l 35 26 b 129 257 103 39 129 106 l 129 590 b 35 582 88 589 58 586 l 22 600 l 56 667 l 129 667 "},"¬":{"ha":875,"x_min":0,"x_max":0,"o":"m 761 539 l 761 219 l 622 219 l 622 407 l 113 407 l 113 539 "},"µ":{"ha":875,"x_min":0,"x_max":0,"o":"m 18 653 l 331 667 b 321 415 324 592 321 501 l 321 314 b 425 143 321 246 339 143 b 544 232 479 143 522 175 l 544 371 b 454 626 544 485 538 606 l 454 653 l 767 669 b 760 397 763 604 760 510 l 760 257 b 847 26 760 110 783 47 l 847 -4 b 726 1 810 0 774 1 b 569 -12 669 1 624 -3 b 544 154 556 25 544 88 b 307 -12 494 72 411 -12 b 238 0 283 -12 256 -8 b 244 -240 238 -81 239 -169 b 74 -299 190 -253 128 -272 l 35 -264 b 106 239 71 -111 106 74 l 106 371 b 18 626 106 539 83 606 "},"μ":{"ha":875,"x_min":0,"x_max":0,"o":"m 18 626 b 106 371 83 606 106 539 l 106 239 b 35 -264 106 74 71 -111 l 74 -299 b 244 -240 128 -272 190 -253 b 238 0 239 -169 238 -81 b 307 -12 256 -8 283 -12 b 544 154 411 -12 494 72 b 569 -12 544 88 556 25 b 726 1 624 -3 669 1 b 847 -4 774 1 810 0 l 847 26 b 760 257 783 47 760 110 l 760 397 b 767 669 760 510 763 604 l 454 653 l 454 626 b 544 371 538 606 544 485 l 544 232 b 425 143 522 175 479 143 b 321 314 339 143 321 246 l 321 415 b 331 667 321 501 324 592 l 18 653 "},"™":{"ha":915,"x_min":0,"x_max":0,"o":"m 261 719 b 304 636 261 657 271 640 l 304 617 b 215 621 275 619 250 621 b 124 617 175 621 151 619 l 124 636 b 165 719 157 640 165 657 l 165 899 b 85 832 117 899 100 878 l 56 832 b 64 932 63 865 64 899 b 168 928 94 931 129 928 l 257 928 b 364 932 303 928 343 931 b 374 832 365 896 368 865 l 344 832 b 261 899 328 883 311 896 m 665 826 b 703 929 679 858 693 896 b 779 925 721 926 757 925 b 842 929 799 925 825 926 l 842 910 b 813 856 821 908 813 901 b 814 810 813 843 813 829 l 819 735 b 860 635 825 668 836 640 l 860 617 b 776 621 840 619 810 621 b 694 617 746 621 719 619 l 694 635 b 731 685 719 640 731 653 b 729 726 731 699 731 714 l 721 839 l 657 689 b 636 617 650 672 642 644 l 564 617 l 479 838 l 471 722 b 471 686 471 711 471 697 b 508 635 471 651 478 643 l 508 617 b 435 621 485 619 461 621 b 372 617 411 621 396 619 l 372 636 b 425 721 406 636 421 660 l 435 847 b 436 878 436 865 436 874 b 401 910 436 901 428 908 l 401 929 b 474 925 419 926 446 925 b 547 929 500 925 529 926 b 575 836 553 903 563 871 l 617 722 "},"Ð":{"ha":1121,"x_min":0,"x_max":0,"o":"m 157 444 b 46 435 114 444 82 442 l 33 450 l 71 524 l 157 524 l 157 625 b 39 893 157 811 128 876 l 39 931 b 272 922 96 925 157 922 b 608 931 367 922 479 931 b 1061 475 926 931 1061 782 b 575 -4 1061 143 892 -4 b 254 4 444 -4 339 4 b 39 -4 176 4 100 1 l 39 33 b 157 301 128 50 157 115 l 157 444 m 403 279 b 417 136 403 226 408 164 b 550 65 431 88 472 65 b 789 450 714 65 789 188 b 521 854 789 729 706 854 b 403 831 456 854 422 842 l 403 524 l 574 524 l 586 506 l 540 435 b 403 444 515 440 454 444 "},"½":{"ha":1349,"x_min":0,"x_max":0,"o":"m 426 924 b 378 746 386 886 378 856 l 378 557 b 453 406 378 446 394 414 l 453 368 b 297 374 407 372 358 374 b 136 368 232 374 179 372 l 136 407 b 218 557 200 408 218 443 l 218 779 b 56 722 150 746 122 736 l 93 843 b 403 963 168 853 318 910 m 850 904 l 535 -14 l 429 22 l 744 940 m 1285 203 b 1171 -7 1268 69 1251 -7 b 836 8 1101 -7 1007 8 b 804 -8 822 -4 815 -8 b 778 17 788 -8 778 1 b 878 128 778 47 831 128 b 1069 433 1001 254 1069 363 b 1015 508 1069 481 1049 508 b 965 453 981 508 965 490 b 990 381 965 419 976 397 b 911 360 971 365 949 360 b 818 446 853 360 818 392 b 1051 571 818 524 907 571 b 1243 432 1181 571 1243 525 b 974 129 1243 331 1178 257 b 1163 124 1043 129 1113 124 b 1242 203 1206 124 1226 144 "},"±":{"ha":875,"x_min":0,"x_max":0,"o":"m 501 858 l 501 599 l 763 599 l 763 471 l 501 471 l 501 207 l 369 207 l 369 471 l 113 471 l 113 599 l 369 599 l 369 858 m 763 150 l 763 22 l 113 22 l 113 150 "},"Þ":{"ha":888,"x_min":0,"x_max":0,"o":"m 404 742 b 585 765 449 756 500 765 b 860 550 769 765 860 694 b 483 238 860 358 714 238 b 404 243 442 238 424 239 b 554 32 410 90 447 38 l 554 -4 b 288 4 476 1 379 4 b 38 -4 196 4 108 1 l 38 33 b 157 301 128 49 157 114 l 157 625 b 38 893 157 813 128 878 l 38 931 b 281 922 139 924 206 922 b 519 931 357 922 449 925 l 519 893 b 404 742 456 890 407 825 m 404 318 b 436 314 414 315 425 314 b 599 518 538 314 599 390 b 467 692 599 633 554 692 b 404 681 433 692 418 688 "},"¼":{"ha":1349,"x_min":0,"x_max":0,"o":"m 426 924 b 378 746 386 886 378 856 l 378 557 b 453 406 378 446 394 414 l 453 368 b 308 374 400 372 369 374 b 136 368 243 374 203 372 l 136 407 b 218 557 200 408 218 443 l 218 779 b 56 722 150 746 122 736 l 93 843 b 403 963 168 853 318 910 m 850 904 l 535 -14 l 429 22 l 744 940 m 1197 4 l 1081 -15 l 1061 1 l 1061 118 b 935 125 1026 122 985 125 b 829 122 892 125 856 124 b 801 108 818 111 813 108 b 769 142 783 108 769 122 b 836 236 769 183 800 225 b 906 454 878 319 906 408 b 879 499 906 483 899 499 b 836 485 868 499 853 494 l 819 522 b 1001 571 875 551 944 571 b 1072 518 1047 571 1072 553 b 911 239 1072 444 958 310 b 976 242 925 240 954 242 b 1065 238 1001 242 1036 240 l 1065 410 b 1176 444 1111 415 1143 425 l 1200 418 l 1200 231 b 1268 329 1243 233 1265 267 l 1308 329 b 1197 111 1307 168 1276 104 "},"÷":{"ha":875,"x_min":0,"x_max":0,"o":"m 763 539 l 763 407 l 113 407 l 113 539 m 438 808 b 533 711 490 808 533 765 b 438 615 533 658 490 615 b 342 711 385 615 342 658 b 438 808 342 765 385 808 m 438 329 b 533 233 490 329 533 286 b 438 136 533 179 490 136 b 342 233 385 136 342 179 b 438 329 342 286 385 329 "},"¦":{"ha":694,"x_min":0,"x_max":0,"o":"m 429 926 l 429 424 l 267 424 l 267 926 m 429 213 l 429 -232 l 267 -232 l 267 213 "},"°":{"ha":656,"x_min":0,"x_max":0,"o":"m 328 939 b 558 713 454 939 558 838 b 328 485 558 586 454 485 b 97 713 201 485 97 586 b 328 939 97 838 201 939 m 328 838 b 206 713 260 838 206 782 b 328 586 206 644 260 586 b 450 713 394 586 450 644 b 328 838 450 782 394 838 "},"þ":{"ha":849,"x_min":0,"x_max":0,"o":"m 311 508 b 565 681 375 628 453 681 b 799 361 714 681 799 564 b 442 -14 799 122 669 -14 b 311 7 390 -14 360 -10 l 311 -49 b 425 -278 311 -150 307 -257 l 425 -310 b 194 -301 369 -304 275 -301 b 1 -310 125 -301 69 -303 l 1 -278 b 97 -49 69 -267 97 -200 l 97 771 b 6 1001 97 921 71 986 l 6 1032 l 311 1044 m 311 271 b 432 61 311 124 347 61 b 583 303 525 61 583 154 b 450 526 583 444 535 526 b 311 435 397 526 349 494 "},"¾":{"ha":1406,"x_min":0,"x_max":0,"o":"m 442 686 b 546 554 514 663 546 624 b 272 363 546 433 449 363 b 83 465 149 363 83 396 b 214 565 83 528 133 565 b 267 557 238 565 246 564 b 239 474 246 524 239 503 b 288 424 239 439 254 424 b 371 542 339 424 371 469 b 321 642 371 586 353 625 b 211 615 264 622 235 615 b 165 654 183 615 165 631 b 311 704 165 692 203 704 b 358 810 339 721 358 763 b 304 878 358 854 339 878 b 258 824 274 878 258 860 b 285 757 258 799 265 781 b 208 735 265 742 243 735 b 111 818 149 735 111 767 b 342 940 111 892 204 940 b 533 814 467 940 533 896 b 442 686 533 756 510 722 m 907 904 l 592 -14 l 486 22 l 801 940 m 1242 4 l 1125 -15 l 1106 1 l 1106 118 b 979 125 1071 122 1029 125 b 874 122 936 125 900 124 b 846 108 863 111 857 108 b 814 142 828 108 814 122 b 881 236 814 183 844 225 b 950 454 922 319 950 408 b 924 499 950 483 943 499 b 881 485 913 499 897 494 l 864 522 b 1046 571 919 551 989 571 b 1117 518 1092 571 1117 553 b 956 239 1117 444 1003 310 b 1021 242 969 240 999 242 b 1110 238 1046 242 1081 240 l 1110 410 b 1221 444 1156 415 1188 425 l 1244 418 l 1244 231 b 1313 329 1288 233 1310 267 l 1353 329 b 1242 111 1351 168 1321 104 "},"®":{"ha":508,"x_min":0,"x_max":0,"o":"m 231 694 b 256 635 231 653 236 639 l 256 625 b 203 628 244 626 222 628 b 151 625 185 628 163 626 l 151 635 b 174 694 168 639 174 653 l 174 768 b 151 828 174 810 168 824 l 151 838 b 200 835 161 836 183 835 b 263 838 218 835 233 838 b 332 789 308 838 332 821 b 281 733 332 761 311 740 b 315 706 296 731 307 722 l 338 664 b 367 635 346 644 354 638 l 367 626 l 311 626 b 286 640 297 626 292 626 l 257 701 b 239 728 253 710 247 722 b 231 729 238 728 235 728 m 231 747 b 239 746 235 746 236 746 b 272 783 260 746 272 760 b 244 821 272 806 263 821 b 231 818 238 821 233 819 l 231 747 m 42 728 b 254 940 42 846 128 940 b 467 729 379 940 467 847 b 254 515 467 604 379 515 b 42 728 128 515 42 603 m 90 729 b 254 558 90 633 154 558 b 418 729 350 558 418 633 b 254 899 418 824 350 899 b 90 729 154 899 90 824 "},"−":{"ha":875,"x_min":0,"x_max":0,"o":"m 761 539 l 761 407 l 113 407 l 113 539 "},"ð":{"ha":833,"x_min":0,"x_max":0,"o":"m 165 1060 b 376 961 254 1028 317 999 l 501 1051 l 524 1043 l 524 974 b 440 918 476 944 461 935 b 783 349 676 754 783 576 b 408 -14 783 110 656 -14 b 47 331 169 -14 47 103 b 392 681 47 550 175 681 b 490 667 432 681 457 676 b 350 858 461 731 407 804 b 183 722 276 806 221 760 l 157 731 l 157 804 l 299 904 b 139 1001 246 947 200 975 m 410 610 b 279 368 328 610 279 519 b 421 56 279 172 332 56 b 557 311 503 56 557 157 b 410 610 557 500 503 610 "},"×":{"ha":875,"x_min":0,"x_max":0,"o":"m 215 783 l 435 564 l 654 783 l 744 693 l 526 474 l 747 253 l 656 161 l 435 381 l 218 163 l 124 257 l 342 474 l 124 692 "},"©":{"ha":1088,"x_min":0,"x_max":0,"o":"m 704 550 b 565 683 685 639 635 683 b 426 471 474 683 426 611 b 564 246 426 325 475 246 b 739 397 651 246 694 299 l 781 382 b 744 236 761 326 750 278 b 546 200 708 222 639 200 b 268 458 354 200 268 279 b 575 729 268 644 364 729 b 750 706 667 729 721 717 b 746 632 747 685 746 660 b 750 550 746 603 747 579 m 165 461 b 542 76 165 243 326 76 b 918 461 756 76 918 243 b 542 846 918 678 756 846 b 165 461 326 846 165 678 m 63 461 b 542 940 63 736 268 940 b 1021 461 817 940 1021 736 b 542 -18 1021 189 817 -18 b 63 461 268 -18 63 189 "},"Á":{"ha":992,"x_min":0,"x_max":0,"o":"m 271 299 l 247 228 b 221 122 232 181 221 143 b 314 32 221 69 251 40 l 314 -4 b 136 4 263 1 199 4 b -37 -4 72 4 19 1 l -37 28 b 165 299 51 39 111 158 l 308 671 b 346 808 342 758 346 779 b 247 885 346 858 313 883 l 247 926 b 372 924 278 925 319 924 b 597 939 444 924 518 928 b 674 696 611 882 647 767 l 811 333 b 994 28 864 193 929 65 l 994 -4 b 767 4 931 1 853 4 b 550 -4 683 4 614 1 l 550 32 b 633 106 607 36 633 60 b 604 224 633 138 619 181 l 578 299 m 426 699 l 310 390 l 547 390 m 336 1057 b 615 1288 433 1118 546 1210 b 731 1118 657 1253 706 1182 b 365 990 661 1071 499 1014 "},"Â":{"ha":992,"x_min":0,"x_max":0,"o":"m 271 299 l 247 228 b 221 122 232 181 221 143 b 314 32 221 69 251 40 l 314 -4 b 136 4 263 1 199 4 b -37 -4 72 4 19 1 l -37 28 b 165 299 51 39 111 158 l 308 671 b 346 808 342 758 346 779 b 247 885 346 858 313 883 l 247 926 b 372 924 278 925 319 924 b 597 939 444 924 518 928 b 674 696 611 882 647 767 l 811 333 b 994 28 864 193 929 65 l 994 -4 b 767 4 931 1 853 4 b 550 -4 683 4 614 1 l 550 32 b 633 106 607 36 633 60 b 604 224 633 138 619 181 l 578 299 m 426 699 l 310 390 l 547 390 m 818 1125 b 660 996 792 1089 703 996 b 607 1018 647 996 631 1003 l 435 1125 b 339 1006 399 1094 365 1053 l 118 1006 b 561 1253 233 1138 413 1218 l 718 1153 b 781 1125 754 1131 767 1125 b 801 1135 788 1125 793 1126 "},"Ä":{"ha":992,"x_min":0,"x_max":0,"o":"m 271 299 l 247 228 b 221 122 232 181 221 143 b 314 32 221 69 251 40 l 314 -4 b 136 4 263 1 199 4 b -37 -4 72 4 19 1 l -37 28 b 165 299 51 39 111 158 l 308 671 b 346 808 342 758 346 779 b 247 885 346 858 313 883 l 247 926 b 372 924 278 925 319 924 b 597 939 444 924 518 928 b 674 696 611 882 647 767 l 811 333 b 994 28 864 193 929 65 l 994 -4 b 767 4 931 1 853 4 b 550 -4 683 4 614 1 l 550 32 b 633 106 607 36 633 60 b 604 224 633 138 619 181 l 578 299 m 426 699 l 310 390 l 547 390 m 292 1258 b 418 1132 361 1258 418 1201 b 292 1004 418 1061 361 1004 b 164 1132 221 1004 164 1061 b 292 1258 164 1201 221 1258 m 629 1258 b 756 1132 699 1258 756 1201 b 629 1004 756 1061 699 1004 b 503 1132 558 1004 503 1061 b 629 1258 503 1201 560 1258 "},"À":{"ha":992,"x_min":0,"x_max":0,"o":"m 271 299 l 247 228 b 221 122 232 181 221 143 b 314 32 221 69 251 40 l 314 -4 b 136 4 263 1 199 4 b -37 -4 72 4 19 1 l -37 28 b 165 299 51 39 111 158 l 308 671 b 346 808 342 758 346 779 b 247 885 346 858 313 883 l 247 926 b 372 924 278 925 319 924 b 597 939 444 924 518 928 b 674 696 611 882 647 767 l 811 333 b 994 28 864 193 929 65 l 994 -4 b 767 4 931 1 853 4 b 550 -4 683 4 614 1 l 550 32 b 633 106 607 36 633 60 b 604 224 633 138 619 181 l 578 299 m 426 699 l 310 390 l 547 390 m 592 1000 b 236 1065 478 1038 357 1063 b 292 1264 239 1131 263 1218 b 625 1065 408 1225 531 1144 "},"Å":{"ha":992,"x_min":0,"x_max":0,"o":"m 271 299 l 247 228 b 221 122 232 181 221 143 b 314 32 221 69 251 40 l 314 -4 b 136 4 263 1 199 4 b -37 -4 72 4 19 1 l -37 28 b 165 299 51 39 111 158 l 308 671 b 346 808 342 758 346 779 b 247 885 346 858 313 883 l 247 926 b 372 924 278 925 319 924 b 597 939 444 924 518 928 b 674 696 611 882 647 767 l 811 333 b 994 28 864 193 929 65 l 994 -4 b 767 4 931 1 853 4 b 550 -4 683 4 614 1 l 550 32 b 633 106 607 36 633 60 b 604 224 633 138 619 181 l 578 299 m 426 699 l 310 390 l 547 390 m 446 1338 b 621 1167 554 1338 621 1261 b 446 996 621 1072 554 996 b 271 1167 338 996 271 1072 b 446 1338 271 1261 338 1338 m 446 1250 b 367 1167 400 1250 367 1213 b 446 1083 367 1121 400 1083 b 525 1167 492 1083 525 1121 b 446 1250 525 1213 492 1250 "},"Ã":{"ha":992,"x_min":0,"x_max":0,"o":"m 271 299 l 247 228 b 221 122 232 181 221 143 b 314 32 221 69 251 40 l 314 -4 b 136 4 263 1 199 4 b -37 -4 72 4 19 1 l -37 28 b 165 299 51 39 111 158 l 308 671 b 346 808 342 758 346 779 b 247 885 346 858 313 883 l 247 926 b 372 924 278 925 319 924 b 597 939 444 924 518 928 b 674 696 611 882 647 767 l 811 333 b 994 28 864 193 929 65 l 994 -4 b 767 4 931 1 853 4 b 550 -4 683 4 614 1 l 550 32 b 633 106 607 36 633 60 b 604 224 633 138 619 181 l 578 299 m 426 699 l 310 390 l 547 390 m 782 1213 b 626 1024 746 1078 700 1024 b 435 1061 578 1024 518 1039 b 264 1096 340 1088 292 1096 b 190 1039 225 1096 208 1082 l 153 1054 b 306 1243 197 1183 246 1243 b 510 1204 357 1243 413 1229 b 678 1169 610 1178 654 1169 b 743 1228 708 1169 729 1188 "},"Ç":{"ha":1008,"x_min":0,"x_max":0,"o":"m 835 629 b 583 863 792 785 708 863 b 331 475 419 863 331 732 b 583 64 331 304 368 64 b 917 324 724 64 832 147 l 985 292 b 917 40 951 200 932 132 b 549 -14 826 8 676 -14 b 60 451 213 -14 60 132 b 601 940 60 786 232 940 b 906 906 710 940 808 929 b 900 771 901 850 900 814 b 906 629 900 731 901 682 m 433 -112 b 565 -50 483 -74 533 -50 b 656 -176 613 -50 656 -110 b 449 -322 656 -260 565 -322 b 378 -317 425 -322 413 -322 l 403 -225 b 467 -242 432 -237 447 -242 b 518 -203 499 -242 518 -226 b 465 -128 518 -178 492 -128 b 447 -135 460 -128 456 -129 "},"É":{"ha":904,"x_min":0,"x_max":0,"o":"m 403 539 l 451 539 b 624 644 536 539 597 550 l 689 644 b 678 489 683 608 678 544 b 689 333 678 429 683 367 l 624 333 b 451 447 589 422 550 447 l 403 447 l 403 307 b 419 132 403 221 406 174 b 528 69 433 89 468 69 b 824 307 667 69 767 193 l 890 272 b 783 -12 843 181 810 88 b 458 0 676 -3 567 0 l 289 0 b 40 -4 206 0 103 -1 l 40 33 b 157 301 129 50 157 115 l 157 624 b 40 893 157 811 129 876 l 40 931 b 226 926 83 928 132 926 l 453 926 b 760 935 569 926 674 929 b 794 663 763 842 772 750 l 735 644 b 442 850 672 797 607 850 l 403 850 m 292 1057 b 571 1288 389 1118 501 1210 b 686 1118 613 1253 661 1182 b 321 990 617 1071 454 1014 "},"Ê":{"ha":904,"x_min":0,"x_max":0,"o":"m 403 539 l 451 539 b 624 644 536 539 597 550 l 689 644 b 678 489 683 608 678 544 b 689 333 678 429 683 367 l 624 333 b 451 447 589 422 550 447 l 403 447 l 403 307 b 419 132 403 221 406 174 b 528 69 433 89 468 69 b 824 307 667 69 767 193 l 890 272 b 783 -12 843 181 810 88 b 458 0 676 -3 567 0 l 289 0 b 40 -4 206 0 103 -1 l 40 33 b 157 301 129 50 157 115 l 157 624 b 40 893 157 811 129 876 l 40 931 b 226 926 83 928 132 926 l 453 926 b 760 935 569 926 674 929 b 794 663 763 842 772 750 l 735 644 b 442 850 672 797 607 850 l 403 850 m 803 1125 b 644 996 776 1089 688 996 b 592 1018 632 996 615 1003 l 419 1125 b 324 1006 383 1094 350 1053 l 103 1006 b 546 1253 218 1138 397 1218 l 703 1153 b 765 1125 739 1131 751 1125 b 786 1135 772 1125 778 1126 "},"Ë":{"ha":904,"x_min":0,"x_max":0,"o":"m 403 539 l 451 539 b 624 644 536 539 597 550 l 689 644 b 678 489 683 608 678 544 b 689 333 678 429 683 367 l 624 333 b 451 447 589 422 550 447 l 403 447 l 403 307 b 419 132 403 221 406 174 b 528 69 433 89 468 69 b 824 307 667 69 767 193 l 890 272 b 783 -12 843 181 810 88 b 458 0 676 -3 567 0 l 289 0 b 40 -4 206 0 103 -1 l 40 33 b 157 301 129 50 157 115 l 157 624 b 40 893 157 811 129 876 l 40 931 b 226 926 83 928 132 926 l 453 926 b 760 935 569 926 674 929 b 794 663 763 842 772 750 l 735 644 b 442 850 672 797 607 850 l 403 850 m 260 1258 b 386 1132 329 1258 386 1201 b 260 1004 386 1061 329 1004 b 132 1132 189 1004 132 1061 b 260 1258 132 1201 189 1258 m 597 1258 b 724 1132 667 1258 724 1201 b 597 1004 724 1061 667 1004 b 471 1132 526 1004 471 1061 b 597 1258 471 1201 528 1258 "},"È":{"ha":904,"x_min":0,"x_max":0,"o":"m 403 539 l 451 539 b 624 644 536 539 597 550 l 689 644 b 678 489 683 608 678 544 b 689 333 678 429 683 367 l 624 333 b 451 447 589 422 550 447 l 403 447 l 403 307 b 419 132 403 221 406 174 b 528 69 433 89 468 69 b 824 307 667 69 767 193 l 890 272 b 783 -12 843 181 810 88 b 458 0 676 -3 567 0 l 289 0 b 40 -4 206 0 103 -1 l 40 33 b 157 301 129 50 157 115 l 157 624 b 40 893 157 811 129 876 l 40 931 b 226 926 83 928 132 926 l 453 926 b 760 935 569 926 674 929 b 794 663 763 842 772 750 l 735 644 b 442 850 672 797 607 850 l 403 850 m 550 1000 b 194 1065 436 1038 315 1063 b 250 1264 197 1131 221 1218 b 583 1065 367 1225 489 1144 "},"Í":{"ha":560,"x_min":0,"x_max":0,"o":"m 521 -4 b 296 4 419 3 381 4 b 39 -4 210 4 125 0 l 39 33 b 157 301 129 49 157 114 l 157 624 b 39 893 157 811 129 876 l 39 931 b 274 922 151 924 193 922 b 521 931 356 922 439 926 l 521 893 b 403 624 432 876 403 813 l 403 301 b 521 33 403 114 432 49 m 147 1057 b 426 1288 244 1118 357 1210 b 542 1118 468 1253 517 1182 b 176 990 472 1071 310 1014 "},"Î":{"ha":560,"x_min":0,"x_max":0,"o":"m 521 -4 b 296 4 419 3 381 4 b 39 -4 210 4 125 0 l 39 33 b 157 301 129 49 157 114 l 157 624 b 39 893 157 811 129 876 l 39 931 b 274 922 151 924 193 922 b 521 931 356 922 439 926 l 521 893 b 403 624 432 876 403 813 l 403 301 b 521 33 403 114 432 49 m 629 1125 b 471 996 603 1089 514 996 b 418 1018 458 996 442 1003 l 246 1125 b 150 1006 210 1094 176 1053 l -71 1006 b 372 1253 44 1138 224 1218 l 529 1153 b 592 1125 565 1131 578 1125 b 613 1135 599 1125 604 1126 "},"Ï":{"ha":560,"x_min":0,"x_max":0,"o":"m 131 1240 b 247 1122 194 1240 247 1188 b 131 1004 247 1057 194 1004 b 13 1122 65 1004 13 1057 b 131 1240 13 1188 65 1240 m 431 1240 b 547 1122 494 1240 547 1188 b 431 1004 547 1057 494 1004 b 313 1122 365 1004 313 1057 b 431 1240 313 1188 365 1240 m 521 -4 b 296 4 419 3 381 4 b 39 -4 210 4 125 0 l 39 33 b 157 301 129 49 157 114 l 157 624 b 39 893 157 811 129 876 l 39 931 b 274 922 151 924 193 922 b 521 931 356 922 439 926 l 521 893 b 403 624 432 876 403 813 l 403 301 b 521 33 403 114 432 49 "},"Ì":{"ha":560,"x_min":0,"x_max":0,"o":"m 521 -4 b 296 4 419 3 381 4 b 39 -4 210 4 125 0 l 39 33 b 157 301 129 49 157 114 l 157 624 b 39 893 157 811 129 876 l 39 931 b 274 922 151 924 193 922 b 521 931 356 922 439 926 l 521 893 b 403 624 432 876 403 813 l 403 301 b 521 33 403 114 432 49 m 432 1000 b 76 1065 318 1038 197 1063 b 132 1264 79 1131 103 1218 b 465 1065 249 1225 371 1144 "},"Ñ":{"ha":1103,"x_min":0,"x_max":0,"o":"m 854 624 b 735 893 854 811 825 876 l 735 931 b 904 922 793 925 851 922 b 1074 931 958 922 1019 925 l 1074 893 b 954 624 983 876 954 811 l 954 354 b 964 -4 954 235 958 79 l 757 -4 l 250 711 l 250 301 b 369 33 250 114 279 49 l 369 -4 b 199 4 326 1 261 4 b 29 -4 142 4 86 1 l 29 33 b 149 301 119 49 149 114 l 149 624 b 29 893 149 811 119 876 l 29 931 b 222 922 99 925 153 922 b 411 931 293 922 354 925 b 567 678 456 842 510 758 l 854 269 m 885 1213 b 729 1024 849 1078 803 1024 b 538 1061 681 1024 621 1039 b 367 1096 443 1088 394 1096 b 293 1039 328 1096 311 1082 l 256 1054 b 408 1243 300 1183 349 1243 b 613 1204 460 1243 515 1229 b 781 1169 713 1178 757 1169 b 846 1228 811 1169 832 1188 "},"Ó":{"ha":1143,"x_min":0,"x_max":0,"o":"m 1083 468 b 554 -14 1083 117 885 -14 b 60 461 232 -14 60 132 b 599 940 60 807 274 940 b 1083 468 928 940 1083 789 m 813 460 b 575 863 813 728 731 863 b 331 483 419 863 331 728 b 568 64 331 258 392 64 b 813 460 758 64 813 258 m 439 1057 b 718 1288 536 1118 649 1210 b 833 1118 760 1253 808 1182 b 468 990 764 1071 601 1014 "},"Ô":{"ha":1143,"x_min":0,"x_max":0,"o":"m 1083 468 b 554 -14 1083 117 885 -14 b 60 461 232 -14 60 132 b 599 940 60 807 274 940 b 1083 468 928 940 1083 789 m 813 460 b 575 863 813 728 731 863 b 331 483 419 863 331 728 b 568 64 331 258 392 64 b 813 460 758 64 813 258 m 922 1125 b 764 996 896 1089 807 996 b 711 1018 751 996 735 1003 l 539 1125 b 443 1006 503 1094 469 1053 l 222 1006 b 665 1253 338 1138 517 1218 l 822 1153 b 885 1125 858 1131 871 1125 b 906 1135 892 1125 897 1126 "},"Ö":{"ha":1143,"x_min":0,"x_max":0,"o":"m 1083 468 b 554 -14 1083 117 885 -14 b 60 461 232 -14 60 132 b 599 940 60 807 274 940 b 1083 468 928 940 1083 789 m 813 460 b 575 863 813 728 731 863 b 331 483 419 863 331 728 b 568 64 331 258 392 64 b 813 460 758 64 813 258 m 426 1258 b 553 1132 496 1258 553 1201 b 426 1004 553 1061 496 1004 b 299 1132 356 1004 299 1061 b 426 1258 299 1201 356 1258 m 764 1258 b 890 1132 833 1258 890 1201 b 764 1004 890 1061 833 1004 b 638 1132 693 1004 638 1061 b 764 1258 638 1201 694 1258 "},"Ò":{"ha":1143,"x_min":0,"x_max":0,"o":"m 1083 468 b 554 -14 1083 117 885 -14 b 60 461 232 -14 60 132 b 599 940 60 807 274 940 b 1083 468 928 940 1083 789 m 813 460 b 575 863 813 728 731 863 b 331 483 419 863 331 728 b 568 64 331 258 392 64 b 813 460 758 64 813 258 m 697 1000 b 342 1065 583 1038 463 1063 b 397 1264 344 1131 368 1218 b 731 1065 514 1225 636 1144 "},"Õ":{"ha":1143,"x_min":0,"x_max":0,"o":"m 1083 468 b 554 -14 1083 117 885 -14 b 60 461 232 -14 60 132 b 599 940 60 807 274 940 b 1083 468 928 940 1083 789 m 813 460 b 575 863 813 728 731 863 b 331 483 419 863 331 728 b 568 64 331 258 392 64 b 813 460 758 64 813 258 m 886 1213 b 731 1024 850 1078 804 1024 b 539 1061 682 1024 622 1039 b 368 1096 444 1088 396 1096 b 294 1039 329 1096 313 1082 l 257 1054 b 410 1243 301 1183 350 1243 b 614 1204 461 1243 517 1229 b 782 1169 714 1178 758 1169 b 847 1228 813 1169 833 1188 "},"Š":{"ha":821,"x_min":0,"x_max":0,"o":"m 658 631 b 443 867 628 775 544 867 b 322 756 365 867 322 826 b 504 576 322 661 367 639 b 765 290 643 514 765 460 b 346 -14 765 96 603 -14 b 46 46 181 -14 81 28 b 58 213 54 89 58 165 b 54 326 58 250 57 289 l 131 326 b 356 61 146 182 232 61 b 504 203 449 61 504 113 b 322 397 504 303 432 350 b 61 674 196 451 61 511 b 457 940 61 844 204 940 b 736 900 586 940 689 918 b 728 778 732 869 728 828 b 736 631 728 729 731 679 m 89 1124 b 246 1253 117 1161 203 1253 b 299 1231 258 1253 275 1246 l 471 1124 b 567 1243 507 1154 540 1196 l 788 1243 b 344 996 672 1111 492 1031 l 188 1096 b 126 1124 151 1118 139 1124 b 106 1114 118 1124 113 1122 "},"Ú":{"ha":1147,"x_min":0,"x_max":0,"o":"m 744 225 b 419 -14 654 51 565 -14 b 144 325 178 -14 144 132 l 144 624 b 26 893 144 811 117 876 l 26 931 b 269 922 92 925 172 922 b 508 931 372 922 443 925 l 508 893 b 390 624 419 876 390 811 l 390 394 b 531 178 390 269 404 178 b 744 303 611 178 676 214 l 744 624 b 626 893 744 811 715 876 l 626 931 b 875 922 708 925 788 922 b 1108 931 960 922 1032 925 l 1108 893 b 990 624 1018 876 990 811 l 990 301 b 1108 33 990 114 1018 49 l 1108 -4 b 926 4 1053 1 990 4 b 744 -4 856 4 804 1 m 439 1057 b 718 1288 536 1118 649 1210 b 833 1118 760 1253 808 1182 b 468 990 764 1071 601 1014 "},"Û":{"ha":1147,"x_min":0,"x_max":0,"o":"m 744 225 b 419 -14 654 51 565 -14 b 144 325 178 -14 144 132 l 144 624 b 26 893 144 811 117 876 l 26 931 b 269 922 92 925 172 922 b 508 931 372 922 443 925 l 508 893 b 390 624 419 876 390 811 l 390 394 b 531 178 390 269 404 178 b 744 303 611 178 676 214 l 744 624 b 626 893 744 811 715 876 l 626 931 b 875 922 708 925 788 922 b 1108 931 960 922 1032 925 l 1108 893 b 990 624 1018 876 990 811 l 990 301 b 1108 33 990 114 1018 49 l 1108 -4 b 926 4 1053 1 990 4 b 744 -4 856 4 804 1 m 924 1125 b 765 996 897 1089 808 996 b 713 1018 753 996 736 1003 l 540 1125 b 444 1006 504 1094 471 1053 l 224 1006 b 667 1253 339 1138 518 1218 l 824 1153 b 886 1125 860 1131 872 1125 b 907 1135 893 1125 899 1126 "},"Ü":{"ha":1147,"x_min":0,"x_max":0,"o":"m 744 225 b 419 -14 654 51 565 -14 b 144 325 178 -14 144 132 l 144 624 b 26 893 144 811 117 876 l 26 931 b 269 922 92 925 172 922 b 508 931 372 922 443 925 l 508 893 b 390 624 419 876 390 811 l 390 394 b 531 178 390 269 404 178 b 744 303 611 178 676 214 l 744 624 b 626 893 744 811 715 876 l 626 931 b 875 922 708 925 788 922 b 1108 931 960 922 1032 925 l 1108 893 b 990 624 1018 876 990 811 l 990 301 b 1108 33 990 114 1018 49 l 1108 -4 b 926 4 1053 1 990 4 b 744 -4 856 4 804 1 m 400 1258 b 526 1132 469 1258 526 1201 b 400 1004 526 1061 469 1004 b 272 1132 329 1004 272 1061 b 400 1258 272 1201 329 1258 m 738 1258 b 864 1132 807 1258 864 1201 b 738 1004 864 1061 807 1004 b 611 1132 667 1004 611 1061 b 738 1258 611 1201 668 1258 "},"Ù":{"ha":1147,"x_min":0,"x_max":0,"o":"m 744 225 b 419 -14 654 51 565 -14 b 144 325 178 -14 144 132 l 144 624 b 26 893 144 811 117 876 l 26 931 b 269 922 92 925 172 922 b 508 931 372 922 443 925 l 508 893 b 390 624 419 876 390 811 l 390 394 b 531 178 390 269 404 178 b 744 303 611 178 676 214 l 744 624 b 626 893 744 811 715 876 l 626 931 b 875 922 708 925 788 922 b 1108 931 960 922 1032 925 l 1108 893 b 990 624 1018 876 990 811 l 990 301 b 1108 33 990 114 1018 49 l 1108 -4 b 926 4 1053 1 990 4 b 744 -4 856 4 804 1 m 697 1000 b 342 1065 583 1038 463 1063 b 397 1264 344 1131 368 1218 b 731 1065 514 1225 636 1144 "},"Ý":{"ha":926,"x_min":0,"x_max":0,"o":"m 614 664 b 681 828 663 743 681 790 b 611 892 681 872 663 889 l 611 931 b 782 922 665 925 721 922 b 944 931 843 922 897 925 l 944 900 b 715 639 879 872 815 803 l 592 436 l 592 301 b 710 33 592 114 621 49 l 710 -4 b 465 4 636 1 544 4 b 229 -4 378 4 300 1 l 229 33 b 349 301 319 49 349 114 l 349 371 l 192 639 b -32 892 107 785 38 861 l -32 931 b 186 922 31 925 89 922 b 431 931 286 922 353 925 l 431 892 b 374 839 388 889 374 875 b 439 685 374 804 386 776 l 529 526 m 353 1057 b 632 1288 450 1118 563 1210 b 747 1118 674 1253 722 1182 b 382 990 678 1071 515 1014 "},"Ÿ":{"ha":926,"x_min":0,"x_max":0,"o":"m 614 664 b 681 828 663 743 681 790 b 611 892 681 872 663 889 l 611 931 b 782 922 665 925 721 922 b 944 931 843 922 897 925 l 944 900 b 715 639 879 872 815 803 l 592 436 l 592 301 b 710 33 592 114 621 49 l 710 -4 b 465 4 636 1 544 4 b 229 -4 378 4 300 1 l 229 33 b 349 301 319 49 349 114 l 349 371 l 192 639 b -32 892 107 785 38 861 l -32 931 b 186 922 31 925 89 922 b 431 931 286 922 353 925 l 431 892 b 374 839 388 889 374 875 b 439 685 374 804 386 776 l 529 526 m 332 1258 b 458 1132 401 1258 458 1201 b 332 1004 458 1061 401 1004 b 204 1132 261 1004 204 1061 b 332 1258 204 1201 261 1258 m 669 1258 b 796 1132 739 1258 796 1201 b 669 1004 796 1061 739 1004 b 543 1132 599 1004 543 1061 b 669 1258 543 1201 600 1258 "},"Ž":{"ha":924,"x_min":0,"x_max":0,"o":"m 79 599 b 160 901 85 668 101 850 b 307 926 193 931 265 926 l 853 926 l 881 881 b 301 196 768 667 540 396 b 701 175 481 193 622 175 b 853 311 792 175 825 206 l 893 311 b 717 -14 881 206 858 -14 b 121 18 581 -14 396 18 b 61 -14 99 -3 79 -14 b 35 11 43 -14 35 -6 b 199 196 35 68 128 194 b 567 775 319 338 485 599 b 478 779 528 778 514 779 b 114 594 247 779 150 729 m 176 1124 b 333 1253 204 1161 290 1253 b 386 1231 346 1253 363 1246 l 558 1124 b 654 1243 594 1154 628 1196 l 875 1243 b 432 996 760 1111 579 1031 l 275 1096 b 214 1124 239 1118 226 1124 b 193 1114 206 1124 200 1122 "},"á":{"ha":753,"x_min":0,"x_max":0,"o":"m 761 154 b 558 -14 726 39 663 -14 b 421 131 471 -14 428 31 b 211 -14 372 29 310 -14 b 42 143 103 -14 42 43 b 421 371 42 285 171 363 l 421 396 b 335 621 421 551 404 621 b 256 525 286 621 256 585 b 288 432 256 476 274 449 b 186 408 272 424 239 408 b 64 514 110 408 64 449 b 404 681 64 613 204 681 b 639 485 568 681 639 622 b 633 282 639 424 633 336 b 674 110 633 154 644 110 b 724 169 704 110 714 147 m 421 322 b 260 183 319 315 260 264 b 315 107 260 132 279 107 b 421 194 358 107 393 136 l 421 322 m 204 778 b 415 1051 286 860 357 951 b 564 903 472 1024 531 965 b 240 722 479 828 346 761 "},"â":{"ha":753,"x_min":0,"x_max":0,"o":"m 761 154 b 558 -14 726 39 663 -14 b 421 131 471 -14 428 31 b 211 -14 372 29 310 -14 b 42 143 103 -14 42 43 b 421 371 42 285 171 363 l 421 396 b 335 621 421 551 404 621 b 256 525 286 621 256 585 b 288 432 256 476 274 449 b 186 408 272 424 239 408 b 64 514 110 408 64 449 b 404 681 64 613 204 681 b 639 485 568 681 639 622 b 633 282 639 424 633 336 b 674 110 633 154 644 110 b 724 169 704 110 714 147 m 421 322 b 260 183 319 315 260 264 b 315 107 260 132 279 107 b 421 194 358 107 393 136 l 421 322 m 586 844 b 682 790 632 793 642 789 l 688 767 l 543 726 b 517 722 532 724 525 722 b 438 767 486 722 463 738 l 336 881 b 250 726 296 838 269 782 l 76 726 b 424 1028 153 858 314 976 "},"ä":{"ha":753,"x_min":0,"x_max":0,"o":"m 761 154 b 558 -14 726 39 663 -14 b 421 131 471 -14 428 31 b 211 -14 372 29 310 -14 b 42 143 103 -14 42 43 b 421 371 42 285 171 363 l 421 396 b 335 621 421 551 404 621 b 256 525 286 621 256 585 b 288 432 256 476 274 449 b 186 408 272 424 239 408 b 64 514 110 408 64 449 b 404 681 64 613 204 681 b 639 485 568 681 639 622 b 633 282 639 424 633 336 b 674 110 633 154 644 110 b 724 169 704 110 714 147 m 421 322 b 260 183 319 315 260 264 b 315 107 260 132 279 107 b 421 194 358 107 393 136 l 421 322 m 201 988 b 325 864 269 988 325 932 b 201 740 325 796 269 740 b 78 864 133 740 78 796 b 201 988 78 932 133 988 m 529 988 b 653 864 597 988 653 932 b 529 740 653 796 597 740 b 406 864 461 740 406 796 b 529 988 406 932 461 988 "},"à":{"ha":753,"x_min":0,"x_max":0,"o":"m 761 154 b 558 -14 726 39 663 -14 b 421 131 471 -14 428 31 b 211 -14 372 29 310 -14 b 42 143 103 -14 42 43 b 421 371 42 285 171 363 l 421 396 b 335 621 421 551 404 621 b 256 525 286 621 256 585 b 288 432 256 476 274 449 b 186 408 272 424 239 408 b 64 514 110 408 64 449 b 404 681 64 613 204 681 b 639 485 568 681 639 622 b 633 282 639 424 633 336 b 674 110 633 154 644 110 b 724 169 704 110 714 147 m 421 322 b 260 183 319 315 260 264 b 315 107 260 132 279 107 b 421 194 358 107 393 136 l 421 322 m 386 722 b 163 894 317 801 225 865 b 343 1031 190 951 264 1010 b 449 751 381 981 431 856 "},"å":{"ha":753,"x_min":0,"x_max":0,"o":"m 761 154 b 558 -14 726 39 663 -14 b 421 131 471 -14 428 31 b 211 -14 372 29 310 -14 b 42 143 103 -14 42 43 b 421 371 42 285 171 363 l 421 396 b 335 621 421 551 404 621 b 256 525 286 621 256 585 b 288 432 256 476 274 449 b 186 408 272 424 239 408 b 64 514 110 408 64 449 b 404 681 64 613 204 681 b 639 485 568 681 639 622 b 633 282 639 424 633 336 b 674 110 633 154 644 110 b 724 169 704 110 714 147 m 421 322 b 260 183 319 315 260 264 b 315 107 260 132 279 107 b 421 194 358 107 393 136 l 421 322 m 375 1064 b 544 897 471 1064 544 989 b 375 732 544 806 471 732 b 206 897 279 732 206 806 b 375 1064 206 989 279 1064 m 375 979 b 299 897 331 979 299 942 b 375 817 299 853 331 817 b 451 897 419 817 451 853 b 375 979 451 942 419 979 "},"ã":{"ha":753,"x_min":0,"x_max":0,"o":"m 761 154 b 558 -14 726 39 663 -14 b 421 131 471 -14 428 31 b 211 -14 372 29 310 -14 b 42 143 103 -14 42 43 b 421 371 42 285 171 363 l 421 396 b 335 621 421 551 404 621 b 256 525 286 621 256 585 b 288 432 256 476 274 449 b 186 408 272 424 239 408 b 64 514 110 408 64 449 b 404 681 64 613 204 681 b 639 485 568 681 639 622 b 633 282 639 424 633 336 b 674 110 633 154 644 110 b 724 169 704 110 714 147 m 421 322 b 260 183 319 315 260 264 b 315 107 260 132 279 107 b 421 194 358 107 393 136 l 421 322 m 656 939 b 510 765 622 815 579 765 b 333 800 465 765 410 779 b 176 832 247 824 203 832 b 111 779 142 832 128 819 l 72 793 b 215 967 114 913 158 967 b 403 931 263 967 313 954 b 557 899 494 907 535 899 b 615 953 586 899 603 915 "},"ç":{"ha":685,"x_min":0,"x_max":0,"o":"m 679 182 b 339 -14 588 53 471 -14 b 49 289 158 -14 49 100 b 451 681 49 533 200 681 b 642 558 578 681 642 640 b 474 410 642 472 571 410 b 435 411 464 410 447 410 b 461 514 454 450 461 478 b 392 615 461 576 433 615 b 271 389 318 615 271 525 b 457 117 271 219 340 117 b 643 213 522 117 581 146 m 275 -110 b 404 -49 324 -71 372 -49 b 492 -171 450 -49 492 -107 b 289 -314 492 -253 404 -314 b 222 -308 267 -314 254 -312 l 246 -219 b 308 -235 274 -231 289 -235 b 357 -197 339 -235 357 -221 b 307 -125 357 -174 332 -125 b 289 -132 301 -125 297 -126 "},"é":{"ha":740,"x_min":0,"x_max":0,"o":"m 268 376 b 268 372 268 375 268 374 b 475 113 268 303 283 113 b 674 210 549 113 613 143 l 710 181 b 363 -14 625 53 507 -14 b 49 314 167 -14 49 108 b 407 681 49 544 182 681 b 689 450 588 681 689 599 b 681 376 689 424 688 410 l 268 376 m 464 450 b 468 494 467 463 468 476 b 379 622 468 574 435 622 b 268 440 310 622 272 563 m 249 778 b 460 1051 331 860 401 951 b 608 903 517 1024 575 965 b 285 722 524 828 390 761 "},"ê":{"ha":740,"x_min":0,"x_max":0,"o":"m 268 376 b 268 372 268 375 268 374 b 475 113 268 303 283 113 b 674 210 549 113 613 143 l 710 181 b 363 -14 625 53 507 -14 b 49 314 167 -14 49 108 b 407 681 49 544 182 681 b 689 450 588 681 689 599 b 681 376 689 424 688 410 l 268 376 m 464 450 b 468 494 467 463 468 476 b 379 622 468 574 435 622 b 268 440 310 622 272 563 m 589 844 b 685 790 635 793 644 789 l 690 767 l 546 726 b 519 722 535 724 528 722 b 440 767 489 722 465 738 l 339 881 b 253 726 299 838 272 782 l 79 726 b 426 1028 156 858 317 976 "},"ë":{"ha":740,"x_min":0,"x_max":0,"o":"m 268 376 b 268 372 268 375 268 374 b 475 113 268 303 283 113 b 674 210 549 113 613 143 l 710 181 b 363 -14 625 53 507 -14 b 49 314 167 -14 49 108 b 407 681 49 544 182 681 b 689 450 588 681 689 599 b 681 376 689 424 688 410 l 268 376 m 464 450 b 468 494 467 463 468 476 b 379 622 468 574 435 622 b 268 440 310 622 272 563 m 215 988 b 339 864 283 988 339 932 b 215 740 339 796 283 740 b 92 864 147 740 92 796 b 215 988 92 932 147 988 m 543 988 b 667 864 611 988 667 932 b 543 740 667 796 611 740 b 419 864 475 740 419 796 b 543 988 419 932 475 988 "},"è":{"ha":740,"x_min":0,"x_max":0,"o":"m 268 376 b 268 372 268 375 268 374 b 475 113 268 303 283 113 b 674 210 549 113 613 143 l 710 181 b 363 -14 625 53 507 -14 b 49 314 167 -14 49 108 b 407 681 49 544 182 681 b 689 450 588 681 689 599 b 681 376 689 424 688 410 l 268 376 m 464 450 b 468 494 467 463 468 476 b 379 622 468 574 435 622 b 268 440 310 622 272 563 m 413 722 b 189 894 343 801 251 865 b 369 1031 217 951 290 1010 b 475 751 407 981 457 856 "},"í":{"ha":465,"x_min":0,"x_max":0,"o":"m 357 675 b 347 410 349 588 347 511 l 347 257 b 439 26 347 107 374 42 l 439 -4 b 244 4 382 1 313 4 b 39 -4 176 4 99 1 l 39 26 b 129 257 104 43 129 108 l 129 382 b 39 638 129 513 121 614 l 39 664 l 357 675 m 44 778 b 256 1051 126 860 197 951 b 404 903 313 1024 371 965 b 81 722 319 828 186 761 "},"î":{"ha":465,"x_min":0,"x_max":0,"o":"m 357 675 b 347 410 349 588 347 511 l 347 257 b 439 26 347 107 374 42 l 439 -4 b 244 4 382 1 313 4 b 39 -4 176 4 99 1 l 39 26 b 129 257 104 43 129 108 l 129 382 b 39 638 129 513 121 614 l 39 664 l 357 675 m 436 844 b 532 790 482 793 492 789 l 538 767 l 393 726 b 367 722 382 724 375 722 b 288 767 336 722 313 738 l 186 881 b 100 726 146 838 119 782 l -74 726 b 274 1028 3 858 164 976 "},"ï":{"ha":465,"x_min":0,"x_max":0,"o":"m 72 968 b 186 854 135 968 186 918 b 72 740 186 792 135 740 b -42 854 10 740 -42 792 b 72 968 -42 918 10 968 m 365 968 b 479 854 428 968 479 918 b 365 740 479 792 428 740 b 251 854 303 740 251 792 b 365 968 251 918 303 968 m 357 675 b 347 410 349 588 347 511 l 347 257 b 439 26 347 107 374 42 l 439 -4 b 244 4 382 1 313 4 b 39 -4 176 4 99 1 l 39 26 b 129 257 104 43 129 108 l 129 382 b 39 638 129 513 121 614 l 39 664 l 357 675 "},"ì":{"ha":465,"x_min":0,"x_max":0,"o":"m 357 675 b 347 410 349 588 347 511 l 347 257 b 439 26 347 107 374 42 l 439 -4 b 244 4 382 1 313 4 b 39 -4 176 4 99 1 l 39 26 b 129 257 104 43 129 108 l 129 382 b 39 638 129 513 121 614 l 39 664 l 357 675 m 261 722 b 38 894 192 801 100 865 b 218 1031 65 951 139 1010 b 324 751 256 981 306 856 "},"ñ":{"ha":901,"x_min":0,"x_max":0,"o":"m 344 507 b 601 681 421 631 494 681 b 782 472 744 681 782 600 l 782 257 b 878 26 782 106 810 39 l 878 -4 b 676 4 821 1 746 4 b 472 -4 610 4 533 1 l 472 26 b 567 257 539 39 567 106 l 567 356 b 464 519 567 429 564 519 b 344 436 417 519 375 490 l 344 257 b 436 26 344 107 371 42 l 436 -4 b 239 4 382 1 308 4 b 38 -4 172 4 99 1 l 38 26 b 129 257 103 43 129 108 l 129 381 b 38 638 129 508 122 614 l 38 664 l 344 675 m 740 939 b 594 765 707 815 664 765 b 418 800 550 765 494 779 b 261 832 332 824 288 832 b 196 779 226 832 213 819 l 157 793 b 300 967 199 913 243 967 b 488 931 347 967 397 954 b 642 899 579 907 619 899 b 700 953 671 899 688 915 "},"ó":{"ha":835,"x_min":0,"x_max":0,"o":"m 786 343 b 411 -14 786 111 656 -14 b 49 331 172 -14 49 103 b 429 681 49 561 179 681 b 786 343 660 681 786 561 m 560 315 b 411 611 560 500 504 611 b 281 367 329 611 281 521 b 424 56 281 171 333 56 b 560 315 507 56 560 156 m 288 778 b 499 1051 369 860 440 951 b 647 903 556 1024 614 965 b 324 722 563 828 429 761 "},"ô":{"ha":835,"x_min":0,"x_max":0,"o":"m 786 343 b 411 -14 786 111 656 -14 b 49 331 172 -14 49 103 b 429 681 49 561 179 681 b 786 343 660 681 786 561 m 560 315 b 411 611 560 500 504 611 b 281 367 329 611 281 521 b 424 56 281 171 333 56 b 560 315 507 56 560 156 m 624 844 b 719 790 669 793 679 789 l 725 767 l 581 726 b 554 722 569 724 563 722 b 475 767 524 722 500 738 l 374 881 b 288 726 333 838 307 782 l 114 726 b 461 1028 190 858 351 976 "},"ö":{"ha":835,"x_min":0,"x_max":0,"o":"m 786 343 b 411 -14 786 111 656 -14 b 49 331 172 -14 49 103 b 429 681 49 561 179 681 b 786 343 660 681 786 561 m 560 315 b 411 611 560 500 504 611 b 281 367 329 611 281 521 b 424 56 281 171 333 56 b 560 315 507 56 560 156 m 253 988 b 376 864 321 988 376 932 b 253 740 376 796 321 740 b 129 864 185 740 129 796 b 253 988 129 932 185 988 m 581 988 b 704 864 649 988 704 932 b 581 740 704 796 649 740 b 457 864 513 740 457 796 b 581 988 457 932 513 988 "},"ò":{"ha":835,"x_min":0,"x_max":0,"o":"m 786 343 b 411 -14 786 111 656 -14 b 49 331 172 -14 49 103 b 429 681 49 561 179 681 b 786 343 660 681 786 561 m 560 315 b 411 611 560 500 504 611 b 281 367 329 611 281 521 b 424 56 281 171 333 56 b 560 315 507 56 560 156 m 449 722 b 225 894 379 801 288 865 b 406 1031 253 951 326 1010 b 511 751 443 981 493 856 "},"õ":{"ha":835,"x_min":0,"x_max":0,"o":"m 786 343 b 411 -14 786 111 656 -14 b 49 331 172 -14 49 103 b 429 681 49 561 179 681 b 786 343 660 681 786 561 m 560 315 b 411 611 560 500 504 611 b 281 367 329 611 281 521 b 424 56 281 171 333 56 b 560 315 507 56 560 156 m 707 939 b 561 765 674 815 631 765 b 385 800 517 765 461 779 b 228 832 299 824 254 832 b 163 779 193 832 179 819 l 124 793 b 267 967 165 913 210 967 b 454 931 314 967 364 954 b 608 899 546 907 586 899 b 667 953 638 899 654 915 "},"š":{"ha":629,"x_min":0,"x_max":0,"o":"m 526 432 b 336 617 494 546 422 617 b 264 551 290 617 264 592 b 388 442 264 506 288 485 b 581 228 517 386 581 344 b 272 -14 581 74 468 -14 b 40 29 164 -14 76 13 b 53 190 49 81 53 136 b 50 282 53 221 51 264 l 86 282 b 282 58 113 144 188 58 b 381 150 343 58 381 93 b 225 286 381 211 339 235 b 69 471 107 339 69 381 b 349 681 69 606 171 681 b 560 643 447 681 521 660 b 554 542 556 608 554 576 b 560 432 554 507 556 469 m 122 904 b 26 960 78 954 68 960 l 21 982 l 161 1022 b 194 1028 171 1025 185 1028 b 271 983 226 1028 250 1007 l 372 869 b 458 1024 414 914 439 967 l 632 1024 b 285 722 554 889 403 778 "},"ú":{"ha":886,"x_min":0,"x_max":0,"o":"m 775 675 b 767 421 769 597 767 521 l 767 257 b 856 26 767 110 792 47 l 856 -4 b 740 1 835 -1 782 1 b 578 -12 678 1 625 -4 b 553 154 564 32 553 99 b 301 -14 485 40 403 -14 b 114 239 143 -14 114 106 l 114 378 b 26 633 114 546 90 613 l 26 660 l 338 675 b 328 424 331 600 328 524 l 328 311 b 433 143 328 213 360 143 b 553 232 488 143 531 175 l 553 378 b 463 633 553 544 529 613 l 463 660 l 775 675 m 288 778 b 499 1051 369 860 440 951 b 647 903 556 1024 614 965 b 324 722 563 828 429 761 "},"û":{"ha":886,"x_min":0,"x_max":0,"o":"m 775 675 b 767 421 769 597 767 521 l 767 257 b 856 26 767 110 792 47 l 856 -4 b 740 1 835 -1 782 1 b 578 -12 678 1 625 -4 b 553 154 564 32 553 99 b 301 -14 485 40 403 -14 b 114 239 143 -14 114 106 l 114 378 b 26 633 114 546 90 613 l 26 660 l 338 675 b 328 424 331 600 328 524 l 328 311 b 433 143 328 213 360 143 b 553 232 488 143 531 175 l 553 378 b 463 633 553 544 529 613 l 463 660 l 775 675 m 644 844 b 740 790 690 793 700 789 l 746 767 l 601 726 b 575 722 590 724 583 722 b 496 767 544 722 521 738 l 394 881 b 308 726 354 838 328 782 l 135 726 b 482 1028 211 858 372 976 "},"ü":{"ha":886,"x_min":0,"x_max":0,"o":"m 775 675 b 767 421 769 597 767 521 l 767 257 b 856 26 767 110 792 47 l 856 -4 b 740 1 835 -1 782 1 b 578 -12 678 1 625 -4 b 553 154 564 32 553 99 b 301 -14 485 40 403 -14 b 114 239 143 -14 114 106 l 114 378 b 26 633 114 546 90 613 l 26 660 l 338 675 b 328 424 331 600 328 524 l 328 311 b 433 143 328 213 360 143 b 553 232 488 143 531 175 l 553 378 b 463 633 553 544 529 613 l 463 660 l 775 675 m 268 988 b 392 864 336 988 392 932 b 268 740 392 796 336 740 b 144 864 200 740 144 796 b 268 988 144 932 200 988 m 596 988 b 719 864 664 988 719 932 b 596 740 719 796 664 740 b 472 864 528 740 472 796 b 596 988 472 932 528 988 "},"ù":{"ha":886,"x_min":0,"x_max":0,"o":"m 775 675 b 767 421 769 597 767 521 l 767 257 b 856 26 767 110 792 47 l 856 -4 b 740 1 835 -1 782 1 b 578 -12 678 1 625 -4 b 553 154 564 32 553 99 b 301 -14 485 40 403 -14 b 114 239 143 -14 114 106 l 114 378 b 26 633 114 546 90 613 l 26 660 l 338 675 b 328 424 331 600 328 524 l 328 311 b 433 143 328 213 360 143 b 553 232 488 143 531 175 l 553 378 b 463 633 553 544 529 613 l 463 660 l 775 675 m 449 722 b 225 894 379 801 288 865 b 406 1031 253 951 326 1010 b 511 751 443 981 493 856 "},"ý":{"ha":792,"x_min":0,"x_max":0,"o":"m 561 429 b 592 546 582 478 592 514 b 482 638 592 603 561 629 l 482 671 b 658 663 528 665 597 663 b 819 671 715 663 776 665 l 819 638 b 619 357 744 619 686 506 l 554 210 b 339 -254 499 83 418 -150 b 199 -318 308 -296 257 -318 b 47 -182 103 -318 47 -268 b 115 -49 47 -111 85 -68 b 231 -143 138 -103 167 -143 b 313 -112 263 -143 292 -131 b 347 -44 333 -94 347 -69 b 308 60 347 -24 340 -6 l 125 438 b -18 638 49 596 35 624 l -18 671 b 182 663 38 665 103 663 b 389 671 260 663 322 665 l 389 638 b 318 589 340 638 318 621 b 344 497 318 561 325 536 l 478 232 m 293 778 b 504 1051 375 860 446 951 b 653 903 561 1024 619 965 b 329 722 568 828 435 761 "},"ÿ":{"ha":792,"x_min":0,"x_max":0,"o":"m 561 429 b 592 546 582 478 592 514 b 482 638 592 603 561 629 l 482 671 b 658 663 528 665 597 663 b 819 671 715 663 776 665 l 819 638 b 619 357 744 619 686 506 l 554 210 b 339 -254 499 83 418 -150 b 199 -318 308 -296 257 -318 b 47 -182 103 -318 47 -268 b 115 -49 47 -111 85 -68 b 231 -143 138 -103 167 -143 b 313 -112 263 -143 292 -131 b 347 -44 333 -94 347 -69 b 308 60 347 -24 340 -6 l 125 438 b -18 638 49 596 35 624 l -18 671 b 182 663 38 665 103 663 b 389 671 260 663 322 665 l 389 638 b 318 589 340 638 318 621 b 344 497 318 561 325 536 l 478 232 m 268 988 b 392 864 336 988 392 932 b 268 740 392 796 336 740 b 144 864 200 740 144 796 b 268 988 144 932 200 988 m 596 988 b 719 864 664 988 719 932 b 596 740 719 796 664 740 b 472 864 528 740 472 796 b 596 988 472 932 528 988 "},"ž":{"ha":700,"x_min":0,"x_max":0,"o":"m 657 629 b 269 171 557 432 436 313 b 474 160 340 169 438 160 b 643 304 576 160 599 188 l 681 304 b 526 -14 646 36 604 -14 b 151 22 458 -14 278 22 b 74 -14 126 0 97 -14 b 33 22 49 -14 33 0 b 161 171 33 68 79 171 b 406 542 254 288 335 411 b 342 547 392 546 375 547 b 72 372 193 547 110 493 l 32 372 b 196 667 67 632 99 667 l 635 667 m 157 904 b 61 960 113 954 103 960 l 56 982 l 196 1022 b 229 1028 206 1025 219 1028 b 306 983 261 1028 285 1007 l 407 869 b 493 1024 449 914 474 967 l 667 1024 b 319 722 589 889 438 778 "},"⅛":{"ha":1349,"x_min":0,"x_max":0,"o":"m 426 921 b 378 743 386 883 378 853 l 378 554 b 453 403 378 443 394 411 l 453 365 b 308 371 400 369 369 371 b 136 365 243 371 203 369 l 136 404 b 218 554 200 406 218 440 l 218 776 b 56 719 150 743 122 733 l 93 840 b 403 960 168 850 318 907 m 850 904 l 535 -14 l 429 22 l 744 940 m 1131 318 b 1254 169 1204 289 1254 250 b 1007 -14 1254 69 1183 -14 b 779 133 847 -14 779 38 b 908 272 779 193 818 249 b 799 413 833 306 799 343 b 1033 564 799 490 875 564 b 1235 444 1169 564 1235 517 b 1131 318 1235 375 1192 338 m 1068 347 b 1104 436 1088 363 1104 396 b 1029 508 1104 478 1078 508 b 956 444 979 508 956 481 b 1068 347 956 401 999 375 m 968 240 b 922 143 938 221 922 192 b 1015 40 922 83 956 40 b 1097 118 1075 40 1097 75 b 968 240 1097 167 1071 199 "},"⅜":{"ha":1406,"x_min":0,"x_max":0,"o":"m 442 686 b 546 554 514 663 546 624 b 272 363 546 433 449 363 b 83 465 149 363 83 396 b 214 565 83 528 133 565 b 267 557 238 565 246 564 b 239 474 246 524 239 503 b 288 424 239 439 254 424 b 371 542 339 424 371 469 b 321 642 371 586 353 625 b 211 615 264 622 235 615 b 165 654 183 615 165 631 b 311 704 165 692 203 704 b 358 810 339 721 358 763 b 304 878 358 854 339 878 b 258 824 274 878 258 860 b 285 757 258 799 265 781 b 208 735 265 742 243 735 b 111 818 149 735 111 767 b 342 940 111 892 204 940 b 533 814 467 940 533 896 b 442 686 533 756 510 722 m 907 904 l 592 -14 l 486 22 l 801 940 m 1188 318 b 1311 169 1261 289 1311 250 b 1064 -14 1311 69 1240 -14 b 836 133 904 -14 836 38 b 965 272 836 193 875 249 b 856 413 890 306 856 343 b 1090 564 856 490 932 564 b 1292 444 1226 564 1292 517 b 1188 318 1292 375 1249 338 m 1125 347 b 1161 436 1144 363 1161 396 b 1086 508 1161 478 1135 508 b 1013 444 1036 508 1013 481 b 1125 347 1013 401 1056 375 m 1025 240 b 979 143 994 221 979 192 b 1072 40 979 83 1013 40 b 1154 118 1132 40 1154 75 b 1025 240 1154 167 1128 199 "},"⅝":{"ha":1404,"x_min":0,"x_max":0,"o":"m 517 982 b 360 794 510 846 463 794 b 200 813 293 794 246 799 b 203 758 201 797 203 776 b 200 704 203 739 203 721 b 343 739 242 728 285 739 b 542 563 469 739 542 686 b 268 361 542 446 456 361 b 83 464 138 361 83 400 b 200 547 83 519 133 547 b 246 542 222 547 238 544 b 225 474 236 528 225 506 b 282 418 225 443 242 418 b 379 544 357 418 379 482 b 276 663 379 624 343 663 b 189 632 229 663 203 644 b 140 596 182 610 167 596 b 107 622 117 596 107 607 b 125 654 107 635 113 646 b 129 758 128 685 129 725 b 114 919 129 813 125 871 l 125 936 b 319 924 172 928 236 924 b 483 982 413 924 457 932 m 906 904 l 590 -14 l 485 22 l 800 940 m 1186 318 b 1310 169 1260 289 1310 250 b 1063 -14 1310 69 1239 -14 b 835 133 903 -14 835 38 b 964 272 835 193 874 249 b 854 413 889 306 854 343 b 1089 564 854 490 931 564 b 1290 444 1225 564 1290 517 b 1186 318 1290 375 1247 338 m 1124 347 b 1160 436 1143 363 1160 396 b 1085 508 1160 478 1133 508 b 1011 444 1035 508 1011 481 b 1124 347 1011 401 1054 375 m 1024 240 b 978 143 993 221 978 192 b 1071 40 978 83 1011 40 b 1153 118 1131 40 1153 75 b 1024 240 1153 167 1126 199 "},"⅞":{"ha":1314,"x_min":0,"x_max":0,"o":"m 69 738 b 118 929 76 828 93 896 b 172 951 131 944 147 951 b 471 940 247 951 351 940 b 514 942 488 940 500 940 b 547 960 524 954 532 960 b 565 942 558 960 565 951 b 486 835 565 906 522 847 b 315 376 417 697 343 529 l 147 353 l 136 372 b 413 821 178 528 297 697 b 300 818 379 819 338 818 b 190 819 258 818 225 819 b 106 738 133 819 115 793 m 815 904 l 500 -14 l 394 22 l 710 940 m 1096 318 b 1219 169 1169 289 1219 250 b 972 -14 1219 69 1149 -14 b 744 133 813 -14 744 38 b 874 272 744 193 783 249 b 764 413 799 306 764 343 b 999 564 764 490 840 564 b 1200 444 1135 564 1200 517 b 1096 318 1200 375 1157 338 m 1033 347 b 1069 436 1053 363 1069 396 b 994 508 1069 478 1043 508 b 921 444 944 508 921 481 b 1033 347 921 401 964 375 m 933 240 b 888 143 903 221 888 192 b 981 40 888 83 921 40 b 1063 118 1040 40 1063 75 b 933 240 1063 167 1036 199 "},"⅓":{"ha":1349,"x_min":0,"x_max":0,"o":"m 426 924 b 378 746 386 886 378 856 l 378 557 b 453 406 378 446 394 414 l 453 368 b 308 374 400 372 369 374 b 136 368 243 374 203 372 l 136 407 b 218 557 200 408 218 443 l 218 779 b 56 722 150 746 122 736 l 93 843 b 403 963 168 853 318 910 m 850 904 l 535 -14 l 429 22 l 744 940 m 1128 310 b 1232 178 1200 286 1232 247 b 958 -14 1232 57 1135 -14 b 769 89 835 -14 769 19 b 900 189 769 151 819 189 b 953 181 924 189 932 188 b 925 97 932 147 925 126 b 974 47 925 63 940 47 b 1057 165 1025 47 1057 93 b 1007 265 1057 210 1039 249 b 897 239 950 246 921 239 b 851 278 869 239 851 254 b 997 328 851 315 889 328 b 1044 433 1025 344 1044 386 b 990 501 1044 478 1025 501 b 944 447 960 501 944 483 b 971 381 944 422 951 404 b 894 358 951 365 929 358 b 797 442 835 358 797 390 b 1028 564 797 515 890 564 b 1219 438 1153 564 1219 519 b 1128 310 1219 379 1196 346 "},"⅔":{"ha":1410,"x_min":0,"x_max":0,"o":"m 563 572 b 449 363 546 439 529 363 b 114 378 379 363 285 378 b 82 361 100 365 93 361 b 56 386 65 361 56 371 b 156 497 56 417 108 497 b 347 803 279 624 347 732 b 293 878 347 850 326 878 b 243 822 258 878 243 860 b 268 750 243 789 254 767 b 189 729 249 735 226 729 b 96 815 131 729 96 761 b 329 940 96 893 185 940 b 521 801 458 940 521 894 b 251 499 521 700 456 626 b 440 493 321 499 390 493 b 519 572 483 493 504 514 m 911 904 l 596 -14 l 490 22 l 806 940 m 1189 310 b 1293 178 1261 286 1293 247 b 1019 -14 1293 57 1196 -14 b 831 89 896 -14 831 19 b 961 189 831 151 881 189 b 1014 181 985 189 993 188 b 986 97 993 147 986 126 b 1035 47 986 63 1001 47 b 1118 165 1086 47 1118 93 b 1068 265 1118 210 1100 249 b 958 239 1011 246 982 239 b 913 278 931 239 913 254 b 1058 328 913 315 950 328 b 1106 433 1086 344 1106 386 b 1051 501 1106 478 1086 501 b 1006 447 1021 501 1006 483 b 1032 381 1006 422 1013 404 b 956 358 1013 365 990 358 b 858 442 896 358 858 390 b 1089 564 858 515 951 564 b 1281 438 1214 564 1281 519 b 1189 310 1281 379 1257 346 "},"":{"ha":922,"x_min":0,"x_max":0,"o":"m 553 667 b 815 675 640 667 728 669 b 804 438 807 596 804 517 l 804 257 b 896 26 804 108 829 43 l 896 -4 b 694 4 811 3 778 4 b 496 -4 613 4 579 3 l 496 26 b 588 257 561 43 588 108 l 588 415 b 496 599 588 585 560 599 l 340 599 l 340 257 b 451 26 340 93 369 32 l 451 -4 b 233 4 357 3 319 4 b 35 -4 147 4 115 3 l 35 26 b 129 257 101 39 129 106 l 129 599 b 35 586 92 597 56 592 l 24 601 l 56 667 l 129 667 b 550 1044 138 917 271 1044 b 814 889 726 1044 814 993 b 650 751 814 807 747 751 b 594 758 624 751 610 754 b 621 851 608 781 621 810 b 500 979 621 929 572 979 b 340 667 364 979 342 860 "},"":{"ha":931,"x_min":0,"x_max":0,"o":"m 492 667 l 504 649 l 465 586 b 339 593 432 590 382 593 l 339 257 b 453 26 339 171 338 31 l 453 -4 b 232 4 400 1 306 4 b 35 -4 158 4 96 1 l 35 26 b 129 257 103 39 129 106 l 129 593 b 35 586 86 593 53 590 l 24 597 l 56 667 l 129 667 b 513 1044 136 892 272 1044 b 610 1033 558 1044 588 1039 l 824 1044 b 811 711 814 933 811 822 l 811 257 b 904 26 811 107 838 40 l 904 -4 b 708 4 849 1 783 4 b 508 -4 633 4 569 1 l 508 26 b 597 257 574 47 597 111 l 597 729 b 589 899 597 833 596 856 b 499 978 579 953 551 978 b 339 667 372 978 339 838 "},"":{"ha":694,"x_min":0,"x_max":0,"o":"m 581 928 b 506 625 500 847 506 733 l 506 301 b 625 33 506 114 535 49 l 625 -4 b 413 4 543 3 514 4 b 150 -4 311 4 250 3 l 150 33 b 279 301 247 42 279 107 l 279 707 b 28 603 203 656 118 622 l 76 778 b 554 972 228 803 425 889 "},"€":{"ha":968,"x_min":0,"x_max":0,"o":"m 151 583 b 626 940 200 835 371 940 b 888 906 754 940 835 922 b 882 771 883 854 882 813 b 888 629 882 732 883 681 l 817 629 b 621 865 776 790 732 865 b 406 583 510 865 429 788 l 776 583 l 776 501 l 394 501 b 393 458 393 486 393 471 b 394 414 393 443 393 433 l 735 414 l 735 332 l 404 332 b 610 61 424 146 494 61 b 831 304 708 61 800 103 l 906 294 b 897 174 901 264 897 208 b 903 38 897 110 900 69 b 593 -14 840 15 740 -14 b 150 332 356 -14 190 90 l 21 332 l 21 414 l 140 414 b 139 451 139 431 139 440 b 142 501 139 467 140 488 l 63 501 l 63 583 "},"":{"ha":785,"x_min":0,"x_max":0,"o":"m 222 215 l 208 172 b 186 90 194 131 186 106 b 256 29 186 53 210 36 l 256 -4 b 119 4 217 1 174 4 b -21 -4 67 4 25 1 l -21 26 b 131 222 25 38 68 61 l 235 493 b 263 596 260 558 263 575 b 193 661 263 642 239 660 l 193 690 b 294 689 233 689 249 689 b 508 700 375 689 460 693 b 567 518 518 658 546 572 l 669 249 b 806 26 711 140 757 56 l 806 -4 b 622 4 746 1 685 4 b 432 -4 549 4 493 1 l 432 29 b 493 82 474 33 493 50 b 471 169 493 103 486 128 l 454 215 m 339 519 l 256 297 l 426 297 "},"":{"ha":763,"x_min":0,"x_max":0,"o":"m 461 371 b 721 188 606 363 721 338 b 429 -4 721 29 585 -4 b 210 4 357 -4 267 4 b 36 -4 147 4 81 1 l 36 26 b 126 257 101 43 126 108 l 126 432 b 35 663 126 582 100 647 l 35 693 b 215 685 92 688 153 685 b 453 693 282 685 344 693 b 689 558 564 693 689 685 b 461 371 689 442 590 386 m 335 399 b 354 397 343 397 347 397 b 471 522 429 397 471 442 b 381 622 471 581 439 622 b 335 610 360 622 344 617 l 335 399 m 335 229 b 354 103 335 169 342 128 b 414 65 367 79 381 65 b 497 174 461 65 497 106 b 357 328 497 265 440 328 b 335 326 351 328 344 328 "},"":{"ha":792,"x_min":0,"x_max":0,"o":"m 660 468 b 469 632 628 586 565 632 b 290 354 354 632 290 535 b 469 57 290 240 315 57 b 718 242 569 57 654 108 l 771 217 b 721 26 746 146 732 96 b 444 -14 653 3 539 -14 b 49 336 163 -14 49 96 b 483 703 49 588 178 703 b 713 676 565 703 639 694 b 708 575 710 629 708 613 b 713 468 708 551 710 519 "},"":{"ha":900,"x_min":0,"x_max":0,"o":"m 35 26 b 124 228 101 39 124 89 l 124 460 b 35 663 124 600 101 650 l 35 693 b 207 685 74 689 143 685 b 486 693 286 685 393 693 b 851 354 743 693 851 592 b 464 -4 851 114 735 -4 b 225 4 367 -4 286 4 b 35 -4 163 4 93 1 m 342 215 b 443 61 342 121 347 61 b 622 336 567 61 622 144 b 424 622 622 528 560 622 b 342 604 383 622 353 613 "},"":{"ha":708,"x_min":0,"x_max":0,"o":"m 344 404 l 374 404 b 488 479 422 404 467 411 l 546 479 b 539 363 542 453 539 404 b 546 247 539 321 542 278 l 488 247 b 374 328 461 308 432 328 l 344 328 l 344 226 b 358 104 344 157 349 128 b 429 63 369 76 392 63 b 650 226 535 63 607 143 l 708 196 b 629 -12 674 128 649 63 b 378 0 561 -6 468 0 l 204 0 b 36 -4 151 0 83 -1 l 36 26 b 126 257 101 43 126 108 l 126 432 b 35 663 126 582 100 647 l 35 693 b 204 689 85 690 151 689 l 374 689 b 611 696 471 689 558 692 b 638 496 613 625 619 571 l 585 479 b 365 619 539 592 497 619 l 344 619 "},"":{"ha":650,"x_min":0,"x_max":0,"o":"m 343 389 l 369 389 b 488 465 425 389 478 406 l 550 465 b 540 346 544 432 540 385 b 550 231 540 304 544 263 l 488 231 b 365 313 467 299 425 313 l 343 313 l 343 257 b 460 31 343 108 365 43 l 460 -4 b 247 4 390 1 314 4 b 36 -4 179 4 104 1 l 36 26 b 126 257 101 43 126 108 l 126 432 b 35 663 126 582 100 647 l 35 693 b 218 689 81 690 151 689 l 374 689 b 613 696 497 689 554 690 b 643 496 617 626 628 560 l 588 476 b 361 619 540 589 489 619 l 343 619 "},"":{"ha":832,"x_min":0,"x_max":0,"o":"m 647 469 b 467 632 614 585 563 632 b 292 358 356 632 292 535 b 449 56 292 174 344 56 b 538 154 511 56 538 93 b 439 271 538 239 514 265 l 439 301 b 632 293 493 296 565 293 b 804 301 704 293 751 296 l 804 271 b 758 200 772 267 758 243 l 760 93 l 797 61 b 432 -14 740 29 626 -14 b 49 326 167 -14 49 90 b 471 703 49 592 182 703 b 706 676 557 703 640 693 b 700 585 703 656 700 624 b 706 469 700 544 703 503 "},"":{"ha":924,"x_min":0,"x_max":0,"o":"m 579 403 l 579 432 b 488 663 579 582 553 647 l 488 693 b 682 685 544 688 614 685 b 888 693 750 685 828 688 l 888 663 b 797 432 822 646 797 581 l 797 257 b 889 26 797 107 824 42 l 889 -4 b 694 4 832 1 763 4 b 489 -4 626 4 549 1 l 489 26 b 579 257 554 43 579 108 l 579 319 l 344 319 l 344 257 b 436 26 344 107 371 42 l 436 -4 b 242 4 379 1 310 4 b 36 -4 174 4 96 1 l 36 26 b 126 257 101 43 126 108 l 126 432 b 35 663 126 582 100 647 l 35 693 b 229 685 92 688 161 685 b 435 693 297 685 375 688 l 435 663 b 344 432 369 646 344 581 l 344 403 "},"":{"ha":468,"x_min":0,"x_max":0,"o":"m 433 -4 b 240 4 376 1 308 4 b 35 -4 172 4 94 1 l 35 26 b 125 257 100 43 125 108 l 125 432 b 35 663 125 582 100 647 l 35 693 b 228 685 92 688 160 685 b 433 693 296 685 374 688 l 433 663 b 343 432 368 646 343 581 l 343 257 b 433 26 343 107 368 42 "},"":{"ha":624,"x_min":0,"x_max":0,"o":"m 222 219 b 194 124 201 182 194 157 b 236 54 194 76 211 54 b 288 201 272 54 288 97 l 288 432 b 196 663 288 582 261 647 l 196 693 b 390 685 253 688 322 685 b 596 693 458 685 536 688 l 596 663 b 506 432 531 646 506 581 l 506 264 b 472 75 506 151 499 115 b 201 -14 432 14 325 -14 b -7 103 49 -14 -7 32 b 154 228 -7 175 56 228 b 222 219 189 228 200 225 "},"":{"ha":865,"x_min":0,"x_max":0,"o":"m 436 -4 b 242 4 379 1 310 4 b 36 -4 174 4 96 1 l 36 26 b 126 257 101 43 126 108 l 126 432 b 35 663 126 582 100 647 l 35 693 b 229 685 92 688 161 685 b 435 693 297 685 375 688 l 435 663 b 344 432 369 646 344 581 l 344 257 b 436 26 344 107 371 42 m 514 401 b 661 286 575 388 619 349 l 754 151 b 893 26 800 85 854 36 l 893 -1 l 678 -1 b 533 92 607 -1 589 10 l 418 261 b 346 365 393 299 365 339 l 518 536 b 571 621 564 582 571 603 b 504 663 571 651 547 660 l 504 693 b 661 685 538 689 596 685 b 813 693 729 685 785 689 l 813 663 b 607 490 747 617 667 547 l 514 401 "},"":{"ha":717,"x_min":0,"x_max":0,"o":"m 708 196 b 632 -12 676 129 651 61 b 338 0 547 -6 435 0 l 181 0 b 36 -4 124 0 75 -1 l 36 26 b 126 257 101 43 126 108 l 126 432 b 35 663 126 582 100 647 l 35 693 b 229 685 92 688 161 685 b 435 693 297 685 375 688 l 435 663 b 344 432 369 646 344 581 l 344 200 b 431 61 344 143 347 61 b 651 226 515 61 583 104 "},"":{"ha":1088,"x_min":0,"x_max":0,"o":"m 640 461 b 715 693 668 540 694 618 b 875 685 754 689 814 685 b 1022 693 929 685 989 689 l 1022 663 b 957 517 958 653 957 569 b 960 442 957 492 957 468 l 972 258 b 1060 26 983 103 1008 42 l 1060 -4 b 883 4 1007 1 946 4 b 692 -4 824 4 758 1 l 692 26 b 767 146 743 39 767 75 b 763 240 767 178 764 210 l 746 496 l 694 354 b 593 -4 651 236 611 106 l 438 -4 l 264 496 l 246 229 b 243 153 244 203 243 178 b 326 26 243 86 254 49 l 326 -4 b 174 4 285 1 225 4 b 28 -4 117 4 75 1 l 28 26 b 142 228 115 33 133 124 l 163 511 b 165 565 164 528 165 551 b 92 663 165 635 149 657 l 92 693 b 242 685 129 689 186 685 b 404 693 297 685 363 689 b 463 489 417 624 439 554 l 557 219 "},"":{"ha":875,"x_min":0,"x_max":0,"o":"m 649 460 b 560 663 649 600 628 650 l 560 693 b 701 685 596 689 646 685 b 840 693 756 685 808 689 l 840 663 b 753 460 774 650 753 600 l 753 263 b 760 -4 753 174 756 64 l 563 -4 l 228 508 l 228 228 b 317 26 228 86 249 38 l 317 -4 b 174 4 269 1 221 4 b 35 -4 128 4 78 1 l 35 26 b 124 228 101 38 124 86 l 124 460 b 35 663 124 600 101 650 l 35 693 b 199 685 78 689 139 685 b 333 693 249 685 299 689 b 450 504 365 625 406 564 l 649 219 "},"":{"ha":893,"x_min":0,"x_max":0,"o":"m 844 349 b 433 -14 844 85 682 -14 b 49 342 192 -14 49 96 b 468 703 49 603 222 703 b 844 349 714 703 844 589 m 607 340 b 453 633 607 533 547 633 b 290 360 356 633 290 533 b 446 56 290 256 311 56 b 607 340 583 56 607 236 "},"":{"ha":718,"x_min":0,"x_max":0,"o":"m 343 257 b 456 26 343 108 356 40 l 456 -4 b 239 4 399 1 306 4 b 35 -4 169 4 93 1 l 35 26 b 125 257 100 43 125 108 l 125 432 b 35 663 125 582 100 647 l 35 693 b 221 685 88 688 161 685 b 461 693 271 685 385 693 b 704 535 600 693 704 671 b 397 297 704 389 593 297 b 343 300 371 297 351 299 m 343 372 b 363 369 347 371 356 369 b 475 510 436 369 475 426 b 386 622 475 575 439 622 b 343 611 364 622 353 618 l 343 372 "},"":{"ha":889,"x_min":0,"x_max":0,"o":"m 875 -78 b 803 -257 857 -150 828 -224 b 731 -287 788 -279 764 -287 b 179 -168 657 -287 333 -218 b 147 -178 167 -176 154 -178 b 129 -160 136 -178 129 -171 b 197 -89 129 -143 151 -119 b 289 -57 232 -64 257 -57 b 324 -58 299 -57 301 -57 b 438 -14 364 -47 400 -32 l 422 -14 b 49 346 172 -14 49 106 b 453 703 49 586 178 703 b 832 347 711 703 832 586 b 400 -74 832 57 619 -35 b 747 -137 497 -104 657 -137 b 847 -65 803 -137 826 -124 m 594 325 b 446 633 594 526 536 633 b 290 349 357 633 290 528 b 442 50 290 240 318 50 b 594 325 574 50 594 214 "},"":{"ha":836,"x_min":0,"x_max":0,"o":"m 343 257 b 431 26 343 108 364 38 l 431 -4 b 235 4 378 1 315 4 b 35 -4 157 4 96 1 l 35 26 b 125 257 100 43 125 108 l 125 432 b 35 663 125 582 100 647 l 35 693 b 226 685 72 689 153 685 b 450 693 283 685 372 693 b 718 535 600 693 718 672 b 522 350 718 443 654 378 b 675 257 607 342 640 322 l 736 149 b 857 26 783 65 811 38 l 857 -3 l 644 -3 b 553 42 586 -3 575 0 l 446 244 b 392 332 429 275 417 297 b 367 331 378 331 369 331 b 343 332 364 331 356 331 m 343 403 b 369 400 349 401 354 400 b 494 518 451 400 494 444 b 386 624 494 589 458 624 b 343 614 367 624 351 619 l 343 403 "},"":{"ha":665,"x_min":0,"x_max":0,"o":"m 528 471 b 368 635 506 578 444 635 b 278 558 311 635 278 607 b 407 433 278 499 300 478 b 617 213 531 382 617 342 b 279 -14 617 68 492 -14 b 49 29 164 -14 88 11 b 60 165 57 69 60 128 b 57 238 60 194 58 221 l 125 238 b 286 54 139 121 193 54 b 399 153 354 54 399 93 b 254 281 399 218 349 243 b 64 493 167 315 64 361 b 379 703 64 607 168 703 b 596 672 454 703 533 692 b 589 581 590 635 589 618 b 596 471 589 543 592 507 "},"":{"ha":722,"x_min":0,"x_max":0,"o":"m 467 257 b 557 26 467 107 492 42 l 557 -4 b 364 4 500 1 432 4 b 158 -4 296 4 218 1 l 158 26 b 249 257 224 43 249 108 l 249 619 b 69 486 144 619 103 593 l 14 486 b 28 696 25 557 28 628 b 249 689 76 692 165 689 l 467 689 b 690 696 556 689 646 692 b 708 486 692 628 699 556 l 651 486 b 467 619 621 586 583 619 "},"":{"ha":913,"x_min":0,"x_max":0,"o":"m 569 154 b 338 -14 511 35 432 -14 b 111 239 138 -14 111 94 l 111 432 b 21 663 111 582 86 647 l 21 693 b 214 685 78 688 146 685 b 419 693 282 685 360 688 l 419 663 b 329 432 354 646 329 581 l 329 290 b 421 142 329 225 332 142 b 569 225 469 142 518 163 l 569 432 b 479 663 569 582 544 647 l 479 693 b 672 685 536 688 604 685 b 878 693 740 685 818 688 l 878 663 b 788 432 813 646 788 581 l 788 257 b 878 26 788 107 813 42 l 878 -4 b 711 4 831 1 778 4 b 569 -7 658 4 603 -1 "},"":{"ha":772,"x_min":0,"x_max":0,"o":"m 547 471 b 583 596 563 508 583 565 b 517 663 583 635 565 651 l 517 693 b 663 685 551 689 608 685 b 793 693 714 685 757 689 l 793 663 b 636 449 717 649 663 517 l 556 249 b 478 -4 524 165 489 47 l 283 -4 l 118 429 b -21 663 89 503 33 642 l -21 693 b 160 685 22 689 93 685 b 353 693 224 685 304 689 l 353 663 b 290 606 310 658 290 640 b 324 485 290 571 301 543 l 435 188 "},"":{"ha":1164,"x_min":0,"x_max":0,"o":"m 499 164 b 458 -4 489 131 468 50 l 249 -4 l 106 425 b -21 663 68 539 28 631 l -21 693 b 169 685 32 689 107 685 b 365 693 233 685 314 689 l 365 663 b 294 600 315 658 294 644 b 315 507 294 581 300 551 l 419 197 l 525 529 b 438 663 501 604 472 649 l 438 693 b 618 685 479 689 550 685 b 808 693 686 685 760 689 l 808 663 b 736 592 756 657 736 644 b 776 432 736 561 743 533 l 857 197 l 940 454 b 975 594 964 531 975 565 b 904 663 975 642 953 658 l 904 693 b 1042 685 942 689 999 685 b 1185 693 1088 685 1146 689 l 1185 663 b 1043 461 1113 631 1069 533 l 958 199 b 910 -4 940 142 922 69 l 700 -4 l 567 404 "},"":{"ha":782,"x_min":0,"x_max":0,"o":"m 511 533 b 560 622 550 578 560 597 b 511 663 560 650 547 661 l 511 693 b 643 685 543 689 593 685 b 778 693 694 685 747 689 l 778 665 b 569 468 719 638 660 576 l 497 382 l 600 238 b 796 22 643 175 732 60 l 796 -4 b 610 4 739 1 676 4 b 413 -4 540 4 469 1 l 413 26 b 456 56 446 29 456 39 b 424 124 456 71 443 94 l 344 243 l 279 160 b 221 54 242 113 221 75 b 268 26 221 35 233 29 l 268 -4 b 121 4 222 1 176 4 b -14 -4 69 4 28 1 l -14 22 b 174 168 60 49 124 108 l 294 313 l 193 458 b -1 665 119 564 53 635 l -1 693 b 186 685 40 689 114 685 b 385 693 261 685 338 689 l 385 663 b 346 629 357 660 346 651 b 400 524 346 607 368 569 l 447 456 "},"":{"ha":736,"x_min":0,"x_max":0,"o":"m 489 494 b 539 617 525 554 539 589 b 488 663 539 651 525 661 l 488 693 b 626 685 522 689 582 685 b 750 693 671 685 722 689 l 750 663 b 579 476 685 636 626 553 l 486 325 l 486 257 b 576 26 486 107 511 42 l 576 -4 b 383 4 519 1 451 4 b 178 -4 315 4 238 1 l 178 26 b 268 257 243 43 268 108 l 268 282 l 151 476 b -14 663 113 542 47 632 l -14 693 b 168 685 24 689 101 685 b 367 693 231 685 319 689 l 367 663 b 325 625 335 661 325 654 b 372 510 325 588 356 542 l 432 404 "},"":{"ha":683,"x_min":0,"x_max":0,"o":"m 47 446 b 108 671 51 497 64 632 b 218 690 133 693 186 690 l 639 690 l 660 656 b 238 157 576 496 417 307 b 526 138 321 153 474 138 b 635 243 589 138 617 179 l 669 243 b 539 -14 660 139 643 -14 b 92 13 438 -14 231 10 b 38 -14 72 -7 51 -14 b 14 4 24 -14 14 -8 b 147 157 14 54 100 154 b 390 563 238 263 331 432 b 339 565 375 565 365 565 b 79 440 178 565 108 526 "},"":{"ha":985,"x_min":0,"x_max":0,"o":"m 649 397 l 669 397 b 764 472 708 397 744 404 l 822 472 b 813 360 815 436 813 410 b 822 240 813 313 817 272 l 764 240 b 676 321 740 307 713 321 l 649 321 l 649 213 b 739 63 649 96 667 63 b 926 226 810 63 883 146 l 985 197 b 906 -12 953 135 925 58 b 681 0 835 -4 756 0 l 521 0 b 342 -4 461 0 390 -1 l 342 26 b 435 224 411 36 435 83 l 435 321 l 268 321 l 190 181 b 151 78 164 133 151 107 b 218 26 151 43 169 31 l 218 -4 b 63 4 172 1 118 4 b -56 -4 11 4 -17 1 l -56 26 b 106 204 7 57 61 125 l 306 563 b 335 635 329 604 335 618 b 293 663 335 657 322 663 l 293 693 b 467 689 333 690 378 689 l 686 689 b 888 696 758 689 817 690 b 914 494 889 629 897 563 l 861 479 b 674 619 814 599 764 619 l 649 619 m 435 619 l 311 397 l 435 397 "},"":{"ha":1096,"x_min":0,"x_max":0,"o":"m 760 397 l 781 397 b 875 472 819 397 856 404 l 933 472 b 924 360 926 436 924 410 b 933 240 924 313 928 272 l 875 240 b 788 321 851 307 824 321 l 760 321 l 760 213 b 767 121 760 174 761 143 b 850 63 778 76 790 63 b 1038 226 921 63 983 125 l 1096 197 b 1017 -8 1064 135 1036 63 b 803 0 942 -1 878 0 b 554 0 615 0 571 0 b 433 -14 529 -7 488 -14 b 49 342 192 -14 49 96 b 468 703 49 603 222 703 b 586 689 519 703 558 696 l 797 689 b 999 696 869 689 928 690 b 1025 494 1000 629 1008 563 l 972 479 b 785 619 925 599 875 619 l 760 619 m 546 544 b 453 633 546 603 515 633 b 290 360 356 633 290 533 b 446 56 290 156 353 56 b 546 189 529 56 546 94 l 546 544 "},"":{"ha":903,"x_min":0,"x_max":0,"o":"m 126 313 b 44 306 94 313 67 310 l 35 317 l 63 389 l 126 389 l 126 465 b 39 665 126 604 106 653 l 39 693 b 213 683 72 689 126 683 b 489 693 271 683 365 693 b 854 353 740 693 854 596 b 467 -4 854 106 729 -4 b 200 4 369 -4 263 4 b 39 -4 142 4 85 1 l 39 24 b 126 224 106 36 126 85 l 126 313 m 344 222 b 447 61 344 124 349 61 b 625 335 571 61 625 153 b 426 622 625 529 563 622 b 344 604 383 622 357 613 l 344 389 l 472 389 l 482 376 l 447 306 b 344 313 429 310 383 313 "},"":{"ha":893,"x_min":0,"x_max":0,"o":"m 756 694 l 717 640 b 844 349 801 583 844 486 b 433 -14 844 85 682 -14 b 269 7 372 -14 317 -7 l 211 -75 l 142 -29 l 192 42 b 49 342 99 97 49 194 b 468 703 49 603 222 703 b 642 676 535 703 593 693 l 688 740 m 558 572 b 453 633 529 614 496 633 b 290 360 356 633 290 533 b 308 199 290 317 294 253 l 558 572 m 347 108 b 446 56 368 76 406 56 b 607 340 583 56 607 236 b 594 478 607 393 601 440 l 347 108 "},"":{"ha":731,"x_min":0,"x_max":0,"o":"m 428 667 b 343 551 381 665 346 614 b 504 569 376 563 419 569 b 717 408 636 569 717 517 b 429 176 717 267 608 176 b 343 181 400 176 376 176 b 453 22 347 67 376 26 l 453 -4 b 235 4 396 1 304 4 b 35 -4 167 4 90 1 l 35 22 b 125 224 103 35 125 85 l 125 464 b 35 667 125 604 103 656 l 35 693 b 236 685 103 688 181 685 b 428 693 294 685 382 689 m 343 250 b 368 247 351 249 360 247 b 488 383 440 247 488 304 b 389 500 488 457 453 500 b 343 492 365 500 354 497 "},"":{"ha":908,"x_min":0,"x_max":0,"o":"m 554 438 b 688 431 599 433 644 431 b 861 490 810 431 840 443 l 888 490 b 697 301 869 333 842 301 l 653 301 b 656 276 654 297 656 286 b 617 176 656 240 640 204 b 743 136 664 150 706 136 b 826 201 772 136 801 157 l 857 188 b 706 -14 810 29 769 -14 b 501 57 644 -14 578 8 b 281 -14 438 3 358 -14 b 28 179 121 -14 28 57 b 214 404 28 306 111 364 b 193 504 197 446 193 469 b 442 690 193 621 285 690 b 621 576 554 690 621 647 b 550 486 621 529 599 510 l 385 407 b 563 210 425 328 497 251 b 583 263 574 222 583 238 b 506 339 583 301 560 328 l 497 358 m 374 472 b 446 569 426 496 446 525 b 404 632 446 610 432 632 b 347 538 372 632 347 600 b 361 467 347 504 351 486 m 240 338 b 201 249 215 314 201 286 b 358 65 201 139 268 65 b 446 92 394 65 421 75 b 240 338 353 158 282 243 "},"":{"ha":368,"x_min":0,"x_max":0,"o":"m 138 243 l 100 265 b 78 658 103 396 96 531 b 289 703 169 667 238 681 l 319 675 b 253 296 283 553 258 413 m 172 206 b 285 94 240 206 285 158 b 172 -15 285 29 239 -15 b 63 94 107 -15 63 29 b 172 206 63 158 110 206 "},"":{"ha":368,"x_min":0,"x_max":0,"o":"m 231 443 l 268 421 b 290 28 265 290 272 156 b 79 -17 199 19 131 6 l 49 11 b 115 390 85 133 110 274 m 196 481 b 83 592 128 481 83 528 b 196 701 83 657 129 701 b 306 592 261 701 306 657 b 196 481 306 528 258 481 "},"":{"ha":586,"x_min":0,"x_max":0,"o":"m 406 293 b 213 235 349 258 285 235 b 142 300 163 235 142 261 b 251 413 142 342 188 375 b 340 543 303 443 340 475 b 279 646 340 613 313 646 b 226 575 249 646 226 614 b 251 489 226 535 240 504 b 160 468 221 474 190 468 b 28 571 65 468 28 506 b 318 704 28 644 129 704 b 558 556 482 704 558 649 b 449 418 558 497 521 458 b 338 331 374 376 338 354 b 365 307 338 310 351 307 b 394 315 375 307 388 311 m 279 194 b 388 86 340 194 388 147 b 279 -21 388 26 340 -21 b 169 86 219 -21 169 26 b 279 194 169 147 219 194 "},"":{"ha":586,"x_min":0,"x_max":0,"o":"m 181 390 b 374 449 238 425 301 449 b 444 383 424 449 444 422 b 335 271 444 342 399 308 b 246 140 283 240 246 208 b 307 38 246 71 274 38 b 360 108 338 38 360 69 b 335 194 360 149 346 179 b 426 215 365 210 396 215 b 558 113 521 215 558 178 b 268 -21 558 39 457 -21 b 28 128 104 -21 28 35 b 138 265 28 186 65 225 b 249 353 213 307 249 329 b 221 376 249 374 235 376 b 192 368 211 376 199 372 m 307 489 b 199 597 246 489 199 536 b 307 704 199 657 246 704 b 417 597 367 704 417 657 b 307 489 417 536 367 489 "},"":{"ha":829,"x_min":0,"x_max":0,"o":"m 783 343 b 408 -14 783 111 653 -14 b 46 331 169 -14 46 103 b 426 681 46 561 176 681 b 783 343 657 681 783 561 m 574 315 b 408 597 574 492 513 597 b 261 367 315 597 261 513 b 421 68 261 179 321 68 b 574 315 515 68 574 164 "},"":{"ha":610,"x_min":0,"x_max":0,"o":"m 543 665 b 471 403 492 613 471 536 l 471 257 b 563 26 471 108 497 42 l 563 -4 b 363 4 493 3 472 4 b 167 -4 254 4 233 3 l 167 26 b 258 257 232 42 258 107 l 258 438 b 39 338 190 392 119 356 l 83 511 b 518 704 242 549 382 617 "},"":{"ha":768,"x_min":0,"x_max":0,"o":"m 713 301 b 551 -14 678 86 640 -14 b 114 17 458 -14 350 15 b 46 -14 85 -4 65 -14 b 21 7 31 -14 21 -6 b 211 169 21 51 133 169 b 429 476 368 276 429 363 b 338 608 429 558 394 608 b 260 499 288 608 260 569 b 288 389 260 440 276 406 b 185 358 268 374 236 358 b 53 482 103 358 53 406 b 390 681 53 600 190 681 b 661 483 561 681 661 608 b 344 169 661 336 510 249 b 532 158 406 168 483 158 b 672 307 600 158 640 201 "},"":{"ha":749,"x_min":0,"x_max":0,"o":"m 503 274 b 693 44 639 238 693 172 b 299 -271 693 -154 538 -271 b 21 -110 121 -271 21 -215 b 200 44 21 -15 90 44 b 272 33 235 44 257 39 b 236 -92 247 -12 236 -47 b 321 -196 236 -160 265 -196 b 460 19 403 -196 460 -107 b 371 208 460 133 415 186 b 204 161 301 178 242 161 b 151 219 169 161 151 182 b 313 296 151 272 200 296 b 361 292 332 296 340 294 b 442 474 415 339 442 399 b 351 608 442 556 407 608 b 271 500 300 608 271 569 b 301 388 271 456 281 421 b 186 358 268 368 232 358 b 65 485 110 358 65 406 b 399 681 65 601 200 681 b 674 482 574 681 674 608 b 503 274 674 388 621 324 "},"":{"ha":857,"x_min":0,"x_max":0,"o":"m 657 -246 l 483 -271 l 457 -246 l 457 1 b 239 11 406 7 322 11 b 96 7 186 11 126 10 b 53 -14 83 -8 71 -14 b 17 25 31 -14 17 0 b 118 161 17 89 61 149 b 213 503 174 276 213 418 b 153 586 213 561 194 586 b 96 569 138 586 119 581 l 82 610 b 358 681 181 654 282 681 b 444 606 415 681 444 656 b 207 172 444 469 288 268 b 319 179 235 176 275 179 b 457 172 361 179 421 176 l 457 443 b 617 490 510 446 575 465 l 657 464 l 657 165 b 776 331 738 165 764 233 l 815 331 b 683 -11 815 239 813 -11 b 657 -10 675 -11 667 -11 "},"":{"ha":747,"x_min":0,"x_max":0,"o":"m 658 740 b 439 475 635 553 571 475 b 235 507 388 475 322 486 b 242 417 238 490 242 447 b 235 303 242 375 239 335 b 424 360 306 346 351 360 b 706 71 599 360 706 250 b 315 -271 706 -147 556 -271 b 42 -110 124 -271 42 -217 b 224 44 42 -12 110 44 b 296 35 264 44 281 40 b 257 -96 278 7 257 -33 b 342 -196 257 -160 288 -196 b 472 24 424 -196 472 -112 b 322 232 472 157 418 232 b 222 201 286 232 250 221 b 140 126 208 150 183 126 b 89 171 108 126 89 144 b 129 229 89 196 103 214 b 136 378 135 282 136 321 b 106 658 136 488 125 594 l 129 686 b 367 663 204 671 282 663 b 615 754 514 663 586 689 "},"":{"ha":811,"x_min":0,"x_max":0,"o":"m 581 914 b 278 364 386 790 278 597 b 415 58 278 161 331 58 b 536 260 494 58 536 136 b 417 428 536 364 490 428 b 376 419 400 428 389 425 l 351 468 b 547 536 404 511 475 536 b 765 304 683 536 765 458 b 415 -14 765 106 633 -14 b 46 336 181 -14 46 113 b 550 967 46 604 211 810 "},"":{"ha":729,"x_min":0,"x_max":0,"o":"m 26 361 b 194 681 47 563 72 681 b 579 667 286 681 378 667 b 664 668 643 667 614 665 b 722 694 681 688 706 694 b 753 661 742 694 753 682 b 638 515 753 599 696 526 b 386 -79 488 282 386 43 b 444 -162 386 -136 406 -162 b 465 -161 450 -162 454 -162 b 292 -279 424 -242 369 -279 b 165 -151 210 -279 165 -235 b 536 506 165 0 322 251 b 365 497 508 501 436 497 b 206 501 324 497 244 501 b 75 361 115 501 88 444 "},"":{"ha":783,"x_min":0,"x_max":0,"o":"m 533 544 b 738 281 681 481 738 406 b 369 -14 738 93 603 -14 b 46 218 153 -14 46 61 b 260 461 46 357 133 417 b 89 689 165 519 89 564 b 431 942 89 850 214 942 b 715 744 621 942 715 876 b 533 544 715 640 660 586 m 472 574 b 535 728 514 615 535 664 b 422 872 535 818 492 872 b 311 746 353 872 311 825 b 472 574 311 636 392 614 m 314 433 b 233 250 258 383 233 326 b 382 51 233 128 290 51 b 514 204 464 51 514 111 b 314 433 514 329 411 381 "},"":{"ha":810,"x_min":0,"x_max":0,"o":"m 231 -249 b 531 297 436 -106 531 69 b 394 610 531 501 476 610 b 275 417 317 610 275 531 b 383 257 275 315 314 257 b 432 269 401 257 414 260 l 457 219 b 264 151 400 174 339 151 b 43 374 125 151 43 233 b 401 681 43 563 181 681 b 763 325 632 681 763 551 b 260 -299 763 11 521 -179 "},"":{"ha":751,"x_min":0,"x_max":0,"o":"m 400 876 l 400 801 b 685 656 494 801 685 796 b 553 536 685 585 646 536 b 458 556 511 536 494 539 b 494 639 479 576 494 597 b 400 738 494 696 449 733 l 400 507 b 706 267 576 456 706 413 b 400 7 706 106 596 26 l 400 -89 l 331 -89 l 331 4 b 46 156 190 7 46 31 b 189 282 46 214 92 282 b 275 267 238 282 258 275 b 244 158 258 238 244 210 b 331 71 244 107 279 75 l 331 319 b 58 558 140 375 58 425 b 331 796 58 701 176 778 l 331 876 m 331 733 b 251 632 285 724 251 689 b 331 528 251 583 276 544 l 331 733 m 400 71 b 497 181 447 74 497 108 b 400 300 497 250 456 283 l 400 71 "},"":{"ha":736,"x_min":0,"x_max":0,"o":"m 431 758 l 431 668 b 469 669 447 669 461 669 b 663 542 592 669 663 626 b 519 394 663 456 597 394 b 486 396 510 394 496 394 b 500 489 496 426 500 454 b 431 608 500 561 474 606 l 431 150 b 469 147 449 147 456 147 b 657 244 535 147 601 176 l 694 213 b 431 19 636 114 536 33 l 431 -87 l 357 -87 l 357 17 b 56 294 172 28 56 121 b 357 660 56 493 163 622 l 357 758 m 357 601 b 263 375 306 579 263 499 b 357 175 263 235 325 190 l 357 601 "},"":{"ha":917,"x_min":0,"x_max":0,"o":"m 69 519 l 158 519 b 604 821 208 719 365 821 b 853 786 725 821 807 801 b 847 651 850 756 847 703 b 851 538 847 614 847 586 l 793 538 b 596 743 765 682 706 743 b 404 519 485 743 422 663 l 708 519 l 708 442 l 396 442 b 394 401 394 425 394 411 b 396 368 394 392 394 385 l 667 368 l 667 290 l 403 290 b 603 64 418 142 483 64 b 808 276 683 64 781 107 l 867 269 b 861 167 863 233 861 200 b 868 40 861 124 864 83 b 579 -14 799 13 715 -14 b 157 290 335 -14 197 90 l 28 290 l 28 368 l 147 368 b 146 396 146 382 146 389 b 149 442 146 411 147 431 l 69 442 "},"":{"ha":983,"x_min":0,"x_max":0,"o":"m 822 407 l 592 407 b 179 -262 525 -139 464 -262 b -64 -103 22 -262 -64 -210 b 101 50 -64 -8 4 50 b 190 38 143 50 171 46 b 151 -106 167 -1 151 -49 b 200 -186 151 -161 168 -186 b 361 407 261 -186 294 -97 l 183 407 l 183 478 l 375 478 b 751 857 411 693 460 857 b 967 714 890 857 967 810 b 810 558 967 621 897 558 b 742 571 782 558 767 561 b 767 689 753 596 767 640 b 718 783 767 749 751 783 b 603 478 656 783 628 669 l 822 478 "},"":{"ha":917,"x_min":0,"x_max":0,"o":"m 79 472 l 244 472 b 349 740 253 515 276 654 b 629 836 401 803 500 836 b 858 694 781 836 858 788 b 685 539 858 600 790 539 b 619 549 657 539 646 540 b 644 674 635 586 644 635 b 596 763 644 731 628 763 b 499 590 535 763 506 629 b 476 472 489 538 486 515 l 715 472 l 715 397 l 453 397 b 328 199 424 299 378 229 b 692 168 410 197 615 168 b 817 314 763 168 799 219 l 861 314 b 700 -14 835 69 788 -14 b 151 40 631 -14 463 40 b 50 -4 107 10 76 -4 b 14 32 26 -4 14 8 b 179 207 14 93 104 207 b 232 397 199 229 229 350 l 79 397 "},"":{"ha":872,"x_min":0,"x_max":0,"o":"m 606 592 b 649 710 640 646 649 682 b 579 772 649 749 625 771 l 579 811 b 724 803 635 806 671 803 b 858 811 772 803 818 806 l 858 772 b 703 599 796 746 754 679 l 635 492 l 828 492 l 828 414 l 589 414 l 556 350 l 556 326 l 828 326 l 828 249 l 556 249 l 556 235 b 672 35 556 114 593 54 l 672 -4 b 454 4 617 1 536 4 b 222 -4 369 4 293 1 l 222 35 b 342 233 307 47 342 114 l 342 249 l 72 249 l 72 326 l 331 326 l 279 414 l 72 414 l 72 492 l 240 492 l 203 550 b 14 772 106 701 71 750 l 14 811 b 222 803 68 806 157 803 b 426 811 300 803 371 806 l 426 772 b 357 721 392 772 357 753 b 397 608 357 681 376 643 l 504 431 "},"":{"ha":1164,"x_min":0,"x_max":0,"o":"m 392 11 b 215 -49 335 3 271 -17 l 204 -29 l 663 674 b 586 669 643 671 622 669 b 483 688 551 669 506 678 b 492 629 489 672 492 644 b 258 411 492 501 414 411 b 35 615 115 411 35 494 b 254 836 35 733 113 836 b 285 815 275 836 285 829 b 265 793 285 806 282 801 b 196 649 218 769 196 711 b 274 468 196 539 226 468 b 347 608 318 468 347 522 b 321 722 347 663 335 699 b 289 749 299 725 289 733 b 390 818 289 783 363 818 b 451 764 408 818 425 803 b 608 733 517 740 551 733 b 697 739 649 733 651 735 b 865 836 763 807 810 836 b 940 757 908 836 940 801 b 832 694 940 731 901 707 l 392 11 m 1108 201 b 865 -14 1108 69 1026 -14 b 640 197 721 -14 640 71 b 885 414 640 325 729 414 b 1108 201 1029 414 1108 328 m 951 171 b 871 353 951 263 918 353 b 801 218 826 353 801 289 b 881 43 801 131 833 43 b 951 171 947 43 951 131 "},"":{"ha":1692,"x_min":0,"x_max":0,"o":"m 392 11 b 215 -49 300 -3 285 -11 l 204 -29 l 663 674 b 586 669 643 671 622 669 b 483 688 551 669 506 678 b 492 635 489 672 492 650 b 258 411 492 501 414 411 b 35 615 115 411 35 494 b 254 836 35 733 113 836 b 285 815 275 836 285 829 b 265 793 285 806 282 801 b 196 649 218 769 196 711 b 274 468 196 556 226 468 b 347 608 318 468 347 540 b 321 722 347 667 332 706 b 289 749 299 725 289 733 b 390 818 289 783 363 818 b 451 764 408 818 425 803 b 608 733 517 740 551 733 b 697 739 649 733 651 735 b 865 836 763 807 810 836 b 940 757 908 836 940 801 b 832 694 940 731 901 707 l 392 11 m 1115 201 b 872 -14 1115 71 1047 -14 b 647 197 714 -14 647 71 b 892 414 647 325 722 414 b 1115 201 1050 414 1115 328 m 1636 201 b 1394 -14 1636 71 1568 -14 b 1168 197 1235 -14 1168 71 b 1413 414 1168 325 1243 414 b 1636 201 1571 414 1636 328 m 958 171 b 878 353 958 263 925 353 b 808 218 833 353 808 289 b 888 43 808 131 840 43 b 958 171 954 43 958 131 m 1479 171 b 1399 353 1479 263 1447 353 b 1329 218 1354 353 1329 289 b 1408 43 1329 131 1361 43 b 1479 171 1475 43 1479 131 "},"":{"ha":889,"x_min":0,"x_max":0,"o":"m 833 469 b 435 -14 833 182 746 -14 b 56 457 176 -14 56 136 b 458 940 56 778 190 940 b 833 469 715 940 833 792 m 589 419 b 436 868 589 689 528 868 b 304 504 313 868 304 579 b 460 53 304 417 318 53 b 589 419 542 53 589 183 "},"":{"ha":804,"x_min":0,"x_max":0,"o":"m 776 314 b 614 -14 767 222 743 -14 b 72 13 492 -14 317 13 b 26 -15 61 -6 46 -15 b 0 13 10 -15 0 -6 b 153 188 0 64 74 188 b 463 722 261 308 463 550 b 367 865 463 808 425 865 b 283 754 314 865 283 824 b 315 638 283 708 293 675 b 200 611 278 619 244 611 b 64 743 114 611 64 658 b 419 940 64 865 199 940 b 711 719 619 940 711 871 b 249 188 711 481 419 301 b 596 179 413 188 524 179 b 733 314 671 179 710 218 "},"":{"ha":818,"x_min":0,"x_max":0,"o":"m 551 531 b 742 299 679 500 742 425 b 310 -14 742 100 583 -14 b 35 144 122 -14 35 36 b 224 301 35 242 107 301 b 303 292 254 301 268 300 b 267 161 276 246 267 208 b 353 61 267 96 296 61 b 490 276 433 61 490 150 b 401 463 490 361 458 426 b 221 415 318 432 254 415 b 165 471 186 415 165 436 b 343 551 165 526 222 551 b 390 550 361 551 369 551 b 471 732 443 592 471 654 b 379 864 471 811 433 864 b 299 754 329 864 299 822 b 335 639 299 708 310 675 b 222 611 293 619 261 611 b 79 742 131 611 79 658 b 432 940 79 863 218 940 b 722 739 621 940 722 871 b 551 531 722 625 647 575 "},"":{"ha":889,"x_min":0,"x_max":0,"o":"m 679 4 l 490 -26 l 469 -7 l 469 199 b 235 210 392 208 313 210 b 86 206 185 210 136 208 b 50 182 75 189 65 182 b 14 225 29 182 14 201 b 115 374 14 292 58 357 b 228 756 179 510 228 675 b 169 846 228 815 208 846 b 113 829 153 846 136 842 l 99 867 b 364 940 192 913 293 940 b 472 864 438 940 472 915 b 199 381 472 747 272 481 b 321 389 249 388 279 389 b 469 381 369 389 413 388 l 469 668 b 643 724 532 676 588 692 l 679 690 l 679 369 b 803 531 749 372 786 424 l 840 531 b 700 188 840 433 840 188 l 679 188 "},"":{"ha":807,"x_min":0,"x_max":0,"o":"m 704 1007 b 461 724 686 810 613 724 b 247 753 394 724 326 733 b 254 665 253 718 254 706 b 247 560 254 624 253 606 b 457 617 325 601 383 617 b 749 328 638 617 749 507 b 318 -14 749 104 600 -14 b 49 146 135 -14 49 36 b 238 301 49 242 121 301 b 317 292 268 301 282 300 b 279 160 290 244 279 206 b 364 58 279 94 310 58 b 496 279 446 58 496 143 b 347 488 496 414 443 488 b 225 450 301 488 265 476 b 147 386 214 407 189 386 b 96 431 115 386 96 403 b 132 485 96 453 103 463 b 142 653 138 535 142 589 b 113 915 142 747 132 831 l 132 943 b 393 921 214 928 299 921 b 661 1007 478 921 615 919 "},"":{"ha":840,"x_min":0,"x_max":0,"o":"m 375 494 b 568 563 433 542 493 563 b 799 306 713 563 799 467 b 431 -14 799 100 667 -14 b 51 339 183 -14 51 108 b 576 974 51 610 233 829 l 604 915 b 301 374 404 778 301 594 b 440 58 301 183 357 58 b 563 272 514 58 563 143 b 436 454 563 392 518 454 b 399 449 422 454 413 453 l 375 494 "},"":{"ha":758,"x_min":0,"x_max":0,"o":"m 50 607 b 128 906 61 753 86 851 b 217 940 147 931 174 940 b 640 925 289 940 457 926 b 735 926 671 925 682 925 b 781 954 750 946 763 954 b 810 925 799 954 810 942 b 675 753 810 865 735 774 b 424 15 564 532 467 261 l 174 -25 l 157 7 b 569 753 224 258 400 556 b 415 746 518 747 467 746 b 236 750 365 746 294 750 b 93 607 151 750 108 707 "},"":{"ha":839,"x_min":0,"x_max":0,"o":"m 578 543 b 776 282 726 468 776 401 b 397 -14 776 89 644 -14 b 63 217 172 -14 63 61 b 271 461 63 339 121 407 b 101 688 144 532 101 590 b 463 940 101 849 233 940 b 753 744 654 940 753 874 b 578 543 753 624 676 581 m 503 578 b 563 731 543 615 563 664 b 453 869 563 819 522 869 b 340 746 382 869 340 824 b 503 578 340 636 425 621 m 339 425 b 261 244 285 376 261 324 b 408 53 261 125 317 53 b 542 203 489 53 542 111 b 339 425 542 325 438 376 "},"":{"ha":839,"x_min":0,"x_max":0,"o":"m 465 451 b 265 382 436 426 364 382 b 39 633 126 382 39 481 b 411 940 39 828 175 940 b 785 578 654 940 785 814 b 260 -51 785 313 619 114 l 231 10 b 536 558 422 140 536 319 b 394 868 536 743 479 868 b 274 669 325 868 274 785 b 404 489 274 556 322 489 b 443 497 419 489 433 492 l 465 451 "},"":{"ha":833,"x_min":0,"x_max":0,"o":"m 786 343 b 411 -14 786 111 656 -14 b 49 331 172 -14 49 103 b 429 681 49 561 179 681 b 786 343 660 681 786 561 m 576 315 b 411 597 576 492 515 597 b 264 367 318 597 264 513 b 424 68 264 179 324 68 b 576 315 518 68 576 164 "},"":{"ha":833,"x_min":0,"x_max":0,"o":"m 669 665 b 597 403 618 613 597 536 l 597 257 b 689 26 597 108 624 42 l 689 -4 b 489 4 626 1 569 4 b 238 -4 400 4 313 1 l 238 26 b 385 257 364 35 385 107 l 385 438 b 110 338 317 392 218 353 l 154 511 b 644 704 342 542 508 617 "},"":{"ha":833,"x_min":0,"x_max":0,"o":"m 743 301 b 582 -14 708 86 671 -14 b 144 17 489 -14 381 15 b 76 -14 115 -4 96 -14 b 51 7 61 -14 51 -6 b 242 169 51 51 164 169 b 460 476 399 276 460 363 b 368 608 460 558 425 608 b 290 499 318 608 290 569 b 318 389 290 440 307 406 b 215 358 299 374 267 358 b 83 482 133 358 83 406 b 421 681 83 600 221 681 b 692 483 592 681 692 608 b 375 169 692 336 540 249 b 563 158 436 168 514 158 b 703 307 631 158 671 201 "},"":{"ha":833,"x_min":0,"x_max":0,"o":"m 531 274 b 721 44 667 238 721 172 b 326 -271 721 -154 565 -271 b 49 -110 149 -271 49 -215 b 228 44 49 -15 118 44 b 300 33 263 44 285 39 b 264 -92 275 -12 264 -47 b 349 -196 264 -160 293 -196 b 488 19 431 -196 488 -107 b 399 208 488 133 443 186 b 232 161 329 178 269 161 b 179 219 197 161 179 182 b 340 296 179 272 228 296 b 389 292 360 296 368 294 b 469 474 443 339 469 399 b 379 608 469 556 435 608 b 299 500 328 608 299 569 b 329 388 299 456 308 421 b 214 358 296 368 260 358 b 93 485 138 358 93 406 b 426 681 93 601 228 681 b 701 482 601 681 701 608 b 531 274 701 388 649 324 "},"":{"ha":833,"x_min":0,"x_max":0,"o":"m 636 -246 l 463 -271 l 436 -246 l 436 1 b 218 11 385 7 301 11 b 89 7 165 11 119 10 b 46 -14 76 -8 64 -14 b 10 25 24 -14 10 0 b 111 161 10 89 54 149 b 192 503 167 276 192 418 b 132 586 192 561 174 586 b 75 569 117 586 99 581 l 61 610 b 338 681 160 654 261 681 b 424 606 394 681 424 656 b 200 172 424 469 281 268 b 313 179 228 176 268 179 b 436 172 354 179 400 176 l 436 443 b 596 490 489 446 554 465 l 636 464 l 636 165 b 756 331 717 165 743 233 l 794 331 b 663 -11 794 239 792 -11 b 636 -10 654 -11 646 -11 "},"":{"ha":833,"x_min":0,"x_max":0,"o":"m 696 740 b 476 475 672 553 608 475 b 272 507 425 475 360 486 b 279 417 275 490 279 447 b 272 303 279 375 276 335 b 461 360 343 346 389 360 b 743 71 636 360 743 250 b 353 -271 743 -147 593 -271 b 79 -110 161 -271 79 -217 b 261 44 79 -12 147 44 b 333 35 301 44 318 40 b 294 -96 315 7 294 -33 b 379 -196 294 -160 325 -196 b 510 24 461 -196 510 -112 b 360 232 510 157 456 232 b 260 201 324 232 288 221 b 178 126 246 150 221 126 b 126 171 146 126 126 144 b 167 229 126 196 140 214 b 174 378 172 282 174 321 b 143 658 174 488 163 594 l 167 686 b 404 663 242 671 319 663 b 653 754 551 663 624 689 "},"":{"ha":833,"x_min":0,"x_max":0,"o":"m 592 914 b 289 364 397 790 289 597 b 426 58 289 161 342 58 b 547 260 506 58 547 136 b 428 428 547 364 501 428 b 388 419 411 428 400 425 l 363 468 b 558 536 415 511 486 536 b 776 304 694 536 776 458 b 426 -14 776 106 644 -14 b 57 336 192 -14 57 113 b 561 967 57 604 222 810 "},"":{"ha":833,"x_min":0,"x_max":0,"o":"m 79 361 b 247 681 100 563 125 681 b 632 667 339 681 431 667 b 717 668 696 667 667 665 b 775 694 733 688 758 694 b 806 661 794 694 806 682 b 690 515 806 599 749 526 b 439 -79 540 282 439 43 b 497 -162 439 -136 458 -162 b 518 -161 503 -162 507 -162 b 344 -279 476 -242 422 -279 b 218 -151 263 -279 218 -235 b 589 506 218 0 375 251 b 418 497 561 501 489 497 b 258 501 376 497 297 501 b 128 361 168 501 140 444 "},"":{"ha":833,"x_min":0,"x_max":0,"o":"m 558 544 b 763 281 706 481 763 406 b 394 -14 763 93 628 -14 b 71 218 178 -14 71 61 b 285 461 71 357 158 417 b 114 689 190 519 114 564 b 456 942 114 850 239 942 b 740 744 646 942 740 876 b 558 544 740 640 685 586 m 497 574 b 560 728 539 615 560 664 b 447 872 560 818 517 872 b 336 746 378 872 336 825 b 497 574 336 636 417 614 m 339 433 b 258 250 283 383 258 326 b 407 51 258 128 315 51 b 539 204 489 51 539 111 b 339 433 539 329 436 381 "},"":{"ha":833,"x_min":0,"x_max":0,"o":"m 228 -249 b 528 297 433 -106 528 69 b 392 610 528 501 474 610 b 272 417 314 610 272 531 b 381 257 272 315 311 257 b 429 269 399 257 411 260 l 454 219 b 261 151 397 174 336 151 b 40 374 122 151 40 233 b 399 681 40 563 178 681 b 760 325 629 681 760 551 b 257 -299 760 11 518 -179 "},"":{"ha":833,"x_min":0,"x_max":0,"o":"m 442 876 l 442 801 b 726 656 536 801 726 796 b 594 536 726 585 688 536 b 500 556 553 536 536 539 b 536 639 521 576 536 597 b 442 738 536 696 490 733 l 442 507 b 747 267 618 456 747 413 b 442 7 747 106 638 26 l 442 -89 l 372 -89 l 372 4 b 88 156 232 7 88 31 b 231 282 88 214 133 282 b 317 267 279 282 300 275 b 286 158 300 238 286 210 b 372 71 286 107 321 75 l 372 319 b 100 558 182 375 100 425 b 372 796 100 701 218 778 l 372 876 m 372 733 b 293 632 326 724 293 689 b 372 528 293 583 318 544 l 372 733 m 442 71 b 539 181 489 74 539 108 b 442 300 539 250 497 283 l 442 71 "},"":{"ha":833,"x_min":0,"x_max":0,"o":"m 472 758 l 472 668 b 511 669 489 669 503 669 b 704 542 633 669 704 626 b 561 394 704 456 639 394 b 528 396 551 394 538 394 b 542 489 538 426 542 454 b 472 608 542 561 515 606 l 472 150 b 511 147 490 147 497 147 b 699 244 576 147 643 176 l 736 213 b 472 19 678 114 578 33 l 472 -87 l 399 -87 l 399 17 b 97 294 214 28 97 121 b 399 660 97 493 204 622 l 399 758 m 399 601 b 304 375 347 579 304 499 b 399 175 304 235 367 190 l 399 601 "},"":{"ha":833,"x_min":0,"x_max":0,"o":"m 39 519 l 128 519 b 574 821 178 719 335 821 b 822 786 694 821 776 801 b 817 651 819 756 817 703 b 821 538 817 614 817 586 l 763 538 b 565 743 735 682 675 743 b 374 519 454 743 392 663 l 678 519 l 678 442 l 365 442 b 364 401 364 425 364 411 b 365 368 364 392 364 385 l 636 368 l 636 290 l 372 290 b 572 64 388 142 453 64 b 778 276 653 64 750 107 l 836 269 b 831 167 832 233 831 200 b 838 40 831 124 833 83 b 549 -14 768 13 685 -14 b 126 290 304 -14 167 90 l -3 290 l -3 368 l 117 368 b 115 396 115 382 115 389 b 118 442 115 411 117 431 l 39 442 "},"":{"ha":833,"x_min":0,"x_max":0,"o":"m 764 407 l 533 407 b 121 -262 467 -139 406 -262 b -122 -103 -36 -262 -122 -210 b 43 50 -122 -8 -54 50 b 132 38 85 50 113 46 b 93 -106 108 -1 93 -49 b 142 -186 93 -161 110 -186 b 303 407 203 -186 236 -97 l 125 407 l 125 478 l 317 478 b 693 857 353 693 401 857 b 908 714 832 857 908 810 b 751 558 908 621 839 558 b 683 571 724 558 708 561 b 708 689 694 596 708 640 b 660 783 708 749 693 783 b 544 478 597 783 569 669 l 764 478 "},"":{"ha":833,"x_min":0,"x_max":0,"o":"m 32 472 l 197 472 b 301 740 206 515 229 654 b 582 836 354 803 453 836 b 811 694 733 836 811 788 b 638 539 811 600 743 539 b 572 549 610 539 599 540 b 597 674 588 586 597 635 b 549 763 597 731 581 763 b 451 590 488 763 458 629 b 429 472 442 538 439 515 l 668 472 l 668 397 l 406 397 b 281 199 376 299 331 229 b 644 168 363 197 568 168 b 769 314 715 168 751 219 l 814 314 b 653 -14 788 69 740 -14 b 104 40 583 -14 415 40 b 3 -4 60 10 29 -4 b -33 32 -21 -4 -33 8 b 132 207 -33 93 57 207 b 185 397 151 229 182 350 l 32 397 "},"":{"ha":833,"x_min":0,"x_max":0,"o":"m 586 592 b 629 710 621 646 629 682 b 560 772 629 749 606 771 l 560 811 b 704 803 615 806 651 803 b 839 811 753 803 799 806 l 839 772 b 683 599 776 746 735 679 l 615 492 l 808 492 l 808 414 l 569 414 l 536 350 l 536 326 l 808 326 l 808 249 l 536 249 l 536 235 b 653 35 536 114 574 54 l 653 -4 b 435 4 597 1 517 4 b 203 -4 350 4 274 1 l 203 35 b 322 233 288 47 322 114 l 322 249 l 53 249 l 53 326 l 311 326 l 260 414 l 53 414 l 53 492 l 221 492 l 183 550 b -6 772 86 701 51 750 l -6 811 b 203 803 49 806 138 803 b 407 811 281 803 351 806 l 407 772 b 338 721 372 772 338 753 b 378 608 338 681 357 643 l 485 431 "},"":{"ha":521,"x_min":0,"x_max":0,"o":"m 514 515 b 375 410 492 443 451 410 b 279 486 311 410 283 438 b 142 410 246 432 194 410 b 21 508 74 410 21 444 b 279 657 21 604 117 651 l 279 672 b 228 800 279 717 293 800 b 183 747 201 800 183 778 b 204 694 183 724 190 711 b 133 681 176 683 164 681 b 39 743 64 681 39 706 b 276 844 39 796 90 844 b 438 721 393 844 438 808 b 433 596 438 690 433 628 b 456 492 433 515 439 492 b 486 529 472 492 481 515 m 279 614 b 186 538 217 610 186 576 b 221 500 186 515 199 500 b 279 547 236 500 263 511 l 279 614 "},"":{"ha":564,"x_min":0,"x_max":0,"o":"m 56 472 l 56 900 b 0 1039 56 986 40 1025 l 0 1064 l 224 1072 b 215 858 217 1001 215 931 l 215 731 b 392 843 263 810 324 843 b 536 640 482 843 536 767 b 238 410 536 496 447 410 b 33 442 147 410 69 428 m 215 579 b 278 465 215 503 239 465 b 369 603 333 465 369 524 b 303 728 369 676 349 728 b 215 640 257 728 232 692 "},"":{"ha":586,"x_min":0,"x_max":0,"o":"m 519 1072 b 510 824 510 989 510 906 l 510 579 b 565 440 510 494 525 454 l 565 415 b 474 418 539 418 513 418 b 365 410 419 418 406 415 b 351 510 356 449 353 471 b 204 410 326 454 268 410 b 28 615 92 410 28 488 b 258 844 28 774 122 844 b 350 832 301 844 317 842 l 350 886 b 296 1039 350 985 336 1025 l 296 1064 l 519 1072 m 350 693 b 272 788 350 764 319 788 b 192 650 219 788 192 731 b 268 524 192 574 221 524 b 350 578 297 524 326 542 "},"":{"ha":507,"x_min":0,"x_max":0,"o":"m 189 640 b 189 635 189 639 189 636 b 315 489 194 540 238 489 b 450 557 367 489 414 519 l 479 532 b 253 410 428 454 357 410 b 28 615 131 410 28 486 b 281 844 28 760 125 844 b 463 704 404 844 463 774 b 456 640 463 676 458 654 l 189 640 m 300 700 b 303 728 301 704 303 715 b 257 794 303 764 288 794 b 189 694 215 794 192 757 "},"":{"ha":511,"x_min":0,"x_max":0,"o":"m 189 640 b 189 635 189 639 189 636 b 315 489 194 540 238 489 b 454 557 367 489 415 515 l 483 532 b 253 410 431 451 357 410 b 28 615 131 410 28 486 b 281 844 28 760 125 844 b 468 704 425 844 468 774 b 463 640 468 676 465 654 l 189 640 m 300 700 b 303 728 301 704 303 715 b 257 794 303 764 288 794 b 189 694 215 794 192 757 m 272 889 b 136 994 232 929 185 967 b 265 1081 154 1036 210 1074 b 324 913 297 1036 313 983 "},"":{"ha":506,"x_min":0,"x_max":0,"o":"m 151 596 b 36 718 83 610 36 649 b 238 844 36 801 111 844 b 371 825 290 844 331 842 b 457 907 426 829 457 858 b 519 833 497 894 519 871 b 457 768 519 797 506 768 b 421 775 444 768 438 769 b 432 721 426 764 432 747 b 228 592 432 636 356 592 b 218 592 224 592 221 592 b 188 557 201 582 188 571 b 278 535 188 539 213 536 b 492 410 432 532 492 503 b 213 240 492 307 392 240 b 14 333 78 240 14 274 b 125 426 14 379 40 410 b 42 496 67 440 42 460 b 151 596 42 536 71 563 m 281 714 b 232 796 281 757 261 796 b 186 729 203 796 186 764 b 238 642 186 685 207 642 b 281 714 265 642 281 676 m 364 360 b 257 411 364 397 332 411 b 151 351 178 411 151 388 b 246 300 151 318 186 300 b 364 360 317 300 364 317 "},"":{"ha":600,"x_min":0,"x_max":0,"o":"m 244 1072 b 235 860 238 1010 235 982 l 235 747 b 396 844 283 814 331 844 b 536 703 510 844 536 783 l 536 582 b 593 443 536 492 554 451 l 593 418 b 450 424 539 422 517 424 b 317 418 385 424 365 422 l 317 443 b 376 582 358 450 376 492 l 376 640 b 328 735 376 707 361 735 b 235 685 292 735 265 724 l 235 582 b 292 443 235 492 251 453 l 292 418 b 156 424 238 422 217 424 b 21 418 92 424 72 422 l 21 443 b 75 582 60 456 75 493 l 75 890 b 21 1040 75 958 72 1028 l 21 1065 l 244 1072 "},"":{"ha":313,"x_min":0,"x_max":0,"o":"m 242 840 b 236 678 236 788 236 735 l 236 581 b 292 443 236 496 251 454 l 292 418 b 153 424 236 422 206 424 b 21 418 101 424 64 421 l 21 443 b 76 581 63 454 76 496 l 76 658 b 21 810 76 700 79 793 l 21 835 l 242 840 m 165 1060 b 250 972 213 1060 250 1021 b 165 888 250 928 213 888 b 78 972 118 888 78 928 b 165 1060 78 1021 118 1060 "},"":{"ha":314,"x_min":0,"x_max":0,"o":"m 243 1072 b 235 864 236 1003 235 935 l 235 581 b 293 443 235 492 251 453 l 293 418 b 156 424 239 422 219 424 b 21 418 89 424 71 422 l 21 443 b 75 581 61 456 75 492 l 75 890 b 21 1042 75 931 79 1025 l 21 1067 l 243 1072 "},"":{"ha":914,"x_min":0,"x_max":0,"o":"m 238 750 b 407 844 288 817 351 844 b 540 750 486 844 522 815 b 715 844 589 817 649 844 b 849 683 838 844 849 763 l 849 579 b 907 443 849 492 864 451 l 907 418 b 767 425 864 421 822 425 b 632 418 717 425 696 424 l 632 443 b 689 579 672 453 689 492 l 689 640 b 621 738 689 679 686 738 b 540 683 594 738 567 719 l 540 579 b 601 443 540 492 558 449 l 601 418 b 463 425 558 421 519 425 b 326 418 411 425 392 424 l 326 443 b 385 579 369 453 385 492 l 385 640 b 325 738 385 704 367 738 b 238 683 292 738 264 719 l 238 579 b 296 443 238 492 254 454 l 296 418 b 156 425 253 421 208 425 b 21 418 104 425 83 424 l 21 443 b 78 579 63 453 78 492 l 78 658 b 21 810 78 707 82 794 l 21 835 l 238 840 "},"ⁿ":{"ha":629,"x_min":0,"x_max":0,"o":"m 236 743 b 415 844 286 821 354 844 b 539 715 503 844 539 804 l 539 581 b 601 443 539 492 558 451 l 601 418 b 457 422 558 419 513 422 b 319 418 401 422 379 422 l 319 443 b 379 581 364 451 379 492 l 379 642 b 314 736 379 696 369 736 b 236 685 283 736 254 717 l 236 581 b 292 443 236 492 251 451 l 292 418 b 150 422 250 419 201 422 b 21 418 101 422 82 422 l 21 443 b 76 581 63 453 76 492 l 76 658 b 21 810 76 718 81 796 l 21 835 l 236 842 "},"":{"ha":574,"x_min":0,"x_max":0,"o":"m 546 632 b 285 410 546 489 450 410 b 28 625 119 410 28 483 b 294 844 28 768 125 844 b 546 632 451 844 546 768 m 379 615 b 285 796 379 728 344 796 b 194 647 224 796 194 740 b 290 458 194 532 226 458 b 379 615 346 458 379 522 "},"":{"ha":453,"x_min":0,"x_max":0,"o":"m 238 729 b 385 846 268 811 325 846 b 467 774 436 846 467 818 b 339 669 467 721 425 678 b 350 707 347 681 350 693 b 314 744 350 726 338 744 b 258 703 292 744 269 725 b 238 585 246 678 238 636 b 304 443 238 489 257 447 l 304 418 b 164 424 240 424 218 424 b 21 418 113 424 90 424 l 21 443 b 78 585 61 456 78 497 l 78 653 b 21 807 78 693 81 792 l 21 832 l 238 842 "},"":{"ha":438,"x_min":0,"x_max":0,"o":"m 356 693 b 238 799 331 767 285 799 b 186 757 204 799 186 782 b 279 686 186 724 206 713 b 410 557 356 658 410 633 b 190 410 410 464 342 410 b 28 442 113 410 64 425 b 36 521 33 467 36 492 b 33 582 36 542 35 568 l 68 582 b 201 458 83 497 146 458 b 263 504 239 458 263 474 b 163 576 263 539 240 547 b 39 704 68 611 39 643 b 240 844 39 797 118 844 b 390 821 317 844 361 833 b 386 758 388 799 386 776 b 389 693 386 739 388 706 "},"":{"ha":369,"x_min":0,"x_max":0,"o":"m 357 819 l 331 768 b 231 771 299 769 263 771 l 231 644 b 315 469 231 501 247 469 b 351 476 328 469 335 471 l 363 436 b 208 410 317 419 263 410 b 71 560 92 410 71 460 l 71 771 b 15 768 51 771 35 769 l 7 813 b 192 993 107 844 158 899 l 240 993 b 231 831 236 939 232 886 l 349 831 "},"⁰":{"ha":597,"x_min":0,"x_max":0,"o":"m 563 819 b 292 529 563 649 482 529 b 35 814 136 529 35 619 b 307 1107 35 1007 147 1107 b 563 819 464 1107 563 1015 m 400 792 b 293 1050 400 940 364 1050 b 201 842 228 1050 201 949 b 308 583 201 693 242 583 b 400 792 372 583 400 664 "},"¹":{"ha":453,"x_min":0,"x_max":0,"o":"m 385 1090 b 336 913 344 1053 336 1022 l 336 724 b 411 572 336 613 353 581 l 411 535 b 267 540 358 539 328 540 b 94 535 201 540 161 539 l 94 574 b 176 724 158 575 176 610 l 176 946 b 14 889 108 913 81 903 l 51 1010 b 361 1129 126 1019 276 1076 "},"²":{"ha":549,"x_min":0,"x_max":0,"o":"m 515 739 b 401 529 499 606 482 529 b 67 544 332 529 238 544 b 35 528 53 532 46 528 b 8 553 18 528 8 538 b 108 664 8 583 61 664 b 300 969 232 790 300 899 b 246 1044 300 1017 279 1044 b 196 989 211 1044 196 1026 b 221 917 196 956 207 933 b 142 896 201 901 179 896 b 49 982 83 896 49 928 b 282 1107 49 1060 138 1107 b 474 968 411 1107 474 1061 b 204 665 474 867 408 793 b 393 660 274 665 343 660 b 472 739 436 660 457 681 "},"³":{"ha":528,"x_min":0,"x_max":0,"o":"m 251 871 b 299 976 279 888 299 929 b 244 1044 299 1021 279 1044 b 199 990 214 1044 199 1026 b 225 924 199 965 206 947 b 149 901 206 908 183 901 b 51 985 89 901 51 933 b 282 1107 51 1058 144 1107 b 474 981 407 1107 474 1063 b 382 853 474 922 450 889 b 486 721 454 829 486 790 b 213 529 486 600 389 529 b 24 632 89 529 24 563 b 154 732 24 694 74 732 b 207 724 178 732 186 731 b 179 640 186 690 179 669 b 228 590 179 606 194 590 b 311 708 279 590 311 636 b 261 808 311 753 293 792 b 151 782 204 789 175 782 b 106 821 124 782 106 797 b 251 871 106 858 143 871 "},"⁴":{"ha":567,"x_min":0,"x_max":0,"o":"m 442 540 l 325 521 l 306 538 l 306 654 b 179 661 271 658 229 661 b 74 658 136 661 100 660 b 46 644 63 647 57 644 b 14 678 28 644 14 658 b 81 772 14 719 44 761 b 150 990 122 856 150 944 b 124 1035 150 1019 143 1035 b 81 1021 113 1035 97 1031 l 64 1058 b 246 1107 119 1088 189 1107 b 317 1054 292 1107 317 1089 b 156 775 317 981 203 846 b 221 778 169 776 199 778 b 310 774 246 778 281 776 l 310 946 b 421 981 356 951 388 961 l 444 954 l 444 767 b 513 865 488 769 510 803 l 553 865 b 442 647 551 704 521 640 "},"⁵":{"ha":535,"x_min":0,"x_max":0,"o":"m 468 1150 b 311 963 461 1014 414 963 b 151 981 244 963 197 967 b 154 926 153 965 154 944 b 151 872 154 907 154 889 b 294 907 193 896 236 907 b 493 731 421 907 493 854 b 219 529 493 614 407 529 b 35 632 89 529 35 568 b 151 715 35 688 85 715 b 197 710 174 715 189 713 b 176 642 188 696 176 674 b 233 586 176 611 193 586 b 331 713 308 586 331 650 b 228 831 331 792 294 831 b 140 800 181 831 154 813 b 92 764 133 778 118 764 b 58 790 68 764 58 775 b 76 822 58 803 64 814 b 81 926 79 853 81 893 b 65 1088 81 981 76 1039 l 76 1104 b 271 1092 124 1096 188 1092 b 435 1150 364 1092 408 1100 "},"⁶":{"ha":560,"x_min":0,"x_max":0,"o":"m 408 1093 b 203 768 285 1017 203 904 b 293 588 203 663 226 588 b 374 707 351 588 374 639 b 306 811 374 789 340 811 b 282 807 299 811 290 810 l 260 842 b 379 885 279 860 318 885 b 535 735 454 885 535 853 b 294 529 535 615 440 529 b 35 746 143 529 35 601 b 386 1139 35 942 167 1054 "},"⁷":{"ha":478,"x_min":0,"x_max":0,"o":"m 21 900 b 69 1092 28 990 44 1058 b 124 1114 82 1107 99 1114 b 422 1103 199 1114 303 1103 b 465 1104 439 1103 451 1103 b 499 1122 475 1117 483 1122 b 517 1104 510 1122 517 1114 b 438 997 517 1068 474 1010 b 267 539 368 860 294 692 l 99 515 l 88 535 b 364 983 129 690 249 860 b 251 981 331 982 289 981 b 142 982 210 981 176 982 b 57 900 85 982 67 956 "},"⁸":{"ha":550,"x_min":0,"x_max":0,"o":"m 389 861 b 513 713 463 832 513 793 b 265 529 513 613 442 529 b 38 676 106 529 38 581 b 167 815 38 736 76 792 b 57 956 92 849 57 886 b 292 1107 57 1033 133 1107 b 493 988 428 1107 493 1060 b 389 861 493 918 450 881 m 326 890 b 363 979 346 906 363 939 b 288 1051 363 1021 336 1051 b 214 988 238 1051 214 1024 b 326 890 214 944 257 918 m 226 783 b 181 686 196 764 181 735 b 274 583 181 626 214 583 b 356 661 333 583 356 618 b 226 783 356 710 329 742 "},"⁹":{"ha":572,"x_min":0,"x_max":0,"o":"m 314 806 b 192 764 292 783 257 764 b 32 919 106 764 32 811 b 281 1107 32 1038 136 1107 b 538 883 443 1107 538 1029 b 188 497 538 721 428 588 l 165 543 b 371 872 289 622 371 725 b 271 1049 371 971 338 1049 b 190 942 219 1049 190 1000 b 272 836 190 875 221 836 b 294 842 281 836 289 839 "},"":{"ha":235,"x_min":0,"x_max":0,"o":"m 118 708 b 207 619 168 708 207 669 b 118 529 207 568 168 529 b 28 619 67 529 28 568 b 118 708 28 669 67 708 "},"":{"ha":297,"x_min":0,"x_max":0,"o":"m 28 675 b 174 718 68 697 124 718 b 249 651 228 718 249 696 b 85 458 249 571 178 500 l 61 489 b 99 592 85 519 99 553 b 40 650 99 622 86 650 "},"":{"ha":543,"x_min":0,"x_max":0,"o":"m 288 1157 l 288 1101 b 492 1000 357 1101 492 1097 b 394 915 492 951 464 915 b 331 929 367 915 357 917 b 357 986 346 944 357 956 b 288 1046 357 1028 322 1043 l 288 897 b 506 725 421 860 506 828 b 288 540 506 614 426 553 l 288 472 l 240 472 l 240 539 b 38 644 139 540 38 556 b 139 735 38 686 71 735 b 200 722 167 735 186 731 b 179 654 186 701 179 682 b 240 594 179 615 204 597 l 240 761 b 47 928 119 796 47 824 b 240 1097 47 1025 124 1086 l 240 1157 m 240 1043 b 178 981 204 1039 178 1017 b 240 907 178 940 196 918 l 240 1043 m 288 594 b 367 667 326 596 367 615 b 288 751 367 713 338 738 l 288 594 "},"":{"ha":513,"x_min":0,"x_max":0,"o":"m 299 1103 l 299 1033 b 328 1035 315 1035 324 1035 b 456 953 419 1035 456 1004 b 351 860 456 893 401 860 b 331 861 346 860 339 860 b 340 919 336 876 340 897 b 299 994 340 967 324 992 l 299 704 b 321 703 307 703 317 703 b 454 765 364 703 415 721 l 478 744 b 299 624 425 672 369 635 l 299 542 l 244 542 l 244 621 b 42 803 124 628 42 675 b 244 1028 42 917 110 1003 l 244 1103 m 244 990 b 188 847 211 975 188 926 b 244 715 188 793 199 749 l 244 990 "},"":{"ha":347,"x_min":0,"x_max":0,"o":"m 319 804 b 28 704 231 779 106 736 l 28 831 b 319 926 126 857 224 889 "},"⁽":{"ha":396,"x_min":0,"x_max":0,"o":"m 361 1185 b 264 811 288 1131 264 1014 b 361 414 264 569 292 472 l 344 379 b 97 803 111 447 97 619 b 351 1221 97 988 124 1167 l 361 1185 "},"⁾":{"ha":396,"x_min":0,"x_max":0,"o":"m 44 1221 b 299 803 272 1167 299 988 b 51 379 299 619 285 447 l 35 414 b 132 811 104 472 132 569 b 35 1185 132 1014 108 1131 l 44 1221 "},"₀":{"ha":597,"x_min":0,"x_max":0,"o":"m 563 110 b 292 -181 563 -61 482 -181 b 35 104 136 -181 35 -90 b 307 397 35 297 147 397 b 563 110 464 397 563 306 m 400 82 b 293 340 400 231 364 340 b 201 132 228 340 201 239 b 308 -126 201 -17 242 -126 b 400 82 372 -126 400 -46 "},"₁":{"ha":453,"x_min":0,"x_max":0,"o":"m 385 378 b 336 200 344 340 336 310 l 336 11 b 411 -140 336 -100 353 -132 l 411 -178 b 267 -172 358 -174 328 -172 b 94 -178 201 -172 161 -174 l 94 -139 b 176 11 158 -137 176 -103 l 176 233 b 14 176 108 200 81 190 l 51 297 b 361 417 126 307 276 364 "},"₂":{"ha":549,"x_min":0,"x_max":0,"o":"m 515 31 b 401 -179 499 -103 482 -179 b 67 -164 332 -179 238 -164 b 35 -181 53 -176 46 -181 b 8 -156 18 -181 8 -171 b 108 -44 8 -125 61 -44 b 300 261 232 82 300 190 b 246 336 300 308 279 336 b 196 281 211 336 196 318 b 221 208 196 247 207 225 b 142 188 201 193 179 188 b 49 274 83 188 49 219 b 282 399 49 351 138 399 b 474 260 411 399 474 353 b 204 -43 474 158 408 85 b 393 -49 274 -43 343 -49 b 472 31 436 -49 457 -28 "},"₃":{"ha":528,"x_min":0,"x_max":0,"o":"m 382 143 b 486 11 454 119 486 81 b 213 -181 486 -110 389 -181 b 24 -78 89 -181 24 -147 b 154 22 24 -15 74 22 b 207 14 178 22 186 21 b 179 -69 186 -19 179 -40 b 228 -119 179 -104 194 -119 b 311 -1 279 -119 311 -74 b 261 99 311 43 293 82 b 151 72 204 79 175 72 b 106 111 124 72 106 88 b 251 161 106 149 143 161 b 299 267 279 178 299 219 b 244 335 299 311 279 335 b 199 281 214 335 199 317 b 225 214 199 256 206 238 b 149 192 206 199 183 192 b 51 275 89 192 51 224 b 282 397 51 349 144 397 b 474 271 407 397 474 353 b 382 143 474 213 450 179 "},"₄":{"ha":567,"x_min":0,"x_max":0,"o":"m 442 -164 l 325 -183 l 306 -167 l 306 -50 b 179 -43 271 -46 229 -43 b 74 -46 136 -43 100 -44 b 46 -60 63 -57 57 -60 b 14 -26 28 -60 14 -46 b 81 68 14 15 44 57 b 150 286 122 151 150 240 b 124 331 150 315 143 331 b 81 317 113 331 97 326 l 64 354 b 246 403 119 383 189 403 b 317 350 292 403 317 385 b 156 71 317 276 203 142 b 221 74 169 72 199 74 b 310 69 246 74 281 72 l 310 242 b 421 276 356 247 388 257 l 444 250 l 444 63 b 513 161 488 65 510 99 l 553 161 b 442 -57 551 0 521 -64 "},"₅":{"ha":535,"x_min":0,"x_max":0,"o":"m 468 440 b 311 253 461 304 414 253 b 151 271 244 253 197 257 b 154 217 153 256 154 235 b 151 163 154 197 154 179 b 294 197 193 186 236 197 b 493 21 421 197 493 144 b 219 -181 493 -96 407 -181 b 35 -78 89 -181 35 -142 b 151 6 35 -22 85 6 b 197 0 174 6 189 3 b 176 -68 188 -14 176 -36 b 233 -124 176 -99 193 -124 b 331 3 308 -124 331 -60 b 228 121 331 82 294 121 b 140 90 181 121 154 103 b 92 54 133 68 118 54 b 58 81 68 54 58 65 b 76 113 58 93 64 104 b 81 217 79 143 81 183 b 65 378 81 271 76 329 l 76 394 b 271 382 124 386 188 382 b 435 440 364 382 408 390 "},"₆":{"ha":560,"x_min":0,"x_max":0,"o":"m 408 383 b 203 58 285 307 203 194 b 293 -122 203 -47 226 -122 b 374 -3 351 -122 374 -71 b 306 101 374 79 340 101 b 282 97 299 101 290 100 l 260 132 b 379 175 279 150 318 175 b 535 25 454 175 535 143 b 294 -181 535 -94 440 -181 b 35 36 143 -181 35 -108 b 386 429 35 232 167 344 "},"₇":{"ha":478,"x_min":0,"x_max":0,"o":"m 21 199 b 69 390 28 289 44 357 b 124 413 82 406 99 413 b 422 401 199 413 303 401 b 465 403 439 401 451 401 b 499 421 475 415 483 421 b 517 403 510 421 517 413 b 438 296 517 367 474 308 b 267 -162 368 158 294 -10 l 99 -186 l 88 -167 b 364 282 129 -11 249 158 b 251 279 331 281 289 279 b 142 281 210 279 176 281 b 57 199 85 281 67 254 "},"₈":{"ha":550,"x_min":0,"x_max":0,"o":"m 389 151 b 513 3 463 122 513 83 b 265 -181 513 -97 442 -181 b 38 -33 106 -181 38 -129 b 167 106 38 26 76 82 b 57 246 92 139 57 176 b 292 397 57 324 133 397 b 493 278 428 397 493 350 b 389 151 493 208 450 171 m 326 181 b 363 269 346 196 363 229 b 288 342 363 311 336 342 b 214 278 238 342 214 314 b 326 181 214 235 257 208 m 226 74 b 181 -24 196 54 181 25 b 274 -126 181 -83 214 -126 b 356 -49 333 -126 356 -92 b 226 74 356 0 329 32 "},"₉":{"ha":572,"x_min":0,"x_max":0,"o":"m 314 101 b 192 60 292 79 257 60 b 32 215 106 60 32 107 b 281 403 32 333 136 403 b 538 179 443 403 538 325 b 188 -207 538 17 428 -117 l 165 -161 b 371 168 289 -82 371 21 b 271 344 371 267 338 344 b 190 238 219 344 190 296 b 272 132 190 171 221 132 b 294 138 281 132 289 135 "},"":{"ha":235,"x_min":0,"x_max":0,"o":"m 118 6 b 207 -83 168 6 207 -33 b 118 -174 207 -135 168 -174 b 28 -83 67 -174 28 -135 b 118 6 28 -33 67 6 "},"":{"ha":297,"x_min":0,"x_max":0,"o":"m 28 -37 b 174 6 68 -15 124 6 b 249 -61 228 6 249 -17 b 85 -254 249 -142 178 -212 l 61 -224 b 99 -121 85 -193 99 -160 b 40 -62 99 -90 86 -62 "},"":{"ha":543,"x_min":0,"x_max":0,"o":"m 288 453 l 288 397 b 492 296 357 397 492 393 b 394 211 492 247 464 211 b 331 225 367 211 357 213 b 357 282 346 240 357 251 b 288 342 357 324 322 339 l 288 193 b 506 21 421 156 506 124 b 288 -164 506 -90 426 -151 l 288 -232 l 240 -232 l 240 -165 b 38 -60 139 -164 38 -149 b 139 31 38 -18 71 31 b 200 18 167 31 186 26 b 179 -50 186 -3 179 -22 b 240 -110 179 -89 204 -107 l 240 57 b 47 224 119 92 47 119 b 240 393 47 321 124 382 l 240 453 m 240 339 b 178 276 204 335 178 313 b 240 203 178 236 196 214 l 240 339 m 288 -110 b 367 -37 326 -108 367 -89 b 288 47 367 8 338 33 l 288 -110 "},"":{"ha":513,"x_min":0,"x_max":0,"o":"m 299 390 l 299 321 b 328 321 313 321 324 321 b 456 240 419 321 456 292 b 351 147 456 181 401 147 b 331 149 346 147 339 147 b 340 207 336 164 340 185 b 299 282 340 254 324 279 l 299 -8 b 321 -10 307 -10 317 -10 b 454 53 364 -10 415 8 l 478 32 b 299 -89 425 -40 369 -78 l 299 -171 l 244 -171 l 244 -92 b 42 90 124 -85 42 -37 b 244 315 42 204 110 290 l 244 390 m 244 278 b 188 135 211 263 188 214 b 244 3 188 81 199 36 l 244 278 "},"":{"ha":347,"x_min":0,"x_max":0,"o":"m 319 122 b 28 22 231 97 106 54 l 28 149 b 319 244 126 175 224 207 "},"₍":{"ha":396,"x_min":0,"x_max":0,"o":"m 361 492 b 264 118 288 438 264 321 b 361 -279 264 -124 292 -221 l 344 -314 b 97 110 111 -246 97 -74 b 351 528 97 294 124 474 l 361 492 "},"₎":{"ha":396,"x_min":0,"x_max":0,"o":"m 44 528 b 299 110 272 474 299 294 b 51 -314 299 -74 285 -246 l 35 -279 b 132 118 104 -221 132 -124 b 35 492 132 321 108 438 l 44 528 "},"":{"ha":597,"x_min":0,"x_max":0,"o":"m 563 651 b 292 361 563 481 482 361 b 35 646 136 361 35 451 b 307 939 35 839 147 939 b 563 651 464 939 563 847 m 400 624 b 293 882 400 772 364 882 b 201 674 228 882 201 781 b 308 415 201 525 242 415 b 400 624 372 415 400 496 "},"":{"ha":453,"x_min":0,"x_max":0,"o":"m 385 921 b 336 743 344 883 336 853 l 336 554 b 411 403 336 443 353 411 l 411 365 b 267 371 358 369 328 371 b 94 365 201 371 161 369 l 94 404 b 176 554 158 406 176 440 l 176 776 b 14 719 108 743 81 733 l 51 840 b 361 960 126 850 276 907 "},"":{"ha":549,"x_min":0,"x_max":0,"o":"m 515 572 b 401 363 499 439 482 363 b 67 378 332 363 238 378 b 35 361 53 365 46 361 b 8 386 18 361 8 371 b 108 497 8 417 61 497 b 300 803 232 624 300 732 b 246 878 300 850 279 878 b 196 822 211 878 196 860 b 221 750 196 789 207 767 b 142 729 201 735 179 729 b 49 815 83 729 49 761 b 282 940 49 893 138 940 b 474 801 411 940 474 894 b 204 499 474 700 408 626 b 393 493 274 499 343 493 b 472 572 436 493 457 514 "},"":{"ha":528,"x_min":0,"x_max":0,"o":"m 382 685 b 486 553 454 661 486 622 b 213 361 486 432 389 361 b 24 464 89 361 24 394 b 154 564 24 526 74 564 b 207 556 178 564 186 563 b 179 472 186 522 179 501 b 228 422 179 438 194 422 b 311 540 279 422 311 468 b 261 640 311 585 293 624 b 151 614 204 621 175 614 b 106 653 124 614 106 629 b 251 703 106 690 143 703 b 299 808 279 719 299 761 b 244 876 299 853 279 876 b 199 822 214 876 199 858 b 225 756 199 797 206 779 b 149 733 206 740 183 733 b 51 817 89 733 51 765 b 282 939 51 890 144 939 b 474 813 407 939 474 894 b 382 685 474 754 450 721 "},"":{"ha":567,"x_min":0,"x_max":0,"o":"m 442 378 l 325 358 l 306 375 l 306 492 b 179 499 271 496 229 499 b 74 496 136 499 100 497 b 46 482 63 485 57 482 b 14 515 28 482 14 496 b 81 610 14 557 44 599 b 150 828 122 693 150 782 b 124 872 150 857 143 872 b 81 858 113 872 97 868 l 64 896 b 246 944 119 925 189 944 b 317 892 292 944 317 926 b 156 613 317 818 203 683 b 221 615 169 614 199 615 b 310 611 246 615 281 614 l 310 783 b 421 818 356 789 388 799 l 444 792 l 444 604 b 513 703 488 607 510 640 l 553 703 b 442 485 551 542 521 478 "},"":{"ha":535,"x_min":0,"x_max":0,"o":"m 468 982 b 311 794 461 846 414 794 b 151 813 244 794 197 799 b 154 758 153 797 154 776 b 151 704 154 739 154 721 b 294 739 193 728 236 739 b 493 563 421 739 493 686 b 219 361 493 446 407 361 b 35 464 89 361 35 400 b 151 547 35 519 85 547 b 197 542 174 547 189 544 b 176 474 188 528 176 506 b 233 418 176 443 193 418 b 331 544 308 418 331 482 b 228 663 331 624 294 663 b 140 632 181 663 154 644 b 92 596 133 610 118 596 b 58 622 68 596 58 607 b 76 654 58 635 64 646 b 81 758 79 685 81 725 b 65 919 81 813 76 871 l 76 936 b 271 924 124 928 188 924 b 435 982 364 924 408 932 "},"":{"ha":560,"x_min":0,"x_max":0,"o":"m 408 925 b 203 600 285 849 203 736 b 293 419 203 494 226 419 b 374 539 351 419 374 471 b 306 643 374 621 340 643 b 282 639 299 643 290 642 l 260 674 b 379 717 279 692 318 717 b 535 567 454 717 535 685 b 294 361 535 447 440 361 b 35 578 143 361 35 433 b 386 971 35 774 167 886 "},"":{"ha":478,"x_min":0,"x_max":0,"o":"m 21 738 b 69 929 28 828 44 896 b 124 951 82 944 99 951 b 422 940 199 951 303 940 b 465 942 439 940 451 940 b 499 960 475 954 483 960 b 517 942 510 960 517 951 b 438 835 517 906 474 847 b 267 376 368 697 294 529 l 99 353 l 88 372 b 364 821 129 528 249 697 b 251 818 331 819 289 818 b 142 819 210 818 176 819 b 57 738 85 819 67 793 "},"":{"ha":550,"x_min":0,"x_max":0,"o":"m 389 693 b 513 544 463 664 513 625 b 265 361 513 444 442 361 b 38 508 106 361 38 413 b 167 647 38 568 76 624 b 57 788 92 681 57 718 b 292 939 57 865 133 939 b 493 819 428 939 493 892 b 389 693 493 750 450 713 m 326 722 b 363 811 346 738 363 771 b 288 883 363 853 336 883 b 214 819 238 883 214 856 b 326 722 214 776 257 750 m 226 615 b 181 518 196 596 181 567 b 274 415 181 458 214 415 b 356 493 333 415 356 450 b 226 615 356 542 329 574 "},"":{"ha":572,"x_min":0,"x_max":0,"o":"m 314 638 b 192 596 292 615 257 596 b 32 751 106 596 32 643 b 281 939 32 869 136 939 b 538 715 443 939 538 861 b 188 329 538 553 428 419 l 165 375 b 371 704 289 454 371 557 b 271 881 371 803 338 881 b 190 774 219 881 190 832 b 272 668 190 707 221 668 b 294 674 281 668 289 671 "},"":{"ha":235,"x_min":0,"x_max":0,"o":"m 118 540 b 207 451 168 540 207 501 b 118 361 207 400 168 361 b 28 451 67 361 28 400 b 118 540 28 501 67 540 "},"":{"ha":297,"x_min":0,"x_max":0,"o":"m 28 497 b 174 540 68 519 124 540 b 249 474 228 540 249 518 b 85 281 249 393 178 322 l 61 311 b 99 414 85 342 99 375 b 40 472 99 444 86 472 "},"":{"ha":543,"x_min":0,"x_max":0,"o":"m 288 990 l 288 935 b 492 833 357 935 492 931 b 394 749 492 785 464 749 b 331 763 367 749 357 750 b 357 819 346 778 357 789 b 288 879 357 861 322 876 l 288 731 b 506 558 421 693 506 661 b 288 374 506 447 426 386 l 288 306 l 240 306 l 240 372 b 38 478 139 374 38 389 b 139 568 38 519 71 568 b 200 556 167 568 186 564 b 179 488 186 535 179 515 b 240 428 179 449 204 431 l 240 594 b 47 761 119 629 47 657 b 240 931 47 858 124 919 l 240 990 m 240 876 b 178 814 204 872 178 850 b 240 740 178 774 196 751 l 240 876 m 288 428 b 367 500 326 429 367 449 b 288 585 367 546 338 571 l 288 428 "},"":{"ha":513,"x_min":0,"x_max":0,"o":"m 299 936 l 299 867 b 328 868 315 868 324 868 b 456 786 419 868 456 838 b 351 693 456 726 401 693 b 331 694 346 693 339 693 b 340 753 336 710 340 731 b 299 828 340 800 324 825 l 299 538 b 321 536 307 536 317 536 b 454 599 364 536 415 554 l 478 578 b 299 457 425 506 369 468 l 299 375 l 244 375 l 244 454 b 42 636 124 461 42 508 b 244 861 42 750 110 836 l 244 936 m 244 824 b 188 681 211 808 188 760 b 244 549 188 626 199 582 l 244 824 "},"":{"ha":347,"x_min":0,"x_max":0,"o":"m 319 638 b 28 538 231 613 106 569 l 28 664 b 319 760 126 690 224 722 "},"":{"ha":396,"x_min":0,"x_max":0,"o":"m 361 1018 b 264 644 288 964 264 847 b 361 247 264 403 292 306 l 344 213 b 97 636 111 281 97 453 b 351 1054 97 821 124 1000 l 361 1018 "},"":{"ha":396,"x_min":0,"x_max":0,"o":"m 44 1054 b 299 636 272 1000 299 821 b 51 213 299 453 285 281 l 35 247 b 132 644 104 306 132 403 b 35 1018 132 847 108 964 l 44 1054 "},"":{"ha":597,"x_min":0,"x_max":0,"o":"m 563 276 b 292 -14 563 106 482 -14 b 35 271 136 -14 35 76 b 307 564 35 464 147 564 b 563 276 464 564 563 472 m 400 249 b 293 507 400 397 364 507 b 201 299 228 507 201 406 b 308 40 201 150 242 40 b 400 249 372 40 400 121 "},"":{"ha":453,"x_min":0,"x_max":0,"o":"m 385 551 b 336 374 344 514 336 483 l 336 185 b 411 33 336 74 353 42 l 411 -4 b 267 1 358 0 328 1 b 94 -4 201 1 161 0 l 94 35 b 176 185 158 36 176 71 l 176 407 b 14 350 108 374 81 364 l 51 471 b 361 590 126 481 276 538 "},"":{"ha":549,"x_min":0,"x_max":0,"o":"m 515 197 b 401 -12 499 64 482 -12 b 67 3 332 -12 238 3 b 35 -14 53 -10 46 -14 b 8 11 18 -14 8 -4 b 108 122 8 42 61 122 b 300 428 232 249 300 357 b 246 503 300 475 279 503 b 196 447 211 503 196 485 b 221 375 196 414 207 392 b 142 354 201 360 179 354 b 49 440 83 354 49 386 b 282 565 49 518 138 565 b 474 426 411 565 474 519 b 204 124 474 325 408 251 b 393 118 274 124 343 118 b 472 197 436 118 457 139 "},"":{"ha":528,"x_min":0,"x_max":0,"o":"m 382 310 b 486 178 454 286 486 247 b 213 -14 486 57 389 -14 b 24 89 89 -14 24 19 b 154 189 24 151 74 189 b 207 181 178 189 186 188 b 179 97 186 147 179 126 b 228 47 179 63 194 47 b 311 165 279 47 311 93 b 261 265 311 210 293 249 b 151 239 204 246 175 239 b 106 278 124 239 106 254 b 251 328 106 315 143 328 b 299 433 279 344 299 386 b 244 501 299 478 279 501 b 199 447 214 501 199 483 b 225 381 199 422 206 404 b 149 358 206 365 183 358 b 51 442 89 358 51 390 b 282 564 51 515 144 564 b 474 438 407 564 474 519 b 382 310 474 379 450 346 "},"":{"ha":567,"x_min":0,"x_max":0,"o":"m 442 4 l 325 -15 l 306 1 l 306 118 b 179 125 271 122 229 125 b 74 122 136 125 100 124 b 46 108 63 111 57 108 b 14 142 28 108 14 122 b 81 236 14 183 44 225 b 150 454 122 319 150 408 b 124 499 150 483 143 499 b 81 485 113 499 97 494 l 64 522 b 246 571 119 551 189 571 b 317 518 292 571 317 553 b 156 239 317 444 203 310 b 221 242 169 240 199 242 b 310 238 246 242 281 240 l 310 410 b 421 444 356 415 388 425 l 444 418 l 444 231 b 513 329 488 233 510 267 l 553 329 b 442 111 551 168 521 104 "},"":{"ha":535,"x_min":0,"x_max":0,"o":"m 468 607 b 311 419 461 471 414 419 b 151 438 244 419 197 424 b 154 383 153 422 154 401 b 151 329 154 364 154 346 b 294 364 193 353 236 364 b 493 188 421 364 493 311 b 219 -14 493 71 407 -14 b 35 89 89 -14 35 25 b 151 172 35 144 85 172 b 197 167 174 172 189 169 b 176 99 188 153 176 131 b 233 43 176 68 193 43 b 331 169 308 43 331 107 b 228 288 331 249 294 288 b 140 257 181 288 154 269 b 92 221 133 235 118 221 b 58 247 68 221 58 232 b 76 279 58 260 64 271 b 81 383 79 310 81 350 b 65 544 81 438 76 496 l 76 561 b 271 549 124 553 188 549 b 435 607 364 549 408 557 "},"":{"ha":560,"x_min":0,"x_max":0,"o":"m 408 550 b 203 225 285 474 203 361 b 293 44 203 119 226 44 b 374 164 351 44 374 96 b 306 268 374 246 340 268 b 282 264 299 268 290 267 l 260 299 b 379 342 279 317 318 342 b 535 192 454 342 535 310 b 294 -14 535 72 440 -14 b 35 203 143 -14 35 58 b 386 596 35 399 167 511 "},"":{"ha":478,"x_min":0,"x_max":0,"o":"m 21 365 b 69 557 28 456 44 524 b 124 579 82 572 99 579 b 422 568 199 579 303 568 b 465 569 439 568 451 568 b 499 588 475 582 483 588 b 517 569 510 588 517 579 b 438 463 517 533 474 475 b 267 4 368 325 294 157 l 99 -19 l 88 0 b 364 449 129 156 249 325 b 251 446 331 447 289 446 b 142 447 210 446 176 447 b 57 365 85 447 67 421 "},"":{"ha":550,"x_min":0,"x_max":0,"o":"m 389 318 b 513 169 463 289 513 250 b 265 -14 513 69 442 -14 b 38 133 106 -14 38 38 b 167 272 38 193 76 249 b 57 413 92 306 57 343 b 292 564 57 490 133 564 b 493 444 428 564 493 517 b 389 318 493 375 450 338 m 326 347 b 363 436 346 363 363 396 b 288 508 363 478 336 508 b 214 444 238 508 214 481 b 326 347 214 401 257 375 m 226 240 b 181 143 196 221 181 192 b 274 40 181 83 214 40 b 356 118 333 40 356 75 b 226 240 356 167 329 199 "},"":{"ha":572,"x_min":0,"x_max":0,"o":"m 314 263 b 192 221 292 240 257 221 b 32 376 106 221 32 268 b 281 564 32 494 136 564 b 538 340 443 564 538 486 b 188 -46 538 178 428 44 l 165 0 b 371 329 289 79 371 182 b 271 506 371 428 338 506 b 190 399 219 506 190 457 b 272 293 190 332 221 293 b 294 299 281 293 289 296 "},"":{"ha":235,"x_min":0,"x_max":0,"o":"m 118 165 b 207 76 168 165 207 126 b 118 -14 207 25 168 -14 b 28 76 67 -14 28 25 b 118 165 28 126 67 165 "},"":{"ha":297,"x_min":0,"x_max":0,"o":"m 28 122 b 174 165 68 144 124 165 b 249 99 228 165 249 143 b 85 -94 249 18 178 -53 l 61 -64 b 99 39 85 -33 99 0 b 40 97 99 69 86 97 "},"":{"ha":543,"x_min":0,"x_max":0,"o":"m 288 619 l 288 564 b 492 463 357 564 492 560 b 394 378 492 414 464 378 b 331 392 367 378 357 379 b 357 449 346 407 357 418 b 288 508 357 490 322 506 l 288 360 b 506 188 421 322 506 290 b 288 3 506 76 426 15 l 288 -65 l 240 -65 l 240 1 b 38 107 139 3 38 18 b 139 197 38 149 71 197 b 200 185 167 197 186 193 b 179 117 186 164 179 144 b 240 57 179 78 204 60 l 240 224 b 47 390 119 258 47 286 b 240 560 47 488 124 549 l 240 619 m 240 506 b 178 443 204 501 178 479 b 240 369 178 403 196 381 l 240 506 m 288 57 b 367 129 326 58 367 78 b 288 214 367 175 338 200 l 288 57 "},"":{"ha":513,"x_min":0,"x_max":0,"o":"m 299 557 l 299 488 b 328 489 315 489 324 489 b 456 407 419 489 456 458 b 351 314 456 347 401 314 b 331 315 346 314 339 314 b 340 374 336 331 340 351 b 299 449 340 421 324 446 l 299 158 b 321 157 307 157 317 157 b 454 219 364 157 415 175 l 478 199 b 299 78 425 126 369 89 l 299 -4 l 244 -4 l 244 75 b 42 257 124 82 42 129 b 244 482 42 371 110 457 l 244 557 m 244 444 b 188 301 211 429 188 381 b 244 169 188 247 199 203 l 244 444 "},"":{"ha":347,"x_min":0,"x_max":0,"o":"m 319 289 b 28 189 231 264 106 221 l 28 315 b 319 411 126 342 224 374 "},"":{"ha":396,"x_min":0,"x_max":0,"o":"m 361 658 b 264 285 288 604 264 488 b 361 -112 264 43 292 -54 l 344 -147 b 97 276 111 -79 97 93 b 351 694 97 461 124 640 l 361 658 "},"":{"ha":396,"x_min":0,"x_max":0,"o":"m 44 694 b 299 276 272 640 299 461 b 51 -147 299 93 285 -79 l 35 -112 b 132 285 104 -54 132 43 b 35 658 132 488 108 604 l 44 694 "},"":{"ha":785,"x_min":0,"x_max":0,"o":"m 222 215 l 208 172 b 186 90 194 131 186 106 b 256 29 186 53 210 36 l 256 -4 b 119 4 217 1 174 4 b -21 -4 67 4 25 1 l -21 26 b 131 222 25 38 68 61 l 235 493 b 263 596 260 558 263 575 b 193 661 263 642 239 660 l 193 690 b 294 689 233 689 249 689 b 508 700 375 689 460 693 b 567 518 518 658 546 572 l 669 249 b 806 26 711 140 757 56 l 806 -4 b 622 4 746 1 685 4 b 432 -4 549 4 493 1 l 432 29 b 493 82 474 33 493 50 b 471 169 493 103 486 128 l 454 215 m 339 519 l 256 297 l 426 297 m 231 792 b 442 1065 313 874 383 965 b 590 917 499 1038 557 979 b 267 736 506 842 372 775 "},"":{"ha":785,"x_min":0,"x_max":0,"o":"m 222 215 l 208 172 b 186 90 194 131 186 106 b 256 29 186 53 210 36 l 256 -4 b 119 4 217 1 174 4 b -21 -4 67 4 25 1 l -21 26 b 131 222 25 38 68 61 l 235 493 b 263 596 260 558 263 575 b 193 661 263 642 239 660 l 193 690 b 294 689 233 689 249 689 b 508 700 375 689 460 693 b 567 518 518 658 546 572 l 669 249 b 806 26 711 140 757 56 l 806 -4 b 622 4 746 1 685 4 b 432 -4 549 4 493 1 l 432 29 b 493 82 474 33 493 50 b 471 169 493 103 486 128 l 454 215 m 339 519 l 256 297 l 426 297 m 601 858 b 697 804 647 807 657 803 l 703 781 l 558 740 b 532 736 547 738 540 736 b 453 781 501 736 478 751 l 351 894 b 265 740 311 851 285 796 l 92 740 b 439 1042 168 872 318 983 "},"":{"ha":785,"x_min":0,"x_max":0,"o":"m 222 215 l 208 172 b 186 90 194 131 186 106 b 256 29 186 53 210 36 l 256 -4 b 119 4 217 1 174 4 b -21 -4 67 4 25 1 l -21 26 b 131 222 25 38 68 61 l 235 493 b 263 596 260 558 263 575 b 193 661 263 642 239 660 l 193 690 b 294 689 233 689 249 689 b 508 700 375 689 460 693 b 567 518 518 658 546 572 l 669 249 b 806 26 711 140 757 56 l 806 -4 b 622 4 746 1 685 4 b 432 -4 549 4 493 1 l 432 29 b 493 82 474 33 493 50 b 471 169 493 103 486 128 l 454 215 m 339 519 l 256 297 l 426 297 m 225 1000 b 349 876 293 1000 349 944 b 225 753 349 808 293 753 b 101 876 157 753 101 808 b 225 1000 101 944 157 1000 m 553 1000 b 676 876 621 1000 676 944 b 553 753 676 808 621 753 b 429 876 485 753 429 808 b 553 1000 429 944 485 1000 "},"":{"ha":785,"x_min":0,"x_max":0,"o":"m 222 215 l 208 172 b 186 90 194 131 186 106 b 256 29 186 53 210 36 l 256 -4 b 119 4 217 1 174 4 b -21 -4 67 4 25 1 l -21 26 b 131 222 25 38 68 61 l 235 493 b 263 596 260 558 263 575 b 193 661 263 642 239 660 l 193 690 b 294 689 233 689 249 689 b 508 700 375 689 460 693 b 567 518 518 658 546 572 l 669 249 b 806 26 711 140 757 56 l 806 -4 b 622 4 746 1 685 4 b 432 -4 549 4 493 1 l 432 29 b 493 82 474 33 493 50 b 471 169 493 103 486 128 l 454 215 m 339 519 l 256 297 l 426 297 m 425 736 b 201 908 356 815 264 879 b 382 1044 229 965 306 1026 b 488 765 419 994 469 869 "},"":{"ha":785,"x_min":0,"x_max":0,"o":"m 222 215 l 208 172 b 186 90 194 131 186 106 b 256 29 186 53 210 36 l 256 -4 b 119 4 217 1 174 4 b -21 -4 67 4 25 1 l -21 26 b 131 222 25 38 68 61 l 235 493 b 263 596 260 558 263 575 b 193 661 263 642 239 660 l 193 690 b 294 689 233 689 249 689 b 508 700 375 689 460 693 b 567 518 518 658 546 572 l 669 249 b 806 26 711 140 757 56 l 806 -4 b 622 4 746 1 685 4 b 432 -4 549 4 493 1 l 432 29 b 493 82 474 33 493 50 b 471 169 493 103 486 128 l 454 215 m 339 519 l 256 297 l 426 297 m 386 1078 b 556 911 482 1078 556 1003 b 386 746 556 819 482 746 b 217 911 290 746 217 819 b 386 1078 217 1003 290 1078 m 386 993 b 310 911 342 993 310 956 b 386 831 310 867 342 831 b 463 911 431 831 463 867 b 386 993 463 956 431 993 "},"":{"ha":785,"x_min":0,"x_max":0,"o":"m 222 215 l 208 172 b 186 90 194 131 186 106 b 256 29 186 53 210 36 l 256 -4 b 119 4 217 1 174 4 b -21 -4 67 4 25 1 l -21 26 b 131 222 25 38 68 61 l 235 493 b 263 596 260 558 263 575 b 193 661 263 642 239 660 l 193 690 b 294 689 233 689 249 689 b 508 700 375 689 460 693 b 567 518 518 658 546 572 l 669 249 b 806 26 711 140 757 56 l 806 -4 b 622 4 746 1 685 4 b 432 -4 549 4 493 1 l 432 29 b 493 82 474 33 493 50 b 471 169 493 103 486 128 l 454 215 m 339 519 l 256 297 l 426 297 m 672 953 b 526 779 639 829 596 779 b 350 814 482 779 426 793 b 193 846 264 838 219 846 b 128 793 158 846 144 833 l 89 807 b 232 981 131 926 175 981 b 419 944 279 981 329 968 b 574 913 511 921 551 913 b 632 967 603 913 619 929 "},"":{"ha":792,"x_min":0,"x_max":0,"o":"m 660 468 b 469 632 628 586 565 632 b 290 354 354 632 290 535 b 469 57 290 240 315 57 b 718 242 569 57 654 108 l 771 217 b 721 26 746 146 732 96 b 444 -14 653 3 539 -14 b 49 336 163 -14 49 96 b 483 703 49 588 178 703 b 713 676 565 703 639 694 b 708 575 710 629 708 613 b 713 468 708 551 710 519 m 347 -110 b 476 -49 396 -71 444 -49 b 564 -171 522 -49 564 -107 b 361 -314 564 -253 476 -314 b 294 -308 339 -314 326 -312 l 318 -219 b 381 -235 346 -231 361 -235 b 429 -197 411 -235 429 -221 b 379 -125 429 -174 404 -125 b 361 -132 374 -125 369 -126 "},"":{"ha":708,"x_min":0,"x_max":0,"o":"m 344 404 l 374 404 b 488 479 422 404 467 411 l 546 479 b 539 363 542 453 539 404 b 546 247 539 321 542 278 l 488 247 b 374 328 461 308 432 328 l 344 328 l 344 226 b 358 104 344 157 349 128 b 429 63 369 76 392 63 b 650 226 535 63 607 143 l 708 196 b 629 -12 674 128 649 63 b 378 0 561 -6 468 0 l 204 0 b 36 -4 151 0 83 -1 l 36 26 b 126 257 101 43 126 108 l 126 432 b 35 663 126 582 100 647 l 35 693 b 204 689 85 690 151 689 l 374 689 b 611 696 471 689 558 692 b 638 496 613 625 619 571 l 585 479 b 365 619 539 592 497 619 l 344 619 m 169 792 b 381 1065 251 874 322 965 b 529 917 438 1038 496 979 b 206 736 444 842 311 775 "},"":{"ha":708,"x_min":0,"x_max":0,"o":"m 344 404 l 374 404 b 488 479 422 404 467 411 l 546 479 b 539 363 542 453 539 404 b 546 247 539 321 542 278 l 488 247 b 374 328 461 308 432 328 l 344 328 l 344 226 b 358 104 344 157 349 128 b 429 63 369 76 392 63 b 650 226 535 63 607 143 l 708 196 b 629 -12 674 128 649 63 b 378 0 561 -6 468 0 l 204 0 b 36 -4 151 0 83 -1 l 36 26 b 126 257 101 43 126 108 l 126 432 b 35 663 126 582 100 647 l 35 693 b 204 689 85 690 151 689 l 374 689 b 611 696 471 689 558 692 b 638 496 613 625 619 571 l 585 479 b 365 619 539 592 497 619 l 344 619 m 546 858 b 642 804 592 807 601 803 l 647 781 l 503 740 b 476 736 492 738 485 736 b 397 781 446 736 422 751 l 296 894 b 210 740 256 851 229 796 l 36 740 b 383 1042 113 872 263 983 "},"":{"ha":708,"x_min":0,"x_max":0,"o":"m 344 404 l 374 404 b 488 479 422 404 467 411 l 546 479 b 539 363 542 453 539 404 b 546 247 539 321 542 278 l 488 247 b 374 328 461 308 432 328 l 344 328 l 344 226 b 358 104 344 157 349 128 b 429 63 369 76 392 63 b 650 226 535 63 607 143 l 708 196 b 629 -12 674 128 649 63 b 378 0 561 -6 468 0 l 204 0 b 36 -4 151 0 83 -1 l 36 26 b 126 257 101 43 126 108 l 126 432 b 35 663 126 582 100 647 l 35 693 b 204 689 85 690 151 689 l 374 689 b 611 696 471 689 558 692 b 638 496 613 625 619 571 l 585 479 b 365 619 539 592 497 619 l 344 619 m 189 1001 b 313 878 257 1001 313 946 b 189 754 313 810 257 754 b 65 878 121 754 65 810 b 189 1001 65 946 121 1001 m 517 1001 b 640 878 585 1001 640 946 b 517 754 640 810 585 754 b 393 878 449 754 393 810 b 517 1001 393 946 449 1001 "},"":{"ha":708,"x_min":0,"x_max":0,"o":"m 344 404 l 374 404 b 488 479 422 404 467 411 l 546 479 b 539 363 542 453 539 404 b 546 247 539 321 542 278 l 488 247 b 374 328 461 308 432 328 l 344 328 l 344 226 b 358 104 344 157 349 128 b 429 63 369 76 392 63 b 650 226 535 63 607 143 l 708 196 b 629 -12 674 128 649 63 b 378 0 561 -6 468 0 l 204 0 b 36 -4 151 0 83 -1 l 36 26 b 126 257 101 43 126 108 l 126 432 b 35 663 126 582 100 647 l 35 693 b 204 689 85 690 151 689 l 374 689 b 611 696 471 689 558 692 b 638 496 613 625 619 571 l 585 479 b 365 619 539 592 497 619 l 344 619 m 388 736 b 164 908 318 815 226 879 b 344 1044 192 965 268 1026 b 450 765 382 994 432 869 "},"":{"ha":468,"x_min":0,"x_max":0,"o":"m 433 -4 b 240 4 376 1 308 4 b 35 -4 172 4 94 1 l 35 26 b 125 257 100 43 125 108 l 125 432 b 35 663 125 582 100 647 l 35 693 b 228 685 92 688 160 685 b 433 693 296 685 374 688 l 433 663 b 343 432 368 646 343 581 l 343 257 b 433 26 343 107 368 42 m 74 792 b 285 1065 156 874 226 965 b 433 917 342 1038 400 979 b 110 736 349 842 215 775 "},"":{"ha":454,"x_min":0,"x_max":0,"o":"m 417 -4 b 224 4 360 1 292 4 b 18 -4 156 4 78 1 l 18 26 b 108 257 83 43 108 108 l 108 432 b 18 663 108 582 83 647 l 18 693 b 211 685 75 688 143 685 b 417 693 279 685 357 688 l 417 663 b 326 432 351 646 326 581 l 326 257 b 417 26 326 107 351 42 m 424 858 b 519 804 469 807 479 803 l 525 781 l 381 740 b 354 736 369 738 363 736 b 275 781 324 736 300 751 l 174 894 b 88 740 133 851 107 796 l -86 740 b 261 1042 -10 872 140 983 "},"":{"ha":457,"x_min":0,"x_max":0,"o":"m 64 1001 b 188 878 132 1001 188 946 b 64 754 188 810 132 754 b -60 878 -4 754 -60 810 b 64 1001 -60 946 -4 1001 m 378 1001 b 501 878 446 1001 501 946 b 378 754 501 810 446 754 b 254 878 310 754 254 810 b 378 1001 254 946 310 1001 m 417 -4 b 224 4 360 1 292 4 b 18 -4 156 4 78 1 l 18 26 b 108 257 83 43 108 108 l 108 432 b 18 663 108 582 83 647 l 18 693 b 211 685 75 688 143 685 b 417 693 279 685 357 688 l 417 663 b 326 432 351 646 326 581 l 326 257 b 417 26 326 107 351 42 "},"":{"ha":468,"x_min":0,"x_max":0,"o":"m 433 -4 b 240 4 376 1 308 4 b 35 -4 172 4 94 1 l 35 26 b 125 257 100 43 125 108 l 125 432 b 35 663 125 582 100 647 l 35 693 b 228 685 92 688 160 685 b 433 693 296 685 374 688 l 433 663 b 343 432 368 646 343 581 l 343 257 b 433 26 343 107 368 42 m 263 736 b 39 908 193 815 101 879 b 219 1044 67 965 143 1026 b 325 765 257 994 307 869 "},"":{"ha":714,"x_min":0,"x_max":0,"o":"m 124 261 b 49 210 85 240 65 226 l 36 214 l 36 294 l 124 344 l 124 465 b 35 663 124 606 101 650 l 35 693 b 235 683 76 689 161 683 b 431 693 306 683 389 689 l 431 663 b 342 465 364 650 342 607 l 342 438 l 469 510 l 483 503 l 483 425 b 342 350 438 403 383 378 l 342 215 b 351 115 342 171 343 142 b 433 63 363 79 389 63 b 649 228 507 63 582 106 l 706 197 b 628 -10 674 128 649 64 b 343 0 557 -4 436 0 l 164 0 b 35 -4 122 0 75 -1 l 35 22 b 124 222 101 33 124 83 l 124 261 "},"":{"ha":875,"x_min":0,"x_max":0,"o":"m 649 460 b 560 663 649 600 628 650 l 560 693 b 701 685 596 689 646 685 b 840 693 756 685 808 689 l 840 663 b 753 460 774 650 753 600 l 753 263 b 760 -4 753 174 756 64 l 563 -4 l 228 508 l 228 228 b 317 26 228 86 249 38 l 317 -4 b 174 4 269 1 221 4 b 35 -4 128 4 78 1 l 35 26 b 124 228 101 38 124 86 l 124 460 b 35 663 124 600 101 650 l 35 693 b 199 685 78 689 139 685 b 333 693 249 685 299 689 b 450 504 365 625 406 564 l 649 219 m 739 953 b 593 779 706 829 663 779 b 417 814 549 779 493 793 b 260 846 331 838 286 846 b 194 793 225 846 211 833 l 156 807 b 299 981 197 926 242 981 b 486 944 346 981 396 968 b 640 913 578 921 618 913 b 699 967 669 913 686 929 "},"":{"ha":893,"x_min":0,"x_max":0,"o":"m 844 349 b 433 -14 844 85 682 -14 b 49 342 192 -14 49 96 b 468 703 49 603 222 703 b 844 349 714 703 844 589 m 607 340 b 453 633 607 533 547 633 b 290 360 356 633 290 533 b 446 56 290 256 311 56 b 607 340 583 56 607 236 m 307 792 b 518 1065 389 874 460 965 b 667 917 575 1038 633 979 b 343 736 582 842 449 775 "},"":{"ha":893,"x_min":0,"x_max":0,"o":"m 844 349 b 433 -14 844 85 682 -14 b 49 342 192 -14 49 96 b 468 703 49 603 222 703 b 844 349 714 703 844 589 m 607 340 b 453 633 607 533 547 633 b 290 360 356 633 290 533 b 446 56 290 256 311 56 b 607 340 583 56 607 236 m 683 858 b 779 804 729 807 739 803 l 785 781 l 640 740 b 614 736 629 738 622 736 b 535 781 583 736 560 751 l 433 894 b 347 740 393 851 367 796 l 174 740 b 521 1042 250 872 400 983 "},"":{"ha":893,"x_min":0,"x_max":0,"o":"m 844 349 b 433 -14 844 85 682 -14 b 49 342 192 -14 49 96 b 468 703 49 603 222 703 b 844 349 714 703 844 589 m 607 340 b 453 633 607 533 547 633 b 290 360 356 633 290 533 b 446 56 290 256 311 56 b 607 340 583 56 607 236 m 300 1001 b 424 878 368 1001 424 946 b 300 754 424 810 368 754 b 176 878 232 754 176 810 b 300 1001 176 946 232 1001 m 628 1001 b 751 878 696 1001 751 946 b 628 754 751 810 696 754 b 504 878 560 754 504 810 b 628 1001 504 946 560 1001 "},"":{"ha":893,"x_min":0,"x_max":0,"o":"m 844 349 b 433 -14 844 85 682 -14 b 49 342 192 -14 49 96 b 468 703 49 603 222 703 b 844 349 714 703 844 589 m 607 340 b 453 633 607 533 547 633 b 290 360 356 633 290 533 b 446 56 290 256 311 56 b 607 340 583 56 607 236 m 456 736 b 232 908 386 815 294 879 b 413 1044 260 965 336 1026 b 518 765 450 994 500 869 "},"":{"ha":893,"x_min":0,"x_max":0,"o":"m 844 349 b 433 -14 844 85 682 -14 b 49 342 192 -14 49 96 b 468 703 49 603 222 703 b 844 349 714 703 844 589 m 607 340 b 453 633 607 533 547 633 b 290 360 356 633 290 533 b 446 56 290 256 311 56 b 607 340 583 56 607 236 m 754 953 b 608 779 721 829 678 779 b 432 814 564 779 508 793 b 275 846 346 838 301 846 b 210 793 240 846 226 833 l 171 807 b 314 981 213 926 257 981 b 501 944 361 981 411 968 b 656 913 593 921 633 913 b 714 967 685 913 701 929 "},"":{"ha":667,"x_min":0,"x_max":0,"o":"m 525 471 b 365 635 503 578 442 635 b 275 558 308 635 275 607 b 404 433 275 499 297 478 b 614 213 528 382 614 342 b 276 -14 614 68 489 -14 b 46 29 161 -14 85 11 b 57 165 54 69 57 128 b 54 238 57 194 56 221 l 122 238 b 283 54 136 121 190 54 b 396 153 351 54 396 93 b 251 281 396 218 346 243 b 61 493 164 315 61 361 b 376 703 61 607 165 703 b 593 672 451 703 531 692 b 586 581 588 635 586 618 b 593 471 586 543 589 507 m 108 918 b 13 974 64 968 54 974 l 7 996 l 147 1036 b 181 1042 157 1039 171 1042 b 257 997 213 1042 236 1021 l 358 883 b 444 1038 400 928 425 981 l 618 1038 b 271 736 540 903 383 782 "},"":{"ha":913,"x_min":0,"x_max":0,"o":"m 569 154 b 338 -14 511 35 432 -14 b 111 239 138 -14 111 94 l 111 432 b 21 663 111 582 86 647 l 21 693 b 214 685 78 688 146 685 b 419 693 282 685 360 688 l 419 663 b 329 432 354 646 329 581 l 329 290 b 421 142 329 225 332 142 b 569 225 469 142 518 163 l 569 432 b 479 663 569 582 544 647 l 479 693 b 672 685 536 688 604 685 b 878 693 740 685 818 688 l 878 663 b 788 432 813 646 788 581 l 788 257 b 878 26 788 107 813 42 l 878 -4 b 711 4 831 1 778 4 b 569 -7 658 4 603 -1 m 314 792 b 525 1065 396 874 467 965 b 674 917 582 1038 640 979 b 350 736 589 842 456 775 "},"":{"ha":913,"x_min":0,"x_max":0,"o":"m 569 154 b 338 -14 511 35 432 -14 b 111 239 138 -14 111 94 l 111 432 b 21 663 111 582 86 647 l 21 693 b 214 685 78 688 146 685 b 419 693 282 685 360 688 l 419 663 b 329 432 354 646 329 581 l 329 290 b 421 142 329 225 332 142 b 569 225 469 142 518 163 l 569 432 b 479 663 569 582 544 647 l 479 693 b 672 685 536 688 604 685 b 878 693 740 685 818 688 l 878 663 b 788 432 813 646 788 581 l 788 257 b 878 26 788 107 813 42 l 878 -4 b 711 4 831 1 778 4 b 569 -7 658 4 603 -1 m 682 858 b 778 804 728 807 738 803 l 783 781 l 639 740 b 613 736 628 738 621 736 b 533 781 582 736 558 751 l 432 894 b 346 740 392 851 365 796 l 172 740 b 519 1042 249 872 399 983 "},"":{"ha":913,"x_min":0,"x_max":0,"o":"m 569 154 b 338 -14 511 35 432 -14 b 111 239 138 -14 111 94 l 111 432 b 21 663 111 582 86 647 l 21 693 b 214 685 78 688 146 685 b 419 693 282 685 360 688 l 419 663 b 329 432 354 646 329 581 l 329 290 b 421 142 329 225 332 142 b 569 225 469 142 518 163 l 569 432 b 479 663 569 582 544 647 l 479 693 b 672 685 536 688 604 685 b 878 693 740 685 818 688 l 878 663 b 788 432 813 646 788 581 l 788 257 b 878 26 788 107 813 42 l 878 -4 b 711 4 831 1 778 4 b 569 -7 658 4 603 -1 m 296 1001 b 419 878 364 1001 419 946 b 296 754 419 810 364 754 b 172 878 228 754 172 810 b 296 1001 172 946 228 1001 m 624 1001 b 747 878 692 1001 747 946 b 624 754 747 810 692 754 b 500 878 556 754 500 810 b 624 1001 500 946 556 1001 "},"":{"ha":913,"x_min":0,"x_max":0,"o":"m 569 154 b 338 -14 511 35 432 -14 b 111 239 138 -14 111 94 l 111 432 b 21 663 111 582 86 647 l 21 693 b 214 685 78 688 146 685 b 419 693 282 685 360 688 l 419 663 b 329 432 354 646 329 581 l 329 290 b 421 142 329 225 332 142 b 569 225 469 142 518 163 l 569 432 b 479 663 569 582 544 647 l 479 693 b 672 685 536 688 604 685 b 878 693 740 685 818 688 l 878 663 b 788 432 813 646 788 581 l 788 257 b 878 26 788 107 813 42 l 878 -4 b 711 4 831 1 778 4 b 569 -7 658 4 603 -1 m 471 736 b 247 908 401 815 310 879 b 428 1044 275 965 351 1026 b 533 765 465 994 515 869 "}}}
